<?xml version="1.0" encoding="UTF-8" standalone="no"?>
<!-- Created with Inkscape (http://www.inkscape.org/) -->

<svg
   xmlns:dc="http://purl.org/dc/elements/1.1/"
   xmlns:cc="http://creativecommons.org/ns#"
   xmlns:rdf="http://www.w3.org/1999/02/22-rdf-syntax-ns#"
   xmlns:svg="http://www.w3.org/2000/svg"
   xmlns="http://www.w3.org/2000/svg"
   xmlns:sodipodi="http://sodipodi.sourceforge.net/DTD/sodipodi-0.dtd"
   xmlns:inkscape="http://www.inkscape.org/namespaces/inkscape"
   width="29.700001cm"
   height="10.181636cm"
   viewBox="0 0 297 101.81636"
   version="1.1"
   id="svg8"
   sodipodi:docname="i2c-single.svg"
   inkscape:version="0.92.4 5da689c313, 2019-01-14">
  <defs
     id="defs2" />
  <sodipodi:namedview
     id="base"
     pagecolor="#ffffff"
     bordercolor="#666666"
     borderopacity="1.0"
     inkscape:pageopacity="0.0"
     inkscape:pageshadow="2"
     inkscape:zoom="0.74263967"
     inkscape:cx="493.50365"
     inkscape:cy="168.52122"
     inkscape:document-units="mm"
     inkscape:current-layer="layer1"
     showgrid="true"
     inkscape:snap-global="false"
     inkscape:window-width="1366"
     inkscape:window-height="768"
     inkscape:window-x="0"
     inkscape:window-y="0"
     inkscape:window-maximized="1"
     units="cm"
     fit-margin-top="1"
     fit-margin-bottom="1"
     fit-margin-left="0"
     fit-margin-right="0">
    <inkscape:grid
       type="xygrid"
       id="grid1021"
       units="cm"
       spacingx="5"
       spacingy="5"
       empspacing="1"
       empcolor="#0000ff"
       empopacity="0.10588235"
       originx="-30.397667"
       originy="-87.255341" />
  </sodipodi:namedview>
  <metadata
     id="metadata5">
    <rdf:RDF>
      <cc:Work
         rdf:about="">
        <dc:format>image/svg+xml</dc:format>
        <dc:type
           rdf:resource="http://purl.org/dc/dcmitype/StillImage" />
        <dc:title></dc:title>
      </cc:Work>
    </rdf:RDF>
  </metadata>
  <g
     inkscape:label="Layer 1"
     inkscape:groupmode="layer"
     id="layer1"
     transform="translate(-30.397668,-107.92831)">
    <path
       style="fill:none;fill-rule:evenodd;stroke:#000000;stroke-width:0.5;stroke-linecap:butt;stroke-linejoin:miter;stroke-opacity:1"
       d="m 136.67098,163.76338 c 21.70088,-3.30261 57.70701,-2.18604 86.32934,-1.10056"
       id="path4552"
       inkscape:connector-curvature="0"
       sodipodi:nodetypes="cc" />
    <path
       style="fill:none;fill-rule:evenodd;stroke:#000000;stroke-width:0.5;stroke-linecap:butt;stroke-linejoin:miter;stroke-opacity:1"
       d="m 137.04896,170.75594 c 25.80104,-2.18796 60.02957,-1.34928 85.9604,-0.76208"
       id="path4554"
       inkscape:connector-curvature="0"
       sodipodi:nodetypes="cc" />
    <path
       style="fill:none;fill-rule:evenodd;stroke:#000000;stroke-width:0.26458332px;stroke-linecap:butt;stroke-linejoin:miter;stroke-opacity:1"
       d="m 223.31138,151.66449 c -0.13547,4.5065 0.37798,8.74127 0.37798,13.22916 0,8.93015 -2.24251,17.00893 7.18154,17.00893 1.82093,0 11.94161,1.28756 12.85119,0.37798 0.83922,-0.83922 -1.47969,-29.44993 -2.26785,-30.2381 -2.9937,-2.99369 -14.21536,-1.85079 -18.14286,-0.37797 z"
       id="path4556"
       inkscape:connector-curvature="0" />
    <path
       style="fill:none;fill-rule:evenodd;stroke:#000000;stroke-width:0.26458332px;stroke-linecap:butt;stroke-linejoin:miter;stroke-opacity:1"
       d="m 136.68615,174.59056 c 1.15856,-0.63938 7.27133,0 5.61267,0"
       id="path4640"
       inkscape:connector-curvature="0" />
    <path
       style="fill:none;fill-rule:evenodd;stroke:#000000;stroke-width:0.26458332px;stroke-linecap:butt;stroke-linejoin:miter;stroke-opacity:1"
       d="m 94.457571,137.17283 c 1.780018,-0.0574 4.149312,-0.127 4.810852,0.53454"
       id="path4646"
       inkscape:connector-curvature="0" />
    <path
       style="fill:none;fill-rule:evenodd;stroke:#000000;stroke-width:0.26458332px;stroke-linecap:butt;stroke-linejoin:miter;stroke-opacity:1"
       d="m 94.190302,142.78549 c 1.185267,-0.75476 6.513548,-0.18318 5.612659,0.26727"
       id="path4648"
       inkscape:connector-curvature="0" />
    <path
       style="fill:none;fill-rule:evenodd;stroke:#000000;stroke-width:0.26458332px;stroke-linecap:butt;stroke-linejoin:miter;stroke-opacity:1"
       d="m 94.457571,147.86361 c 1.829747,-0.0926 5.356616,0.006 5.879929,0.26727"
       id="path4650"
       inkscape:connector-curvature="0" />
    <path
       style="fill:none;fill-rule:evenodd;stroke:#000000;stroke-width:0.26458332px;stroke-linecap:butt;stroke-linejoin:miter;stroke-opacity:1"
       d="m 96.061189,155.61442 c 1.228852,-0.45873 6.112721,-0.38366 5.345391,0"
       id="path4652"
       inkscape:connector-curvature="0" />
    <path
       style="fill:none;fill-rule:evenodd;stroke:#000000;stroke-width:0.26458332px;stroke-linecap:butt;stroke-linejoin:miter;stroke-opacity:1"
       d="m 95.79392,160.15801 c 1.15755,-0.8649 7.7599,-0.53454 5.87993,-0.53454"
       id="path4654"
       inkscape:connector-curvature="0" />
    <path
       style="fill:none;fill-rule:evenodd;stroke:#000000;stroke-width:0.26458332px;stroke-linecap:butt;stroke-linejoin:miter;stroke-opacity:1"
       d="m 96.862998,166.3052 c 1.592469,-0.18876 3.207232,0 4.810852,0"
       id="path4656"
       inkscape:connector-curvature="0" />
    <path
       style="fill:none;fill-rule:evenodd;stroke:#000000;stroke-width:0.26458332px;stroke-linecap:butt;stroke-linejoin:miter;stroke-opacity:1"
       d="m 96.595727,172.4524 c 1.395166,-0.70337 2.717329,-1.06907 4.276313,-1.06907"
       id="path4658"
       inkscape:connector-curvature="0" />
    <path
       style="fill:none;fill-rule:evenodd;stroke:#000000;stroke-width:0.26458332px;stroke-linecap:butt;stroke-linejoin:miter;stroke-opacity:1"
       d="m 96.862998,178.86687 c 1.548464,-1.39691 4.170062,-1.14959 5.612662,-1.87088"
       id="path4660"
       inkscape:connector-curvature="0" />
    <path
       style="fill:none;fill-rule:evenodd;stroke:#000000;stroke-width:0.26458332px;stroke-linecap:butt;stroke-linejoin:miter;stroke-opacity:1"
       d="m 97.130267,183.41045 c 1.405406,-0.35796 2.826033,-0.8018 4.276313,-0.8018"
       id="path4662"
       inkscape:connector-curvature="0" />
    <g
       id="g4792"
       transform="rotate(-15,-112.59438,-88.893331)">
      <g
         id="g4736"
         transform="rotate(2.4286334,56.522939,176.53944)">
        <path
           style="fill:none;fill-rule:evenodd;stroke:#000000;stroke-width:0.26458332px;stroke-linecap:butt;stroke-linejoin:miter;stroke-opacity:1"
           d="m 43.832203,167.90882 c 1.149455,0.0419 -2.928054,9.88897 -2.138156,9.88897 0.24416,0 2.405425,-9.01225 2.405425,-7.75081 0,2.22002 1.761355,6.87014 0.53454,7.48355"
           id="path4664"
           inkscape:connector-curvature="0" />
        <path
           style="fill:none;fill-rule:evenodd;stroke:#000000;stroke-width:0.26458332px;stroke-linecap:butt;stroke-linejoin:miter;stroke-opacity:1"
           d="m 41.694047,175.1251 c 1.236331,-0.088 6.448358,-1.62056 4.810849,-0.80181"
           id="path4666"
           inkscape:connector-curvature="0" />
        <path
           style="fill:none;fill-rule:evenodd;stroke:#000000;stroke-width:0.26458332px;stroke-linecap:butt;stroke-linejoin:miter;stroke-opacity:1"
           d="m 47.573975,174.05602 c 1.261467,6.60333 -0.712807,1.39577 2.672696,0.26727"
           id="path4668"
           inkscape:connector-curvature="0" />
        <path
           style="fill:none;fill-rule:evenodd;stroke:#000000;stroke-width:0.26458332px;stroke-linecap:butt;stroke-linejoin:miter;stroke-opacity:1"
           d="m 53.721174,175.1251 c -3.07018,-0.84606 -5.127098,6.19617 -1.069078,2.13816"
           id="path4670"
           inkscape:connector-curvature="0" />
        <path
           style="fill:none;fill-rule:evenodd;stroke:#000000;stroke-width:0.26458332px;stroke-linecap:butt;stroke-linejoin:miter;stroke-opacity:1"
           d="m 55.057521,170.84879 c -0.688253,1.89746 -1.069078,5.62348 -1.069078,6.949"
           id="path4672"
           inkscape:connector-curvature="0" />
        <path
           style="fill:none;fill-rule:evenodd;stroke:#000000;stroke-width:0.26458332px;stroke-linecap:butt;stroke-linejoin:miter;stroke-opacity:1"
           d="m 56.928408,174.32329 c -2.120736,7.91493 4.319254,-2.75857 2.138156,1.60362 -0.284538,0.56907 -0.05583,1.44801 -0.267269,1.87088"
           id="path4674"
           inkscape:connector-curvature="0" />
        <path
           style="fill:none;fill-rule:evenodd;stroke:#000000;stroke-width:0.26458332px;stroke-linecap:butt;stroke-linejoin:miter;stroke-opacity:1"
           d="m 62.273798,174.59056 c -0.204396,0.88525 -0.128225,1.86007 -0.534537,2.6727"
           id="path4676"
           inkscape:connector-curvature="0" />
        <path
           style="fill:none;fill-rule:evenodd;stroke:#000000;stroke-width:0.26458332px;stroke-linecap:butt;stroke-linejoin:miter;stroke-opacity:1"
           d="m 64.144686,174.59056 c -0.157549,0.23707 -0.914649,4.00904 -1.336347,4.00904 -1.152332,0 2.899505,-3.78223 3.474503,-3.20723 0.835601,0.8356 -0.782262,4.77176 -0.267269,3.74177"
           id="path4680"
           inkscape:connector-curvature="0" />
        <path
           style="fill:none;fill-rule:evenodd;stroke:#000000;stroke-width:0.26458332px;stroke-linecap:butt;stroke-linejoin:miter;stroke-opacity:1"
           d="m 67.88646,176.72872 c -3.713496,7.45199 9.776415,-2.44411 0,0 z"
           id="path4684"
           inkscape:connector-curvature="0" />
      </g>
    </g>
    <path
       style="fill:none;fill-rule:evenodd;stroke:#000000;stroke-width:0.26458332px;stroke-linecap:butt;stroke-linejoin:miter;stroke-opacity:1"
       d="m 225.15238,156.95008 c 1.23241,0 2.01908,-0.51998 1.06908,-1.46998 -0.33138,-0.33137 -1.06136,0.26727 -1.20272,0.26727 -0.0623,0 0.18574,-1.89946 0.13364,-2.00452 0.68185,0.2432 1.48441,0.39369 2.00452,0.13363"
       id="path4688"
       inkscape:connector-curvature="0" />
    <path
       style="fill:none;fill-rule:evenodd;stroke:#000000;stroke-width:0.26458332px;stroke-linecap:butt;stroke-linejoin:miter;stroke-opacity:1"
       d="m 227.69144,154.54465 c -0.99799,3.6232 1.64368,0.32078 1.87088,-0.13363"
       id="path4690"
       inkscape:connector-curvature="0" />
    <path
       style="fill:none;fill-rule:evenodd;stroke:#000000;stroke-width:0.26458332px;stroke-linecap:butt;stroke-linejoin:miter;stroke-opacity:1"
       d="m 226.22146,161.6273 c -3.21517,-0.44397 -0.53454,1.44272 -0.53454,2.00452 0,0.41133 -1.33635,0.39509 -1.33635,0.26727 0,-0.39081 0.51012,-0.0488 0.53454,0"
       id="path4692"
       inkscape:connector-curvature="0" />
    <path
       style="fill:none;fill-rule:evenodd;stroke:#000000;stroke-width:0.26458332px;stroke-linecap:butt;stroke-linejoin:miter;stroke-opacity:1"
       d="m 227.95871,161.22639 c -0.5867,0.59717 -2.27302,4.14513 -1.20272,2.00452"
       id="path4694"
       inkscape:connector-curvature="0" />
    <path
       style="fill:none;fill-rule:evenodd;stroke:#000000;stroke-width:0.26458332px;stroke-linecap:butt;stroke-linejoin:miter;stroke-opacity:1"
       d="m 227.02326,162.29547 c 0.79582,-2.17776 2.83785,0.25151 0.13364,1.60362 -0.72872,0.36436 -1.02036,0.49208 -1.20271,0.4009"
       id="path4696"
       inkscape:connector-curvature="0" />
    <path
       style="fill:none;fill-rule:evenodd;stroke:#000000;stroke-width:0.26458332px;stroke-linecap:butt;stroke-linejoin:miter;stroke-opacity:1"
       d="m 229.96323,161.6273 c -0.25009,0.36066 -0.43289,0.71614 -0.66817,1.06907 -2.27029,3.40544 0.5658,-1.1305 0.66817,-1.06907 0.20397,0.12237 0.58333,1.82209 0.26727,2.13815 -0.0275,0.0275 -1.46998,-0.65218 -1.46998,-0.66817 0,-0.18367 0.37026,0.0515 0.53454,0.13363 0.26661,0.13331 1.47071,2.7e-4 0.93544,-0.26727"
       id="path4698"
       inkscape:connector-curvature="0" />
    <path
       style="fill:none;fill-rule:evenodd;stroke:#000000;stroke-width:0.26458332px;stroke-linecap:butt;stroke-linejoin:miter;stroke-opacity:1"
       d="m 232.10138,179.13345 c -0.74363,-0.92097 -2.72227,0.43537 -2.27178,1.33635 0.60014,1.2003 2.93996,0.45091 2.93996,0.66817 0,0.28601 -2.00438,-1.00219 -1.33635,-0.66817 0.3058,0.1529 1.26341,0.0607 1.46998,0.26727 0.15279,0.15278 -0.89992,1.18495 -0.13363,0.80181"
       id="path4730"
       inkscape:connector-curvature="0" />
    <path
       style="fill:none;fill-rule:evenodd;stroke:#000000;stroke-width:0.26458332px;stroke-linecap:butt;stroke-linejoin:miter;stroke-opacity:1"
       d="m 233.83864,179.26708 c -0.22349,0.0161 -0.47307,2.00453 -0.53454,2.00453 -0.29882,0 0.26727,-0.53454 0.4009,-0.80181 0.0511,-0.1023 -0.059,-1.29905 0.13364,-1.20272 0.62996,0.31498 0.35319,1.37457 0.66817,2.00453"
       id="path4732"
       inkscape:connector-curvature="0" />
    <path
       style="fill:none;fill-rule:evenodd;stroke:#000000;stroke-width:0.26458332px;stroke-linecap:butt;stroke-linejoin:miter;stroke-opacity:1"
       d="m 235.70952,178.86618 c -0.61052,0.88121 -1.24648,1.82479 -1.60361,2.53906"
       id="path4734"
       inkscape:connector-curvature="0" />
    <path
       style="fill:none;fill-rule:evenodd;stroke:#000000;stroke-width:0.26458332px;stroke-linecap:butt;stroke-linejoin:miter;stroke-opacity:1"
       d="m 236.64497,179.40072 c -0.93799,3.26526 -1.30023,0.92873 0,0 1.65595,-1.18282 1.27405,0.4632 0.26727,1.46998 -0.26769,0.26769 -1.05423,0.19303 -1.46999,0.40091"
       id="path4736"
       inkscape:connector-curvature="0" />
    <path
       style="fill:none;fill-rule:evenodd;stroke:#000000;stroke-width:0.26458332px;stroke-linecap:butt;stroke-linejoin:miter;stroke-opacity:1"
       d="m 136.64012,157.48531 c 1.74139,0.0838 3.09043,-0.26727 4.81085,-0.26727"
       id="path4813"
       inkscape:connector-curvature="0" />
    <path
       style="fill:none;fill-rule:evenodd;stroke:#000000;stroke-width:0.26458332px;stroke-linecap:butt;stroke-linejoin:miter;stroke-opacity:1"
       d="m 136.07489,152.42254 c 2.00558,-0.20693 5.82685,0.0265 6.41447,-0.26727"
       id="path4815"
       inkscape:connector-curvature="0" />
    <path
       style="fill:none;fill-rule:evenodd;stroke:#000000;stroke-width:0.26458332px;stroke-linecap:butt;stroke-linejoin:miter;stroke-opacity:1"
       d="m 136.62477,147.34442 5.61266,0.53454"
       id="path4817"
       inkscape:connector-curvature="0" />
    <path
       style="fill:none;fill-rule:evenodd;stroke:#000000;stroke-width:0.26458332px;stroke-linecap:butt;stroke-linejoin:miter;stroke-opacity:1"
       d="m 137.75524,142.25095 c 1.60404,0.0759 3.37139,-0.21255 4.81084,0.26727"
       id="path4819"
       inkscape:connector-curvature="0" />
    <path
       style="fill:none;fill-rule:evenodd;stroke:#000000;stroke-width:0.26458332px;stroke-linecap:butt;stroke-linejoin:miter;stroke-opacity:1"
       d="m 138.55704,138.2419 c 1.63685,-0.26192 2.96494,0.53454 4.27631,0.53454"
       id="path4821"
       inkscape:connector-curvature="0" />
    <path
       style="fill:none;fill-rule:evenodd;stroke:#000000;stroke-width:0.26458332px;stroke-linecap:butt;stroke-linejoin:miter;stroke-opacity:1"
       d="m 158.02663,131.63542 c 0.1249,1.1049 -1.61194,5.38061 -0.56696,6.4256 0.32336,0.32336 4.7247,0.40128 4.7247,0.75595 0,0.0144 -0.69963,-0.0188 -0.75595,0 -0.71111,0.23703 -1.71757,0.37797 -2.45685,0.37797 -0.46229,0 -5.48065,0.40668 -5.48065,0.94494 0,0.69582 1.38305,0.18899 2.07887,0.18899 1.00903,0 4.0024,0.97859 4.53571,1.51191 0.0858,0.0858 1.51191,0.32426 1.51191,0.37798 0,0.29781 -1.97465,-0.24111 -3.2128,0.37797 -0.98326,0.49163 -2.66916,0.94494 -3.77976,0.94494 -0.0275,0 -0.75595,0.30538 -0.75595,0.18899 0,-0.11639 0.72844,0.18899 0.75595,0.18899 1.11829,0 2.41354,0.0486 3.40178,0.37797 0.45077,0.15026 3.96875,0.12469 3.96875,0.56697 0,0.0943 -3.65635,0.78874 -3.96875,0.94494 -0.87562,0.43781 -2.1878,0.75595 -3.21279,0.75595 -0.19921,0 -0.56697,0.3882 -0.56697,0.18899 0,-0.20356 4.03852,0.25876 4.15774,0.37797 0.12239,0.12239 -0.18899,0.39898 -0.18899,0.56697 0,0.62996 0,1.25992 0,1.88988 0,0.99926 -0.35391,5.24354 -0.75595,6.04762 -0.81749,1.63499 0.18899,3.65268 0.18899,5.48065"
       id="path4823"
       inkscape:connector-curvature="0" />
    <path
       style="fill:none;fill-rule:evenodd;stroke:#000000;stroke-width:0.26458332px;stroke-linecap:butt;stroke-linejoin:miter;stroke-opacity:1"
       d="m 167.85402,131.25744 c -0.0687,1.33087 1.91531,6.21119 0.75595,7.37054 -0.27521,0.27521 -3.25029,-0.0375 -2.26786,0.94494 0.48339,0.48338 4.34673,0.74536 4.34673,1.51191 0,0.66902 -5.78805,0.63754 -5.10268,1.32291 0.49264,0.49264 5.85863,1.30474 5.85863,1.88988 0,0.0618 -1.98738,-0.0305 -3.21279,0.37798 -0.78926,0.26309 -1.76509,0.75595 -2.64584,0.75595 -0.0819,0 -0.37797,0.23309 -0.37797,0.18899 0,-0.62599 5.89721,0.96423 6.2366,1.13393 0.81638,0.40819 -3.23509,0.77824 -3.77976,1.32291 -0.49802,0.49803 -1.88988,1.64926 -1.88988,0.94495 0,-0.19601 1.29752,0.18052 1.32292,0.18898 1.28897,0.42966 2.07887,-0.41817 2.07887,1.32292 0,5.29154 0,10.57073 0,15.68601 0,0.94095 0.28624,2.6917 -0.37798,3.02381"
       id="path4825"
       inkscape:connector-curvature="0" />
    <path
       style="fill:none;fill-rule:evenodd;stroke:#000000;stroke-width:0.26458332px;stroke-linecap:butt;stroke-linejoin:miter;stroke-opacity:1"
       d="m 175.22455,140.99033 c -0.20222,0.46084 -1.16949,3.27173 -1.03943,3.40179 0.0691,0.0691 0.68951,-0.16684 0.75595,-0.18899 0.1827,-0.0609 0.81398,0.13096 0.94494,0 0.191,-0.191 0.15229,-1.51191 0.18899,-1.51191 0.1958,0 -0.27946,2.5433 -0.37797,2.74033"
       id="path4845"
       inkscape:connector-curvature="0" />
    <path
       style="fill:none;fill-rule:evenodd;stroke:#000000;stroke-width:0.26458332px;stroke-linecap:butt;stroke-linejoin:miter;stroke-opacity:1"
       d="m 177.49241,145.43155 c -0.45384,0.0154 -0.57004,-0.14251 0,0 z"
       id="path4847"
       inkscape:connector-curvature="0" />
    <path
       style="fill:none;fill-rule:evenodd;stroke:#000000;stroke-width:0.26458332px;stroke-linecap:butt;stroke-linejoin:miter;stroke-opacity:1"
       d="m 177.77589,141.55729 c 3.31166,-0.97339 1.13393,1.16516 1.13393,3.59078"
       id="path4849"
       inkscape:connector-curvature="0" />
    <path
       style="fill:none;fill-rule:evenodd;stroke:#000000;stroke-width:0.26458332px;stroke-linecap:butt;stroke-linejoin:miter;stroke-opacity:1"
       d="m 177.77589,143.63617 c 0.28809,-0.009 2.8729,-0.28349 2.17337,-0.28349"
       id="path4851"
       inkscape:connector-curvature="0" />
    <path
       style="fill:none;fill-rule:evenodd;stroke:#000000;stroke-width:0.26458332px;stroke-linecap:butt;stroke-linejoin:miter;stroke-opacity:1"
       d="m 182.12262,140.99033 c -0.11783,0.29523 -0.21735,3.68527 -0.28348,3.68527 -0.0996,0 0.0499,-0.19439 0.0945,-0.28348"
       id="path4853"
       inkscape:connector-curvature="0" />
    <path
       style="fill:none;fill-rule:evenodd;stroke:#000000;stroke-width:0.26458332px;stroke-linecap:butt;stroke-linejoin:miter;stroke-opacity:1"
       d="m 183.25655,142.69122 c -0.10888,0.0726 -0.91963,0.47704 -1.32292,0.66146 0.45817,0.54622 1.03417,1.2179 1.13393,1.41741"
       id="path4855"
       inkscape:connector-curvature="0" />
    <path
       style="fill:none;fill-rule:evenodd;stroke:#000000;stroke-width:0.26458332px;stroke-linecap:butt;stroke-linejoin:miter;stroke-opacity:1"
       d="m 184.29598,144.95908 c 0.45609,0.11337 0.92043,-0.0945 1.32292,-0.0945 0.13384,0 -1.27961,-1.50402 -0.85045,-2.36235 0.1493,-0.2986 1.46037,-1.37445 1.98438,-0.85045 0.75774,0.75774 0.71097,1.79085 0.18899,2.83482 -0.0222,0.0445 -0.23201,0.33496 -0.18899,0.37798 0.0181,0.0181 1.36272,-0.0398 1.41741,-0.0945 0.096,-0.096 0.0945,-0.59523 0.0945,-0.75595"
       id="path4857"
       inkscape:connector-curvature="0" />
    <circle
       style="opacity:1;fill:#000000;fill-opacity:1;fill-rule:nonzero;stroke:none;stroke-width:1.06500006;stroke-linecap:round;stroke-linejoin:round;stroke-miterlimit:4;stroke-dasharray:none;stroke-dashoffset:0;stroke-opacity:1"
       id="circle4939"
       cx="169.25548"
       cy="169.28667"
       r="0.69999999" />
    <circle
       cy="131.3344"
       cx="167.38458"
       id="circle4941"
       style="opacity:1;fill:#000000;fill-opacity:1;fill-rule:nonzero;stroke:none;stroke-width:1.06500006;stroke-linecap:round;stroke-linejoin:round;stroke-miterlimit:4;stroke-dasharray:none;stroke-dashoffset:0;stroke-opacity:1"
       r="0.69999999" />
    <circle
       style="opacity:1;fill:#000000;fill-opacity:1;fill-rule:nonzero;stroke:none;stroke-width:1.06500006;stroke-linecap:round;stroke-linejoin:round;stroke-miterlimit:4;stroke-dasharray:none;stroke-dashoffset:0;stroke-opacity:1"
       id="circle4943"
       cx="158.29742"
       cy="131.06712"
       r="0.69999999" />
    <circle
       cy="161.26859"
       cx="158.03015"
       id="circle4945"
       style="opacity:1;fill:#000000;fill-opacity:1;fill-rule:nonzero;stroke:none;stroke-width:1.06500006;stroke-linecap:round;stroke-linejoin:round;stroke-miterlimit:4;stroke-dasharray:none;stroke-dashoffset:0;stroke-opacity:1"
       r="0.69999999" />
    <path
       style="fill:none;fill-rule:evenodd;stroke:#000000;stroke-width:0.26458332px;stroke-linecap:butt;stroke-linejoin:miter;stroke-opacity:1"
       d="m 132.32425,130.50149 c -0.17397,0.0169 -0.0638,1.41741 -0.0945,1.41741 -0.20956,0 1.88582,-0.0864 1.41742,0.85045 -0.31397,0.62794 -2.69112,1.41348 -2.17337,0.37798"
       id="path4745"
       inkscape:connector-curvature="0" />
    <path
       style="fill:none;fill-rule:evenodd;stroke:#000000;stroke-width:0.26458332px;stroke-linecap:butt;stroke-linejoin:miter;stroke-opacity:1"
       d="m 132.22976,130.87947 c 0.46754,-0.005 2.04646,-0.36177 1.70089,-0.18899"
       id="path4747"
       inkscape:connector-curvature="0" />
    <path
       style="fill:none;fill-rule:evenodd;stroke:#000000;stroke-width:0.26458332px;stroke-linecap:butt;stroke-linejoin:miter;stroke-opacity:1"
       d="m 134.59211,131.63542 c 0.63726,3.61104 0.9453,0.18863 1.70089,-0.56696"
       id="path4749"
       inkscape:connector-curvature="0" />
    <path
       style="fill:none;fill-rule:evenodd;stroke:#000000;stroke-width:0.26458332px;stroke-linecap:butt;stroke-linejoin:miter;stroke-opacity:1"
       d="m 130.71786,162.62947 c -0.51724,-0.47709 -1.89392,0.34378 -1.13393,0.85044 0.53644,0.35763 2.13828,0.25378 0.75595,0.94494 -0.28731,0.14366 -0.62372,0.18899 -0.94494,0.18899"
       id="path4751"
       inkscape:connector-curvature="0" />
    <path
       style="fill:none;fill-rule:evenodd;stroke:#000000;stroke-width:0.26458332px;stroke-linecap:butt;stroke-linejoin:miter;stroke-opacity:1"
       d="m 131.85178,162.44048 c 0.10066,0.76029 -0.27924,2.16701 -0.28348,2.17336 1.72512,2e-5 2.61781,-2.74205 0.28348,-2.17336 z"
       id="path4753"
       inkscape:connector-curvature="0" />
    <path
       style="fill:none;fill-rule:evenodd;stroke:#000000;stroke-width:0.26458332px;stroke-linecap:butt;stroke-linejoin:miter;stroke-opacity:1"
       d="m 133.55268,164.89732 c 1.37446,-3.72133 1.70089,-3.20593 1.70089,-0.0945"
       id="path4755"
       inkscape:connector-curvature="0" />
    <path
       style="fill:none;fill-rule:evenodd;stroke:#000000;stroke-width:0.26458332px;stroke-linecap:butt;stroke-linejoin:miter;stroke-opacity:1"
       d="m 133.74166,164.14137 c 0.61509,-0.31268 1.57332,-0.31418 2.07887,-0.56696"
       id="path4757"
       inkscape:connector-curvature="0" />
    <path
       style="fill:none;fill-rule:evenodd;stroke:#000000;stroke-width:0.26458332px;stroke-linecap:butt;stroke-linejoin:miter;stroke-opacity:1"
       d="m 131.00134,169.24405 c -0.47533,-0.1995 -0.63355,-0.0408 -1.03944,0.0945 -1.31325,0.43775 0.72297,0.87898 0.94494,1.32292 0.18528,0.37055 -0.85787,0.37427 -1.22842,0.18899"
       id="path4761"
       inkscape:connector-curvature="0" />
    <path
       style="fill:none;fill-rule:evenodd;stroke:#000000;stroke-width:0.26458332px;stroke-linecap:butt;stroke-linejoin:miter;stroke-opacity:1"
       d="m 132.60773,169.14956 c -1.75789,-0.0174 -1.75042,2.90683 0.85045,1.6064"
       id="path4763"
       inkscape:connector-curvature="0" />
    <path
       style="fill:none;fill-rule:evenodd;stroke:#000000;stroke-width:0.26458332px;stroke-linecap:butt;stroke-linejoin:miter;stroke-opacity:1"
       d="m 134.30863,169.05506 c -0.43985,2.02385 -0.34731,1.98438 1.5119,1.98438"
       id="path4765"
       inkscape:connector-curvature="0" />
    <path
       style="fill:none;fill-rule:evenodd;stroke:#000000;stroke-width:0.26458332px;stroke-linecap:butt;stroke-linejoin:miter;stroke-opacity:1"
       d="m 119.66205,185.9695 c -0.46742,-0.18889 -0.82668,0.0469 -1.03943,0.47247 -0.90951,1.81902 0.91841,1.02617 1.70089,1.41741"
       id="path4772"
       inkscape:connector-curvature="0" />
    <path
       style="fill:none;fill-rule:evenodd;stroke:#000000;stroke-width:0.26458332px;stroke-linecap:butt;stroke-linejoin:miter;stroke-opacity:1"
       d="m 119.18958,187.29241 c 0.92946,-0.67796 1.13393,-0.21845 1.13393,0.66146"
       id="path4774"
       inkscape:connector-curvature="0" />
    <path
       style="fill:none;fill-rule:evenodd;stroke:#000000;stroke-width:0.26458332px;stroke-linecap:butt;stroke-linejoin:miter;stroke-opacity:1"
       d="m 121.36294,187.85938 c -0.21438,-0.42879 -0.0384,-1.3314 -0.18898,-1.88988 0.32162,0.0902 0.44717,0.91964 0.66146,1.13393 0.28933,0.28933 0.42827,0.82835 0.85044,1.03943 0.0188,0.009 0.2384,0.18899 0.18899,0.18899 -0.19487,0 0.30898,-2.65858 -0.0945,-2.45685"
       id="path4776"
       inkscape:connector-curvature="0" />
    <path
       style="fill:none;fill-rule:evenodd;stroke:#000000;stroke-width:0.26458332px;stroke-linecap:butt;stroke-linejoin:miter;stroke-opacity:1"
       d="m 123.81979,186.25298 c -0.0658,0.51226 -0.021,1.73256 0,1.79539 1.10774,-0.7385 2.71407,-2.50253 0,-1.79539 z"
       id="path4778"
       inkscape:connector-curvature="0" />
    <path
       style="fill:none;fill-rule:evenodd;stroke:#000000;stroke-width:0.26458332px;stroke-linecap:butt;stroke-linejoin:miter;stroke-opacity:1"
       d="m 226.25134,169.33854 c -0.22967,-0.91083 -1.83851,0.14587 -1.5119,0.47247 0.17903,0.17904 0.86809,0.20663 1.03943,0.37798 1.73574,1.73574 -0.89212,1.11309 -1.03943,1.03943"
       id="path5624"
       inkscape:connector-curvature="0" />
    <path
       style="fill:none;fill-rule:evenodd;stroke:#000000;stroke-width:0.26458332px;stroke-linecap:butt;stroke-linejoin:miter;stroke-opacity:1"
       d="m 228.5192,169.62202 c -0.89019,-0.48542 -2.04084,0.92651 -1.6064,1.79539 0.18569,0.37139 2.4118,0.16426 1.98437,0.37798"
       id="path5626"
       inkscape:connector-curvature="0" />
    <path
       style="fill:none;fill-rule:evenodd;stroke:#000000;stroke-width:0.26458332px;stroke-linecap:butt;stroke-linejoin:miter;stroke-opacity:1"
       d="m 229.55863,169.52753 c 0.53174,1.64578 -1.11499,2.45684 0.94494,2.45684"
       id="path5628"
       inkscape:connector-curvature="0" />
    <path
       style="fill:none;fill-rule:evenodd;stroke:#000000;stroke-width:0.26458332px;stroke-linecap:butt;stroke-linejoin:miter;stroke-opacity:1"
       d="m 137.75523,130.75835 c 12.67922,0.026 92.26554,0.0575 94.88069,2.6727 2.06618,2.06619 0.69447,13.14665 1.06908,15.7689"
       id="path5636"
       inkscape:connector-curvature="0" />
    <path
       style="fill:none;fill-rule:evenodd;stroke:#000000;stroke-width:0.26458332px;stroke-linecap:butt;stroke-linejoin:miter;stroke-opacity:1"
       d="m 120.64998,189.82492 c 1.77109,1.84437 -0.33566,7.68242 1.33635,9.35443 1.63076,1.63075 15.91328,-1.87088 18.97614,-1.87088 12.20218,0 88.18847,4.01951 93.27707,-1.06908 1.12583,-1.12584 -0.80181,-12.64777 -0.80181,-14.16529"
       id="path5644"
       inkscape:connector-curvature="0" />
    <g
       id="g5694"
       transform="translate(63.721576)">
      <path
         inkscape:connector-curvature="0"
         id="path5662"
         d="m 187.00372,149.21131 c 0.0787,-0.74022 -1.99307,-0.48985 -1.79539,-0.0945 0.25727,0.51454 2.31536,1.55889 1.51191,2.36235 -0.53071,0.53071 -2.29286,-0.42797 -2.17337,-0.18899"
         style="fill:none;fill-rule:evenodd;stroke:#000000;stroke-width:0.26458332px;stroke-linecap:butt;stroke-linejoin:miter;stroke-opacity:1" />
      <path
         inkscape:connector-curvature="0"
         id="path5664"
         d="m 188.23214,148.92783 c -0.17863,1.49937 -1.3779,2.92931 0.66146,2.92931 0.40011,0 0.72624,0.0297 0.94494,-0.18899"
         style="fill:none;fill-rule:evenodd;stroke:#000000;stroke-width:0.26458332px;stroke-linecap:butt;stroke-linejoin:miter;stroke-opacity:1" />
      <path
         inkscape:connector-curvature="0"
         id="path5666"
         d="m 190.5,151.57366 c 0.23695,-0.3562 1.65746,-2.97274 1.88988,-2.74033 0.39931,0.39931 -0.51209,3.41704 -0.56697,3.30729"
         style="fill:none;fill-rule:evenodd;stroke:#000000;stroke-width:0.26458332px;stroke-linecap:butt;stroke-linejoin:miter;stroke-opacity:1" />
      <path
         inkscape:connector-curvature="0"
         id="path5668"
         d="m 190.59449,151.00669 c 0.44176,-0.37705 1.1201,-0.37797 1.70089,-0.37797"
         style="fill:none;fill-rule:evenodd;stroke:#000000;stroke-width:0.26458332px;stroke-linecap:butt;stroke-linejoin:miter;stroke-opacity:1" />
      <path
         inkscape:connector-curvature="0"
         id="path5670"
         d="m 193.80729,149.49479 c 0.76434,0.51654 -0.0661,-0.47247 0.0945,-0.47247 0.16061,0 -0.0945,0.31186 -0.0945,0.47247 0,0.20031 0.4542,2.47511 0.56696,2.36235 0.20841,-0.2084 0.44574,-0.68607 0.66146,-0.94494 0.65779,-0.78934 -0.35572,0.26124 0.47247,-0.56696 0.2895,-0.2895 0.64715,-0.54551 0.85045,-0.85045"
         style="fill:none;fill-rule:evenodd;stroke:#000000;stroke-width:0.26458332px;stroke-linecap:butt;stroke-linejoin:miter;stroke-opacity:1" />
      <path
         inkscape:connector-curvature="0"
         id="path5672"
         d="m 197.02009,150.9122 c 0.2977,0.5954 0.60484,-1.42894 1.03943,-1.88988 0.356,0.1759 2.11544,-0.0183 1.7009,0.18899"
         style="fill:none;fill-rule:evenodd;stroke:#000000;stroke-width:0.26458332px;stroke-linecap:butt;stroke-linejoin:miter;stroke-opacity:1" />
      <path
         inkscape:connector-curvature="0"
         id="path5674"
         d="m 197.49256,150.15625 c 0.52224,-0.11872 1.41363,-0.19088 1.79539,0"
         style="fill:none;fill-rule:evenodd;stroke:#000000;stroke-width:0.26458332px;stroke-linecap:butt;stroke-linejoin:miter;stroke-opacity:1" />
      <path
         inkscape:connector-curvature="0"
         id="path5676"
         d="m 196.73661,151.29018 c 0.94494,0 1.88988,0 2.83481,0"
         style="fill:none;fill-rule:evenodd;stroke:#000000;stroke-width:0.26458332px;stroke-linecap:butt;stroke-linejoin:miter;stroke-opacity:1" />
      <path
         inkscape:connector-curvature="0"
         id="path5680"
         d="m 183.31845,149.77827 c -0.57014,0.11403 -0.3201,0.0437 -0.75595,0.18899 -0.855,0.285 -1.5124,0.96414 -2.26786,1.41741 -0.30558,0.18335 -1.11231,0.75595 -0.75595,0.75595 0.64627,0 1.38399,-0.47247 2.17336,-0.47247"
         style="fill:none;fill-rule:evenodd;stroke:#000000;stroke-width:0.26458332px;stroke-linecap:butt;stroke-linejoin:miter;stroke-opacity:1" />
      <path
         inkscape:connector-curvature="0"
         id="path5682"
         d="m 180.01116,150.43973 c -0.24592,0.44335 -1.29934,1.85443 -1.03944,1.98438"
         style="fill:none;fill-rule:evenodd;stroke:#000000;stroke-width:0.26458332px;stroke-linecap:butt;stroke-linejoin:miter;stroke-opacity:1" />
    </g>
    <path
       style="fill:none;fill-rule:evenodd;stroke:#000000;stroke-width:0.26458332px;stroke-linecap:butt;stroke-linejoin:miter;stroke-opacity:1"
       d="m 149.14419,186.53646 c 0.17957,0.17956 -0.15944,0.75595 0.0945,0.75595 0.0213,0 -0.0945,-0.45927 -0.0945,-0.47247 0,-1.36259 -0.15759,-2.72608 0,-4.06325 1.32205,1.09691 0.9489,3.58419 2.36236,1.22843 0.37935,-0.63226 0.90888,-1.15632 1.22842,-1.79539 0.25793,-0.51586 0.41518,4.27231 0.75595,3.59078"
       id="path5696"
       inkscape:connector-curvature="0" />
    <path
       style="fill:none;fill-rule:evenodd;stroke:#000000;stroke-width:0.26458332px;stroke-linecap:butt;stroke-linejoin:miter;stroke-opacity:1"
       d="m 154.90833,186.34747 c 0.14585,-0.59956 1.39311,-4.59511 1.88988,-4.34673 0.79392,0.39696 1.04361,4.52736 0.94494,4.7247"
       id="path5698"
       inkscape:connector-curvature="0" />
    <path
       style="fill:none;fill-rule:evenodd;stroke:#000000;stroke-width:0.26458332px;stroke-linecap:butt;stroke-linejoin:miter;stroke-opacity:1"
       d="m 155.28631,184.93006 c 0.36111,-0.005 3.29279,-0.79595 2.07887,-0.18899"
       id="path5700"
       inkscape:connector-curvature="0" />
    <path
       style="fill:none;fill-rule:evenodd;stroke:#000000;stroke-width:0.26458332px;stroke-linecap:butt;stroke-linejoin:miter;stroke-opacity:1"
       d="m 161.90089,183.22917 c 0.13075,-1.53444 -2.72664,0.48616 -1.51191,1.70089 0.14739,0.14738 2.29053,0.82777 1.98438,1.13393 -0.6714,0.67139 -4.17683,-0.0945 -1.88988,-0.0945"
       id="path5702"
       inkscape:connector-curvature="0" />
    <path
       style="fill:none;fill-rule:evenodd;stroke:#000000;stroke-width:0.26458332px;stroke-linecap:butt;stroke-linejoin:miter;stroke-opacity:1"
       d="m 164.73571,182.94568 c -0.33275,0.46059 0.16796,4.75611 -0.47246,2.83482"
       id="path5704"
       inkscape:connector-curvature="0" />
    <path
       style="fill:none;fill-rule:evenodd;stroke:#000000;stroke-width:0.26458332px;stroke-linecap:butt;stroke-linejoin:miter;stroke-opacity:1"
       d="m 163.22381,183.22917 c 0.48507,0.14359 5.78373,-0.73723 3.2128,-0.0945"
       id="path5706"
       inkscape:connector-curvature="0" />
    <path
       style="fill:none;fill-rule:evenodd;stroke:#000000;stroke-width:0.26458332px;stroke-linecap:butt;stroke-linejoin:miter;stroke-opacity:1"
       d="m 167.85402,185.7805 c -0.49272,0.98545 0.56716,-2.34606 0.56696,-2.64583 0.33985,-0.17212 2.68287,-0.44373 1.79539,0"
       id="path5708"
       inkscape:connector-curvature="0" />
    <path
       style="fill:none;fill-rule:evenodd;stroke:#000000;stroke-width:0.26458332px;stroke-linecap:butt;stroke-linejoin:miter;stroke-opacity:1"
       d="m 167.94851,184.93006 c 0.58032,0.15577 1.19677,0.0945 1.79539,0.0945"
       id="path5710"
       inkscape:connector-curvature="0" />
    <path
       style="fill:none;fill-rule:evenodd;stroke:#000000;stroke-width:0.26458332px;stroke-linecap:butt;stroke-linejoin:miter;stroke-opacity:1"
       d="m 167.47604,186.15848 c 0.99461,0.1416 1.97321,-0.18899 2.92932,-0.18899"
       id="path5712"
       inkscape:connector-curvature="0" />
    <path
       style="fill:none;fill-rule:evenodd;stroke:#000000;stroke-width:0.26458332px;stroke-linecap:butt;stroke-linejoin:miter;stroke-opacity:1"
       d="m 171.63378,185.68601 c -0.46316,0.92632 0.93144,-1.97331 0.75595,-2.55134 0.69098,-0.94404 1.64386,-0.56526 1.41742,0.56697 -0.0913,0.45664 -0.58683,1.02077 -1.03944,1.13393 -0.3071,0.0768 -0.94494,-0.22206 -0.94494,0.0945 0,0.12137 0.39723,0.34036 0.47247,0.37798 0.53195,0.26597 2.25129,1.40912 2.07887,1.32291"
       id="path5714"
       inkscape:connector-curvature="0" />
    <path
       style="fill:none;fill-rule:evenodd;stroke:#000000;stroke-width:0.26458332px;stroke-linecap:butt;stroke-linejoin:miter;stroke-opacity:1"
       d="m 147.06532,184.55208 c -1.94398,-0.50728 -4.15785,-0.65365 -5.95312,-1.70089 -1.23705,-0.72162 -2.19717,-1.94903 -2.07887,-1.88988 0.27347,0.13673 0.46019,0.41908 0.75595,0.56696"
       id="path5724"
       inkscape:connector-curvature="0" />
    <path
       style="fill:none;fill-rule:evenodd;stroke:#000000;stroke-width:0.26458332px;stroke-linecap:butt;stroke-linejoin:miter;stroke-opacity:1"
       d="m 138.84434,181.24479 c 0.65633,0.64065 0.86538,2.18083 1.41741,2.45685"
       id="path5726"
       inkscape:connector-curvature="0" />
    <path
       style="fill:none;fill-rule:evenodd;stroke:#000000;stroke-width:0.26458332px;stroke-linecap:butt;stroke-linejoin:miter;stroke-opacity:1"
       d="m 139.41131,180.96131 c 0.46633,0.53267 2.64428,1.08746 2.55134,1.13393"
       id="path5728"
       inkscape:connector-curvature="0" />
    <path
       style="fill:none;fill-rule:evenodd;stroke:#000000;stroke-width:0.26458332px;stroke-linecap:butt;stroke-linejoin:miter;stroke-opacity:1"
       d="m 101.25823,129.97447 c 5.10196,-1.49026 10.86147,0.15837 15.87121,-1.51154 2.38256,-0.79419 17.22519,-3.18064 19.39814,-1.0077 2.5572,2.5572 0.50384,17.56295 0.50384,20.40584 0,11.4277 -1.60659,24.75035 1.51155,35.01741 0.34338,0.68677 0.75037,6.55542 0.50384,6.80195 -1.47019,1.47019 -14.12322,1.25962 -16.62697,1.25962 -4.56124,0 -17.06717,2.83481 -20.65776,-0.75578 -0.39408,-0.39407 0,-8.53961 0,-9.5731 0,-14.70108 -4.83088,-37.6556 -0.50385,-50.6367 z"
       id="path5768"
       inkscape:connector-curvature="0"
       sodipodi:nodetypes="ccssccscsc" />
  </g>
</svg>
