<?xml version="1.0" encoding="UTF-8" standalone="no"?>
<!-- Created with Inkscape (http://www.inkscape.org/) -->

<svg
   xmlns:dc="http://purl.org/dc/elements/1.1/"
   xmlns:cc="http://creativecommons.org/ns#"
   xmlns:rdf="http://www.w3.org/1999/02/22-rdf-syntax-ns#"
   xmlns:svg="http://www.w3.org/2000/svg"
   xmlns="http://www.w3.org/2000/svg"
   xmlns:sodipodi="http://sodipodi.sourceforge.net/DTD/sodipodi-0.dtd"
   xmlns:inkscape="http://www.inkscape.org/namespaces/inkscape"
   width="29.700001cm"
   height="10.181636cm"
   viewBox="0 0 297 101.81636"
   version="1.1"
   id="svg8"
   sodipodi:docname="tea5767-wiring.svg"
   inkscape:version="0.92.4 5da689c313, 2019-01-14">
  <defs
     id="defs2" />
  <sodipodi:namedview
     id="base"
     pagecolor="#ffffff"
     bordercolor="#666666"
     borderopacity="1.0"
     inkscape:pageopacity="0.0"
     inkscape:pageshadow="2"
     inkscape:zoom="0.52512555"
     inkscape:cx="646.59838"
     inkscape:cy="159.79627"
     inkscape:document-units="mm"
     inkscape:current-layer="layer1"
     showgrid="true"
     inkscape:snap-global="false"
     inkscape:window-width="1366"
     inkscape:window-height="704"
     inkscape:window-x="0"
     inkscape:window-y="27"
     inkscape:window-maximized="1"
     units="cm"
     fit-margin-top="1"
     fit-margin-bottom="1"
     fit-margin-left="0"
     fit-margin-right="0">
    <inkscape:grid
       type="xygrid"
       id="grid1021"
       units="cm"
       spacingx="5"
       spacingy="5"
       empspacing="1"
       empcolor="#0000ff"
       empopacity="0.10588235"
       originx="-30.397667"
       originy="-87.255341" />
  </sodipodi:namedview>
  <metadata
     id="metadata5">
    <rdf:RDF>
      <cc:Work
         rdf:about="">
        <dc:format>image/svg+xml</dc:format>
        <dc:type
           rdf:resource="http://purl.org/dc/dcmitype/StillImage" />
        <dc:title></dc:title>
      </cc:Work>
    </rdf:RDF>
  </metadata>
  <g
     inkscape:label="Layer 1"
     inkscape:groupmode="layer"
     id="layer1"
     transform="translate(-30.397668,-107.92831)">
    <path
       style="fill:none;fill-rule:evenodd;stroke:#000000;stroke-width:0.25;stroke-linecap:butt;stroke-linejoin:miter;stroke-opacity:1"
       d="m 115.50441,163.76338 c 21.70088,-3.30261 20.40076,-2.18604 49.02309,-1.10056"
       id="path4552"
       inkscape:connector-curvature="0"
       sodipodi:nodetypes="cc" />
    <path
       style="fill:none;fill-rule:evenodd;stroke:#000000;stroke-width:0.25;stroke-linecap:butt;stroke-linejoin:miter;stroke-opacity:1"
       d="m 115.88239,170.75594 c 25.80104,-2.18796 22.72332,-1.34928 48.65415,-0.76208"
       id="path4554"
       inkscape:connector-curvature="0"
       sodipodi:nodetypes="cc" />
    <path
       style="fill:none;fill-rule:evenodd;stroke:#000000;stroke-width:0.26458332px;stroke-linecap:butt;stroke-linejoin:miter;stroke-opacity:1"
       d="m 164.83856,151.66449 c -0.13547,4.5065 0.37798,8.74127 0.37798,13.22916 0,8.93015 -2.24251,17.00893 7.18154,17.00893 1.82093,0 11.94161,1.28756 12.85119,0.37798 0.83922,-0.83922 -1.47969,-29.44993 -2.26785,-30.2381 -2.9937,-2.99369 -14.21536,-1.85079 -18.14286,-0.37797 z"
       id="path4556"
       inkscape:connector-curvature="0"
       sodipodi:nodetypes="cssscc" />
    <path
       style="fill:none;fill-rule:evenodd;stroke:#000000;stroke-width:0.26458332px;stroke-linecap:butt;stroke-linejoin:miter;stroke-opacity:1"
       d="m 115.51958,174.59056 c 1.15856,-0.63938 7.27133,0 5.61267,0"
       id="path4640"
       inkscape:connector-curvature="0" />
    <path
       style="fill:none;fill-rule:evenodd;stroke:#000000;stroke-width:0.26458332px;stroke-linecap:butt;stroke-linejoin:miter;stroke-opacity:1"
       d="m 73.290914,137.17283 c 1.780018,-0.0574 4.149312,-0.127 4.810852,0.53454"
       id="path4646"
       inkscape:connector-curvature="0" />
    <path
       style="fill:none;fill-rule:evenodd;stroke:#000000;stroke-width:0.26458332px;stroke-linecap:butt;stroke-linejoin:miter;stroke-opacity:1"
       d="m 73.023645,142.78549 c 1.185267,-0.75476 6.513554,-0.18318 5.612659,0.26727"
       id="path4648"
       inkscape:connector-curvature="0" />
    <path
       style="fill:none;fill-rule:evenodd;stroke:#000000;stroke-width:0.26458332px;stroke-linecap:butt;stroke-linejoin:miter;stroke-opacity:1"
       d="m 73.290914,147.86361 c 1.829747,-0.0926 5.356616,0.006 5.879932,0.26727"
       id="path4650"
       inkscape:connector-curvature="0" />
    <path
       style="fill:none;fill-rule:evenodd;stroke:#000000;stroke-width:0.26458332px;stroke-linecap:butt;stroke-linejoin:miter;stroke-opacity:1"
       d="m 74.894532,155.61442 c 1.228852,-0.45873 6.112736,-0.38366 5.345406,0"
       id="path4652"
       inkscape:connector-curvature="0" />
    <path
       style="fill:none;fill-rule:evenodd;stroke:#000000;stroke-width:0.26458332px;stroke-linecap:butt;stroke-linejoin:miter;stroke-opacity:1"
       d="m 74.627263,160.15801 c 1.15755,-0.8649 7.759921,-0.53454 5.879945,-0.53454"
       id="path4654"
       inkscape:connector-curvature="0" />
    <path
       style="fill:none;fill-rule:evenodd;stroke:#000000;stroke-width:0.26458332px;stroke-linecap:butt;stroke-linejoin:miter;stroke-opacity:1"
       d="m 75.696341,166.3052 c 1.592469,-0.18876 3.207232,0 4.810867,0"
       id="path4656"
       inkscape:connector-curvature="0" />
    <path
       style="fill:none;fill-rule:evenodd;stroke:#000000;stroke-width:0.26458332px;stroke-linecap:butt;stroke-linejoin:miter;stroke-opacity:1"
       d="m 75.42907,172.4524 c 1.395166,-0.70337 2.717329,-1.06907 4.276322,-1.06907"
       id="path4658"
       inkscape:connector-curvature="0" />
    <path
       style="fill:none;fill-rule:evenodd;stroke:#000000;stroke-width:0.26458332px;stroke-linecap:butt;stroke-linejoin:miter;stroke-opacity:1"
       d="m 75.696341,178.86687 c 1.548464,-1.39691 4.170071,-1.14959 5.612677,-1.87088"
       id="path4660"
       inkscape:connector-curvature="0" />
    <path
       style="fill:none;fill-rule:evenodd;stroke:#000000;stroke-width:0.26458332px;stroke-linecap:butt;stroke-linejoin:miter;stroke-opacity:1"
       d="m 75.96361,183.41045 c 1.405406,-0.35796 2.826033,-0.8018 4.276328,-0.8018"
       id="path4662"
       inkscape:connector-curvature="0" />
    <g
       id="g4792"
       transform="rotate(-15,-123.17758,-8.504931)">
      <g
         id="g4736"
         transform="rotate(2.4286334,56.522939,176.53944)">
        <path
           style="fill:none;fill-rule:evenodd;stroke:#000000;stroke-width:0.26458332px;stroke-linecap:butt;stroke-linejoin:miter;stroke-opacity:1"
           d="m 43.832203,167.90882 c 1.149455,0.0419 -2.928054,9.88897 -2.138156,9.88897 0.24416,0 2.405425,-9.01225 2.405425,-7.75081 0,2.22002 1.761355,6.87014 0.53454,7.48355"
           id="path4664"
           inkscape:connector-curvature="0" />
        <path
           style="fill:none;fill-rule:evenodd;stroke:#000000;stroke-width:0.26458332px;stroke-linecap:butt;stroke-linejoin:miter;stroke-opacity:1"
           d="m 41.694047,175.1251 c 1.236331,-0.088 6.448358,-1.62056 4.810849,-0.80181"
           id="path4666"
           inkscape:connector-curvature="0" />
        <path
           style="fill:none;fill-rule:evenodd;stroke:#000000;stroke-width:0.26458332px;stroke-linecap:butt;stroke-linejoin:miter;stroke-opacity:1"
           d="m 47.573975,174.05602 c 1.261467,6.60333 -0.712807,1.39577 2.672696,0.26727"
           id="path4668"
           inkscape:connector-curvature="0" />
        <path
           style="fill:none;fill-rule:evenodd;stroke:#000000;stroke-width:0.26458332px;stroke-linecap:butt;stroke-linejoin:miter;stroke-opacity:1"
           d="m 53.721174,175.1251 c -3.07018,-0.84606 -5.127098,6.19617 -1.069078,2.13816"
           id="path4670"
           inkscape:connector-curvature="0" />
        <path
           style="fill:none;fill-rule:evenodd;stroke:#000000;stroke-width:0.26458332px;stroke-linecap:butt;stroke-linejoin:miter;stroke-opacity:1"
           d="m 55.057521,170.84879 c -0.688253,1.89746 -1.069078,5.62348 -1.069078,6.949"
           id="path4672"
           inkscape:connector-curvature="0" />
        <path
           style="fill:none;fill-rule:evenodd;stroke:#000000;stroke-width:0.26458332px;stroke-linecap:butt;stroke-linejoin:miter;stroke-opacity:1"
           d="m 56.928408,174.32329 c -2.120736,7.91493 4.319254,-2.75857 2.138156,1.60362 -0.284538,0.56907 -0.05583,1.44801 -0.267269,1.87088"
           id="path4674"
           inkscape:connector-curvature="0" />
        <path
           style="fill:none;fill-rule:evenodd;stroke:#000000;stroke-width:0.26458332px;stroke-linecap:butt;stroke-linejoin:miter;stroke-opacity:1"
           d="m 62.273798,174.59056 c -0.204396,0.88525 -0.128225,1.86007 -0.534537,2.6727"
           id="path4676"
           inkscape:connector-curvature="0" />
        <path
           style="fill:none;fill-rule:evenodd;stroke:#000000;stroke-width:0.26458332px;stroke-linecap:butt;stroke-linejoin:miter;stroke-opacity:1"
           d="m 64.144686,174.59056 c -0.157549,0.23707 -0.914649,4.00904 -1.336347,4.00904 -1.152332,0 2.899505,-3.78223 3.474503,-3.20723 0.835601,0.8356 -0.782262,4.77176 -0.267269,3.74177"
           id="path4680"
           inkscape:connector-curvature="0" />
        <path
           style="fill:none;fill-rule:evenodd;stroke:#000000;stroke-width:0.26458332px;stroke-linecap:butt;stroke-linejoin:miter;stroke-opacity:1"
           d="m 67.88646,176.72872 c -3.713496,7.45199 9.776415,-2.44411 0,0 z"
           id="path4684"
           inkscape:connector-curvature="0" />
      </g>
    </g>
    <path
       style="fill:none;fill-rule:evenodd;stroke:#000000;stroke-width:0.26458332px;stroke-linecap:butt;stroke-linejoin:miter;stroke-opacity:1"
       d="m 167.74864,161.6273 c -3.21517,-0.44397 -0.53454,1.44272 -0.53454,2.00452 0,0.41133 -1.33635,0.39509 -1.33635,0.26727 0,-0.39081 0.51012,-0.0488 0.53454,0"
       id="path4692"
       inkscape:connector-curvature="0"
       sodipodi:nodetypes="cssc" />
    <path
       style="fill:none;fill-rule:evenodd;stroke:#000000;stroke-width:0.26458332px;stroke-linecap:butt;stroke-linejoin:miter;stroke-opacity:1"
       d="m 169.48589,161.22639 c -0.5867,0.59717 -2.27302,4.14513 -1.20272,2.00452"
       id="path4694"
       inkscape:connector-curvature="0"
       sodipodi:nodetypes="cc" />
    <path
       style="fill:none;fill-rule:evenodd;stroke:#000000;stroke-width:0.26458332px;stroke-linecap:butt;stroke-linejoin:miter;stroke-opacity:1"
       d="m 168.55044,162.29547 c 0.79582,-2.17776 2.83785,0.25151 0.13364,1.60362 -0.72872,0.36436 -1.02036,0.49208 -1.20271,0.4009"
       id="path4696"
       inkscape:connector-curvature="0"
       sodipodi:nodetypes="ccc" />
    <path
       style="fill:none;fill-rule:evenodd;stroke:#000000;stroke-width:0.26458332px;stroke-linecap:butt;stroke-linejoin:miter;stroke-opacity:1"
       d="m 171.49041,161.6273 c -0.25009,0.36066 -0.43289,0.71614 -0.66817,1.06907 -2.27029,3.40544 0.5658,-1.1305 0.66817,-1.06907 0.20397,0.12237 0.58333,1.82209 0.26727,2.13815 -0.0275,0.0275 -1.46998,-0.65218 -1.46998,-0.66817 0,-0.18367 0.37026,0.0515 0.53454,0.13363 0.26661,0.13331 1.47071,2.7e-4 0.93544,-0.26727"
       id="path4698"
       inkscape:connector-curvature="0"
       sodipodi:nodetypes="cccsscc" />
    <path
       style="fill:none;fill-rule:evenodd;stroke:#000000;stroke-width:0.26458332px;stroke-linecap:butt;stroke-linejoin:miter;stroke-opacity:1"
       d="m 173.62856,179.13345 c -0.74363,-0.92097 -2.72227,0.43537 -2.27178,1.33635 0.60014,1.2003 2.93996,0.45091 2.93996,0.66817 0,0.28601 -2.00438,-1.00219 -1.33635,-0.66817 0.3058,0.1529 1.26341,0.0607 1.46998,0.26727 0.15279,0.15278 -0.89992,1.18495 -0.13363,0.80181"
       id="path4730"
       inkscape:connector-curvature="0"
       sodipodi:nodetypes="ccsccc" />
    <path
       style="fill:none;fill-rule:evenodd;stroke:#000000;stroke-width:0.26458332px;stroke-linecap:butt;stroke-linejoin:miter;stroke-opacity:1"
       d="m 175.36582,179.26708 c -0.22349,0.0161 -0.47307,2.00453 -0.53454,2.00453 -0.29882,0 0.26727,-0.53454 0.4009,-0.80181 0.0511,-0.1023 -0.059,-1.29905 0.13364,-1.20272 0.62996,0.31498 0.35319,1.37457 0.66817,2.00453"
       id="path4732"
       inkscape:connector-curvature="0"
       sodipodi:nodetypes="csccc" />
    <path
       style="fill:none;fill-rule:evenodd;stroke:#000000;stroke-width:0.26458332px;stroke-linecap:butt;stroke-linejoin:miter;stroke-opacity:1"
       d="m 177.2367,178.86618 c -0.61052,0.88121 -1.24648,1.82479 -1.60361,2.53906"
       id="path4734"
       inkscape:connector-curvature="0"
       sodipodi:nodetypes="cc" />
    <path
       style="fill:none;fill-rule:evenodd;stroke:#000000;stroke-width:0.26458332px;stroke-linecap:butt;stroke-linejoin:miter;stroke-opacity:1"
       d="m 178.17215,179.40072 c -0.93799,3.26526 -1.30023,0.92873 0,0 1.65595,-1.18282 1.27405,0.4632 0.26727,1.46998 -0.26769,0.26769 -1.05423,0.19303 -1.46999,0.40091"
       id="path4736"
       inkscape:connector-curvature="0"
       sodipodi:nodetypes="ccsc" />
    <path
       style="fill:none;fill-rule:evenodd;stroke:#000000;stroke-width:0.26458332px;stroke-linecap:butt;stroke-linejoin:miter;stroke-opacity:1"
       d="m 115.47355,157.48531 c 1.74139,0.0838 3.09043,-0.26727 4.81085,-0.26727"
       id="path4813"
       inkscape:connector-curvature="0" />
    <path
       style="fill:none;fill-rule:evenodd;stroke:#000000;stroke-width:0.26458332px;stroke-linecap:butt;stroke-linejoin:miter;stroke-opacity:1"
       d="m 114.90832,152.42254 c 2.00558,-0.20693 5.82685,0.0265 6.41447,-0.26727"
       id="path4815"
       inkscape:connector-curvature="0" />
    <path
       style="fill:none;fill-rule:evenodd;stroke:#000000;stroke-width:0.26458332px;stroke-linecap:butt;stroke-linejoin:miter;stroke-opacity:1"
       d="m 115.4582,147.34442 5.61266,0.53454"
       id="path4817"
       inkscape:connector-curvature="0" />
    <path
       style="fill:none;fill-rule:evenodd;stroke:#000000;stroke-width:0.26458332px;stroke-linecap:butt;stroke-linejoin:miter;stroke-opacity:1"
       d="m 116.58867,142.25095 c 1.60404,0.0759 3.37139,-0.21255 4.81084,0.26727"
       id="path4819"
       inkscape:connector-curvature="0" />
    <path
       style="fill:none;fill-rule:evenodd;stroke:#000000;stroke-width:0.26458332px;stroke-linecap:butt;stroke-linejoin:miter;stroke-opacity:1"
       d="m 117.39047,138.2419 c 1.63685,-0.26192 2.96494,0.53454 4.27631,0.53454"
       id="path4821"
       inkscape:connector-curvature="0" />
    <path
       style="fill:none;fill-rule:evenodd;stroke:#000000;stroke-width:0.26458332px;stroke-linecap:butt;stroke-linejoin:miter;stroke-opacity:1"
       d="m 111.15768,130.50149 c -0.17397,0.0169 -0.0638,1.41741 -0.0945,1.41741 -0.20956,0 1.88582,-0.0864 1.41742,0.85045 -0.31397,0.62794 -2.69112,1.41348 -2.17337,0.37798"
       id="path4745"
       inkscape:connector-curvature="0" />
    <path
       style="fill:none;fill-rule:evenodd;stroke:#000000;stroke-width:0.26458332px;stroke-linecap:butt;stroke-linejoin:miter;stroke-opacity:1"
       d="m 111.06319,130.87947 c 0.46754,-0.005 2.04646,-0.36177 1.70089,-0.18899"
       id="path4747"
       inkscape:connector-curvature="0" />
    <path
       style="fill:none;fill-rule:evenodd;stroke:#000000;stroke-width:0.26458332px;stroke-linecap:butt;stroke-linejoin:miter;stroke-opacity:1"
       d="m 113.42554,131.63542 c 0.63726,3.61104 0.9453,0.18863 1.70089,-0.56696"
       id="path4749"
       inkscape:connector-curvature="0" />
    <path
       style="fill:none;fill-rule:evenodd;stroke:#000000;stroke-width:0.26458332px;stroke-linecap:butt;stroke-linejoin:miter;stroke-opacity:1"
       d="m 109.55129,162.62947 c -0.51724,-0.47709 -1.89392,0.34378 -1.13393,0.85044 0.53644,0.35763 2.13828,0.25378 0.75595,0.94494 -0.28731,0.14366 -0.62372,0.18899 -0.94494,0.18899"
       id="path4751"
       inkscape:connector-curvature="0" />
    <path
       style="fill:none;fill-rule:evenodd;stroke:#000000;stroke-width:0.26458332px;stroke-linecap:butt;stroke-linejoin:miter;stroke-opacity:1"
       d="m 110.68521,162.44048 c 0.10066,0.76029 -0.27924,2.16701 -0.28348,2.17336 1.72512,2e-5 2.61781,-2.74205 0.28348,-2.17336 z"
       id="path4753"
       inkscape:connector-curvature="0" />
    <path
       style="fill:none;fill-rule:evenodd;stroke:#000000;stroke-width:0.26458332px;stroke-linecap:butt;stroke-linejoin:miter;stroke-opacity:1"
       d="m 112.38611,164.89732 c 1.37446,-3.72133 1.70089,-3.20593 1.70089,-0.0945"
       id="path4755"
       inkscape:connector-curvature="0" />
    <path
       style="fill:none;fill-rule:evenodd;stroke:#000000;stroke-width:0.26458332px;stroke-linecap:butt;stroke-linejoin:miter;stroke-opacity:1"
       d="m 112.57509,164.14137 c 0.61509,-0.31268 1.57332,-0.31418 2.07887,-0.56696"
       id="path4757"
       inkscape:connector-curvature="0" />
    <path
       style="fill:none;fill-rule:evenodd;stroke:#000000;stroke-width:0.26458332px;stroke-linecap:butt;stroke-linejoin:miter;stroke-opacity:1"
       d="m 109.83477,169.24405 c -0.47533,-0.1995 -0.63355,-0.0408 -1.03944,0.0945 -1.31325,0.43775 0.72297,0.87898 0.94494,1.32292 0.18528,0.37055 -0.85787,0.37427 -1.22842,0.18899"
       id="path4761"
       inkscape:connector-curvature="0" />
    <path
       style="fill:none;fill-rule:evenodd;stroke:#000000;stroke-width:0.26458332px;stroke-linecap:butt;stroke-linejoin:miter;stroke-opacity:1"
       d="m 111.44116,169.14956 c -1.75789,-0.0174 -1.75042,2.90683 0.85045,1.6064"
       id="path4763"
       inkscape:connector-curvature="0" />
    <path
       style="fill:none;fill-rule:evenodd;stroke:#000000;stroke-width:0.26458332px;stroke-linecap:butt;stroke-linejoin:miter;stroke-opacity:1"
       d="m 113.14206,169.05506 c -0.43985,2.02385 -0.34731,1.98438 1.5119,1.98438"
       id="path4765"
       inkscape:connector-curvature="0" />
    <path
       style="fill:none;fill-rule:evenodd;stroke:#000000;stroke-width:0.26458332px;stroke-linecap:butt;stroke-linejoin:miter;stroke-opacity:1"
       d="m 98.495477,185.9695 c -0.467423,-0.18889 -0.826686,0.0469 -1.039433,0.47247 -0.909519,1.81902 0.918413,1.02617 1.700893,1.41741"
       id="path4772"
       inkscape:connector-curvature="0" />
    <path
       style="fill:none;fill-rule:evenodd;stroke:#000000;stroke-width:0.26458332px;stroke-linecap:butt;stroke-linejoin:miter;stroke-opacity:1"
       d="m 98.023004,187.29241 c 0.929463,-0.67796 1.133933,-0.21845 1.133933,0.66146"
       id="path4774"
       inkscape:connector-curvature="0" />
    <path
       style="fill:none;fill-rule:evenodd;stroke:#000000;stroke-width:0.26458332px;stroke-linecap:butt;stroke-linejoin:miter;stroke-opacity:1"
       d="m 100.19637,187.85938 c -0.214383,-0.42879 -0.0384,-1.3314 -0.18898,-1.88988 0.32162,0.0902 0.44717,0.91964 0.66146,1.13393 0.28933,0.28933 0.42827,0.82835 0.85044,1.03943 0.0188,0.009 0.2384,0.18899 0.18899,0.18899 -0.19487,0 0.30898,-2.65858 -0.0945,-2.45685"
       id="path4776"
       inkscape:connector-curvature="0" />
    <path
       style="fill:none;fill-rule:evenodd;stroke:#000000;stroke-width:0.26458332px;stroke-linecap:butt;stroke-linejoin:miter;stroke-opacity:1"
       d="m 102.65322,186.25298 c -0.0658,0.51226 -0.021,1.73256 0,1.79539 1.10774,-0.7385 2.71407,-2.50253 0,-1.79539 z"
       id="path4778"
       inkscape:connector-curvature="0" />
    <path
       style="fill:none;fill-rule:evenodd;stroke:#000000;stroke-width:0.26458332px;stroke-linecap:butt;stroke-linejoin:miter;stroke-opacity:1"
       d="m 167.77852,169.33854 c -0.22967,-0.91083 -1.83851,0.14587 -1.5119,0.47247 0.17903,0.17904 0.86809,0.20663 1.03943,0.37798 1.73574,1.73574 -0.89212,1.11309 -1.03943,1.03943"
       id="path5624"
       inkscape:connector-curvature="0"
       sodipodi:nodetypes="cccc" />
    <path
       style="fill:none;fill-rule:evenodd;stroke:#000000;stroke-width:0.26458332px;stroke-linecap:butt;stroke-linejoin:miter;stroke-opacity:1"
       d="m 170.04638,169.62202 c -0.89019,-0.48542 -2.04084,0.92651 -1.6064,1.79539 0.18569,0.37139 2.4118,0.16426 1.98437,0.37798"
       id="path5626"
       inkscape:connector-curvature="0"
       sodipodi:nodetypes="ccc" />
    <path
       style="fill:none;fill-rule:evenodd;stroke:#000000;stroke-width:0.26458332px;stroke-linecap:butt;stroke-linejoin:miter;stroke-opacity:1"
       d="m 171.08581,169.52753 c 0.53174,1.64578 -1.11499,2.45684 0.94494,2.45684"
       id="path5628"
       inkscape:connector-curvature="0"
       sodipodi:nodetypes="cc" />
    <path
       style="fill:none;fill-rule:evenodd;stroke:#000000;stroke-width:0.26458332px;stroke-linecap:butt;stroke-linejoin:miter;stroke-opacity:1"
       d="m 99.483404,189.82492 c 1.771096,1.84437 -0.335657,7.68242 1.336356,9.35443 1.63076,1.63075 15.91328,-1.87088 18.97614,-1.87088 12.20218,0 50.88222,4.01951 55.97082,-1.06908 1.12583,-1.12584 -0.80181,-12.64777 -0.80181,-14.16529"
       id="path5644"
       inkscape:connector-curvature="0"
       sodipodi:nodetypes="ccscc" />
    <path
       style="fill:none;fill-rule:evenodd;stroke:#000000;stroke-width:0.26458332px;stroke-linecap:butt;stroke-linejoin:miter;stroke-opacity:1"
       d="m 80.091585,129.97447 c 5.101984,-1.49026 10.861512,0.15837 15.871273,-1.51154 2.382569,-0.79419 17.225202,-3.18064 19.398152,-1.0077 2.5572,2.5572 0.50384,17.56295 0.50384,20.40584 0,11.4277 -1.60659,24.75035 1.51155,35.01741 0.34338,0.68677 0.75037,6.55542 0.50384,6.80195 -1.47019,1.47019 -14.12322,1.25962 -16.62697,1.25962 -4.561252,0 -17.067224,2.83481 -20.657832,-0.75578 -0.39408,-0.39407 0,-8.53961 0,-9.5731 0,-14.70108 -4.830895,-37.6556 -0.503853,-50.6367 z"
       id="path5768"
       inkscape:connector-curvature="0"
       sodipodi:nodetypes="ccssccscsc" />
    <path
       style="fill:none;fill-rule:evenodd;stroke:#000000;stroke-width:0.26458332px;stroke-linecap:butt;stroke-linejoin:miter;stroke-opacity:1"
       d="m 117.18217,132.25504 c 7.66905,0.0865 36.91182,-0.77765 38.40201,0.71254 4.3068,4.3068 -3.01814,19.78341 0.89069,23.69224 0.7181,0.7181 7.87937,-0.53442 8.72871,-0.53442"
       id="path440"
       inkscape:connector-curvature="0"
       sodipodi:nodetypes="cssc" />
    <path
       style="fill:none;fill-rule:evenodd;stroke:#000000;stroke-width:0.26458332px;stroke-linecap:butt;stroke-linejoin:miter;stroke-opacity:1"
       d="m 183.5517,155.23472 c 1.06022,-0.0389 4.78713,1.44767 5.70039,0.53441 7.20321,-7.20321 -3.09898,-33.67394 -2.13765,-43.28731"
       id="path442"
       inkscape:connector-curvature="0"
       sodipodi:nodetypes="csc" />
    <path
       style="fill:none;fill-rule:evenodd;stroke:#000000;stroke-width:0.26458332px;stroke-linecap:butt;stroke-linejoin:miter;stroke-opacity:1"
       d="m 183.5517,112.83809 c 0.7106,2.82197 2.83202,5.90865 3.74088,6.94735 2.58772,-2.39664 3.95862,-3.78059 4.27529,-6.94735"
       id="path448"
       inkscape:connector-curvature="0"
       sodipodi:nodetypes="ccc" />
    <path
       style="fill:none;fill-rule:evenodd;stroke:#000000;stroke-width:0.26458332px;stroke-linecap:butt;stroke-linejoin:miter;stroke-opacity:1"
       d="m 177.58411,157.2833 c -0.40601,0.81203 1.36799,-3.65297 1.06882,-3.20647 0.19458,0.88433 0.44535,1.98102 0.44535,2.85019"
       id="path450"
       inkscape:connector-curvature="0"
       sodipodi:nodetypes="ccc" />
    <path
       style="fill:none;fill-rule:evenodd;stroke:#000000;stroke-width:0.26458332px;stroke-linecap:butt;stroke-linejoin:miter;stroke-opacity:1"
       d="m 177.94039,155.68006 c 0.25568,0.46452 0.52932,0.35628 0.97975,0.35628"
       id="path452"
       inkscape:connector-curvature="0"
       sodipodi:nodetypes="cc" />
    <path
       style="fill:none;fill-rule:evenodd;stroke:#000000;stroke-width:0.26458332px;stroke-linecap:butt;stroke-linejoin:miter;stroke-opacity:1"
       d="m 179.72173,156.83795 c 0,-0.8121 0.0655,-1.69291 0.0891,-2.58299 0.52029,0.79451 0.77061,2.37385 1.06882,2.67206"
       id="path454"
       inkscape:connector-curvature="0"
       sodipodi:nodetypes="ccc" />
    <path
       style="fill:none;fill-rule:evenodd;stroke:#000000;stroke-width:0.26458332px;stroke-linecap:butt;stroke-linejoin:miter;stroke-opacity:1"
       d="m 181.14685,153.72055 c 0.21255,-0.19597 -0.76589,4.02571 -0.35627,3.20647"
       id="path456"
       inkscape:connector-curvature="0"
       sodipodi:nodetypes="cc" />
    <path
       style="fill:none;fill-rule:evenodd;stroke:#000000;stroke-width:0.26458332px;stroke-linecap:butt;stroke-linejoin:miter;stroke-opacity:1"
       d="m 182.48288,154.4331 c 0.0234,0.77386 -0.17814,1.54158 -0.17814,2.31578"
       id="path458"
       inkscape:connector-curvature="0"
       sodipodi:nodetypes="cc" />
    <path
       style="fill:none;fill-rule:evenodd;stroke:#000000;stroke-width:0.26458332px;stroke-linecap:butt;stroke-linejoin:miter;stroke-opacity:1"
       d="m 181.32499,154.78938 c 0.68586,-0.20861 2.01374,-0.35628 2.31578,-0.35628"
       id="path460"
       inkscape:connector-curvature="0"
       sodipodi:nodetypes="cc" />
    <path
       style="fill:none;fill-rule:evenodd;stroke:#000000;stroke-width:0.26458332px;stroke-linecap:butt;stroke-linejoin:miter;stroke-opacity:1"
       d="m 166.0052,155.23472 c 0.28886,0.16143 -0.11158,-0.53441 0,-0.53441 0.17814,0 -0.0662,0.36901 0,0.53441 0.2499,0.62475 0.75858,1.20691 0.97976,1.87044 0.0258,0.0775 0.12019,0.68142 0.17813,0.62348 0.22157,-0.22157 0.53169,-2.30761 0.71255,-2.8502"
       id="path462"
       inkscape:connector-curvature="0"
       sodipodi:nodetypes="csccsc" />
    <path
       style="fill:none;fill-rule:evenodd;stroke:#000000;stroke-width:0.26458332px;stroke-linecap:butt;stroke-linejoin:miter;stroke-opacity:1"
       d="m 168.94446,156.74888 c -1.80353,-0.20527 -1.57941,1.77661 1.06883,1.24696"
       id="path464"
       inkscape:connector-curvature="0"
       sodipodi:nodetypes="cc" />
    <path
       style="fill:none;fill-rule:evenodd;stroke:#000000;stroke-width:0.26458332px;stroke-linecap:butt;stroke-linejoin:miter;stroke-opacity:1"
       d="m 171.34931,156.74888 c -2.15234,0.14553 -0.33767,2.2799 1.4251,1.69231"
       id="path466"
       inkscape:connector-curvature="0"
       sodipodi:nodetypes="cc" />
    <path
       style="fill:none;fill-rule:evenodd;stroke:#000000;stroke-width:0.26458332px;stroke-linecap:butt;stroke-linejoin:miter;stroke-opacity:1"
       d="m 180.2659,161.87913 c 0.0491,0.83972 -0.50385,1.67501 -0.50385,2.51924 0,1.0126 1.55126,0.33476 2.14135,0.62981"
       id="path468"
       inkscape:connector-curvature="0"
       sodipodi:nodetypes="csc" />
    <path
       style="fill:none;fill-rule:evenodd;stroke:#000000;stroke-width:0.26458332px;stroke-linecap:butt;stroke-linejoin:miter;stroke-opacity:1"
       d="m 180.39186,169.05896 c -0.18225,1.155 -0.32916,2.42179 -0.75577,3.27501"
       id="path470"
       inkscape:connector-curvature="0"
       sodipodi:nodetypes="cc" />
    <path
       style="fill:none;fill-rule:evenodd;stroke:#000000;stroke-width:0.26458332px;stroke-linecap:butt;stroke-linejoin:miter;stroke-opacity:1"
       d="m 180.13994,169.05896 c 0.36909,0.21791 1.59111,-0.29831 1.88942,0 0.87799,0.87799 -0.94225,1.73075 -1.51154,2.01539 -0.27655,0.13828 -0.67604,-0.33165 -0.75577,-0.25192 -0.20592,0.20591 0.86947,0.91963 1.88943,1.25962"
       id="path472"
       inkscape:connector-curvature="0"
       sodipodi:nodetypes="csccc" />
    <g
       id="g526"
       transform="translate(-21.522936,0.35627417)">
      <path
         inkscape:connector-curvature="0"
         id="path482"
         d="m 258.64071,165.15414 c -4.72044,-0.59005 -10.78304,0.30315 -15.99717,0 -0.54584,0.65501 -1.10433,1.29963 -2.0154,2.01539 1.10606,0.63406 1.46195,1.1773 2.26732,1.63751 5.22525,-0.3581 10.62325,-1.03388 15.87121,-0.37789 0,-1.25353 0.48012,-2.08321 -0.12596,-3.27501 z"
         style="fill:none;fill-rule:evenodd;stroke:#000000;stroke-width:0.5;stroke-linecap:butt;stroke-linejoin:miter;stroke-opacity:1" />
      <path
         inkscape:connector-curvature="0"
         id="path484"
         d="m 253.3503,164.90222 c -0.0166,1.23595 0.11388,2.04467 0.25193,3.14905"
         style="fill:none;fill-rule:evenodd;stroke:#000000;stroke-width:0.26458332px;stroke-linecap:butt;stroke-linejoin:miter;stroke-opacity:1" />
      <path
         inkscape:connector-curvature="0"
         id="path486"
         d="m 247.17817,165.02818 c 0.12965,1.08721 0.14044,2.15146 0,3.27501"
         style="fill:none;fill-rule:evenodd;stroke:#000000;stroke-width:0.26458332px;stroke-linecap:butt;stroke-linejoin:miter;stroke-opacity:1" />
      <path
         id="path509"
         d="m 259.01859,167.04357 c 13.09076,-3.61388 29.38515,-6.01378 43.07899,-3.27501 1.04489,0.20898 9.70576,3.14236 7.43174,5.41636 -2.11669,2.1167 -12.86428,-0.51193 -15.36735,-1.76346 -4.47356,-2.23678 -10.64588,-1.45066 -14.10774,-4.91252"
         style="fill:none;fill-rule:evenodd;stroke:#000000;stroke-width:0.75;stroke-linecap:butt;stroke-linejoin:miter;stroke-opacity:1"
         inkscape:connector-curvature="0" />
      <path
         sodipodi:nodetypes="cc"
         inkscape:connector-curvature="0"
         id="path507"
         d="m 280.05423,162.50894 c -0.54667,-0.54668 -0.75309,-19.44337 -0.34099,-22.74016"
         style="fill:none;fill-rule:evenodd;stroke:#000000;stroke-width:0.75;stroke-linecap:butt;stroke-linejoin:miter;stroke-opacity:1" />
      <path
         sodipodi:nodetypes="ccscc"
         inkscape:connector-curvature="0"
         id="path488"
         d="m 279.62417,139.85785 c 2.87592,-3.28708 3.37391,-20.14526 2.74841,-25.14932 -0.20409,-0.93894 0.20549,-1.66144 0.80161,-1.9595 11.09862,-5.54931 3.46862,13.61232 0.44535,4.54249 -0.32655,-0.97963 -0.652,-1.75003 -1.24696,-2.58299"
         style="fill:none;fill-rule:evenodd;stroke:#000000;stroke-width:0.26458332px;stroke-linecap:butt;stroke-linejoin:miter;stroke-opacity:1" />
      <path
         sodipodi:nodetypes="cc"
         inkscape:connector-curvature="0"
         id="path490"
         d="m 289.14178,114.70853 c 0.9771,0.21623 0.72946,3.45789 -0.80161,2.58299"
         style="fill:none;fill-rule:evenodd;stroke:#000000;stroke-width:0.26458332px;stroke-linecap:butt;stroke-linejoin:miter;stroke-opacity:1" />
      <path
         sodipodi:nodetypes="ccccc"
         inkscape:connector-curvature="0"
         id="path492"
         d="m 279.52238,139.73679 c -3.90625,-3.75304 -5.34411,-17.85459 -5.34411,-24.0485 -0.037,-1.34045 0.65697,-2.95601 1.87044,-3.56274 5.51989,-2.75995 3.34692,10.11612 0.53441,7.30362 -1.14221,-1.14222 -1.4182,-2.55691 -2.40485,-3.74088"
         style="fill:none;fill-rule:evenodd;stroke:#000000;stroke-width:0.26458332px;stroke-linecap:butt;stroke-linejoin:miter;stroke-opacity:1" />
      <path
         inkscape:connector-curvature="0"
         id="path494"
         d="m 279.61145,114.44133 c 1.85013,-0.86737 -0.11681,2.70939 -0.44534,2.85019"
         style="fill:none;fill-rule:evenodd;stroke:#000000;stroke-width:0.26458332px;stroke-linecap:butt;stroke-linejoin:miter;stroke-opacity:1" />
      <path
         inkscape:connector-curvature="0"
         id="path511"
         d="m 283.61953,117.11338 c 0.43064,1.50914 0.32595,7.07128 -0.89068,5.61132"
         style="fill:none;fill-rule:evenodd;stroke:#000000;stroke-width:0.26458332px;stroke-linecap:butt;stroke-linejoin:miter;stroke-opacity:1" />
      <path
         inkscape:connector-curvature="0"
         id="path513"
         d="m 274.80175,116.75711 c 0.5324,1.65453 0.56178,4.21915 -0.17814,5.25504"
         style="fill:none;fill-rule:evenodd;stroke:#000000;stroke-width:0.26458332px;stroke-linecap:butt;stroke-linejoin:miter;stroke-opacity:1" />
    </g>
    <path
       style="fill:none;fill-rule:evenodd;stroke:#000000;stroke-width:0.26458332px;stroke-linecap:butt;stroke-linejoin:miter;stroke-opacity:1"
       d="m 184.51799,163.42903 c 3.41592,-1.11279 37.21833,-2.68438 38.65574,-1.24696 0.50524,0.50523 0.12205,4.00465 0.17814,4.45342"
       id="path532"
       inkscape:connector-curvature="0" />
    <path
       style="fill:none;fill-rule:evenodd;stroke:#000000;stroke-width:0.26458332px;stroke-linecap:butt;stroke-linejoin:miter;stroke-opacity:1"
       d="m 184.87426,171.62333 c 4.40912,-1.8658 43.06311,0.93675 44.35614,-0.35627 0.80362,-0.80363 -0.30001,-3.69393 -0.35628,-3.91902"
       id="path534"
       inkscape:connector-curvature="0" />
    <path
       style="fill:none;fill-rule:evenodd;stroke:#000000;stroke-width:0.26458332px;stroke-linecap:butt;stroke-linejoin:miter;stroke-opacity:1"
       d="m 174.36417,197.63135 c 5.92184,-4.97783 58.91533,-1.91146 60.74475,-3.74088 0.90868,-0.90868 -0.73284,-23.76365 0.53441,-26.72057"
       id="path536"
       inkscape:connector-curvature="0" />
    <circle
       id="path538"
       style="fill:#000000;stroke:none"
       cx="174.72029"
       cy="197.26427"
       r="0.69999999" />
  </g>
</svg>
