<?xml version="1.0" encoding="UTF-8" standalone="no"?>
<!-- Created with Inkscape (http://www.inkscape.org/) -->

<svg
   xmlns:dc="http://purl.org/dc/elements/1.1/"
   xmlns:cc="http://creativecommons.org/ns#"
   xmlns:rdf="http://www.w3.org/1999/02/22-rdf-syntax-ns#"
   xmlns:svg="http://www.w3.org/2000/svg"
   xmlns="http://www.w3.org/2000/svg"
   xmlns:sodipodi="http://sodipodi.sourceforge.net/DTD/sodipodi-0.dtd"
   xmlns:inkscape="http://www.inkscape.org/namespaces/inkscape"
   inkscape:version="0.92.4 5da689c313, 2019-01-14"
   sodipodi:docname="wave-lengths.svg"
   id="svg8"
   version="1.1"
   viewBox="0 0 297 159.67472"
   height="15.967472cm"
   width="29.700001cm">
  <defs
     id="defs2">
    <inkscape:path-effect
       effect="rough_hatches"
       id="path-effect5264"
       is_visible="true"
       direction="180.56721,123.87035 , 72.234579,0"
       dist_rdm="75;1"
       growth="0"
       do_bend="true"
       bender="180.56721,128.87035 , 5,0"
       bottom_edge_variation="3.5627169;1"
       top_edge_variation="3.5627169;1"
       bottom_tgt_variation="0;1"
       top_tgt_variation="0;1"
       scale_bf="1"
       scale_bb="1"
       scale_tf="1"
       scale_tb="1"
       top_smth_variation="0;1"
       bottom_smth_variation="0;1"
       fat_output="true"
       stroke_width_top="1"
       stroke_width_bottom="1"
       front_thickness="1"
       back_thickness="0.25" />
    <inkscape:path-effect
       effect="sketch"
       id="path-effect1559"
       is_visible="true"
       nbiter_approxstrokes="1"
       strokelength="121"
       strokelength_rdm="0.3;1"
       strokeoverlap="0.3"
       strokeoverlap_rdm="0.3;1"
       ends_tolerance="0.1;1"
       parallel_offset="5;1"
       tremble_size="5;1"
       tremble_frequency="1"
       nbtangents="0"
       tgt_places_rdmness="1;1"
       tgtscale="10"
       tgtlength="100"
       tgtlength_rdm="0.3;1" />
    <filter
       style="color-interpolation-filters:sRGB"
       id="filter5622"
       inkscape:label="filter0">
      <feGaussianBlur
         stdDeviation="16.420000000000002"
         id="feGaussianBlur5624"
         in="BackgroundImage" />
    </filter>
    <filter
       style="color-interpolation-filters:sRGB"
       inkscape:label="Roughen"
       id="filter5954">
      <feTurbulence
         type="fractalNoise"
         numOctaves="4"
         seed="87"
         baseFrequency="0.005 0.005"
         result="turbulence"
         id="feTurbulence5950" />
      <feDisplacementMap
         in="SourceGraphic"
         in2="turbulence"
         scale="13.9037"
         yChannelSelector="G"
         xChannelSelector="R"
         id="feDisplacementMap5952" />
    </filter>
    <filter
       style="color-interpolation-filters:sRGB"
       inkscape:label="Roughen"
       id="filter5960">
      <feTurbulence
         type="fractalNoise"
         numOctaves="4"
         seed="160"
         baseFrequency="0.005 0.005"
         result="turbulence"
         id="feTurbulence5956" />
      <feDisplacementMap
         in="SourceGraphic"
         in2="turbulence"
         scale="13.9"
         yChannelSelector="G"
         xChannelSelector="R"
         id="feDisplacementMap5958" />
    </filter>
  </defs>
  <sodipodi:namedview
     id="base"
     pagecolor="#ffffff"
     bordercolor="#666666"
     borderopacity="1.0"
     inkscape:pageopacity="0.0"
     inkscape:pageshadow="2"
     inkscape:zoom="0.52512555"
     inkscape:cx="850.13143"
     inkscape:cy="266.96904"
     inkscape:document-units="mm"
     inkscape:current-layer="layer1"
     showgrid="true"
     inkscape:snap-global="false"
     inkscape:window-width="1366"
     inkscape:window-height="768"
     inkscape:window-x="0"
     inkscape:window-y="0"
     inkscape:window-maximized="0"
     units="cm"
     fit-margin-top="1"
     fit-margin-bottom="1"
     fit-margin-left="0"
     fit-margin-right="0">
    <inkscape:grid
       originy="-39.831238"
       originx="-5.869638"
       empopacity="0.10588235"
       empcolor="#0000ff"
       empspacing="1"
       spacingy="5"
       spacingx="5"
       units="cm"
       id="grid1021"
       type="xygrid" />
  </sodipodi:namedview>
  <metadata
     id="metadata5">
    <rdf:RDF>
      <cc:Work
         rdf:about="">
        <dc:format>image/svg+xml</dc:format>
        <dc:type
           rdf:resource="http://purl.org/dc/dcmitype/StillImage" />
        <dc:title></dc:title>
      </cc:Work>
    </rdf:RDF>
  </metadata>
  <g
     inkscape:label="Layer 1"
     inkscape:groupmode="layer"
     id="layer1"
     transform="translate(-5.8696391,-97.494047)">
    <path
       id="path667"
       title="t sin(t)"
       d="m 12.285556,128.87043 c 0.972856,-5.99788 1.945713,-11.89408 2.918569,-15.08617 0.972856,-3.19209 1.945712,-3.56167 2.918569,-0.95874 0.972856,2.60294 1.945712,8.10608 2.918569,14.06652 0.972856,5.96044 1.945712,12.18288 2.918569,15.91917 0.972856,3.7363 1.945712,4.85104 2.918568,2.86434 0.972857,-1.98671 1.945713,-7.02357 2.918569,-12.87282 0.972857,-5.84925 1.945713,-12.32094 2.918569,-16.55522 0.972857,-4.23427 1.945713,-6.08038 2.918569,-4.73449 0.972856,1.34589 1.945713,5.85415 2.918569,11.51984 0.972856,5.6657 1.945713,12.30657 2.918569,16.98643 0.972856,4.67986 1.945712,7.23451 2.918569,6.54608 0.972856,-0.68842 1.945712,-4.61231 2.918569,-10.02434 0.972856,-5.41204 1.945712,-12.13993 2.918569,-17.20748 0.972856,-5.06755 1.945712,-8.29911 2.918568,-8.27667 0.972857,0.0224 1.945713,3.3134 2.918569,8.40482 0.972857,5.09142 1.945713,11.82308 2.918569,17.21562 0.972857,5.39253 1.945713,9.26104 2.918569,9.90486 0.972856,0.64381 1.945713,-1.9735 2.918569,-6.68131 0.972856,-4.7078 1.945713,-11.35995 2.918569,-17.01076 0.972856,-5.6508 1.945712,-10.10839 2.918569,-11.41049 0.972856,-1.30211 1.945712,0.60917 2.918569,4.87512 0.972856,4.26594 1.945712,10.75628 2.91857,16.59543 0.97285,5.83916 1.94571,10.83067 2.918573,12.77496 0.97285,1.94429 1.94571,0.76269 2.918573,-3.00862 0.97285,-3.77131 1.945713,-10.01952 2.918573,-15.97478 0.97285,-5.95527 1.945713,-11.41895 2.918563,-13.98136 0.97286,-2.56242 1.945723,-2.12511 2.918573,1.1049 0.97286,3.23 1.945723,9.15878 2.918573,15.15647 0.972863,5.99769 1.945713,11.86594 2.918573,15.01478 0.972863,3.14884 1.945713,3.46124 2.918573,0.8125 0.972863,-2.64874 1.945713,-8.18474 2.918573,-14.15065 0.97285,-5.96591 1.94571,-12.16612 2.91857,-15.86242 0.97285,-3.69631 1.94571,-4.75454 2.91857,-2.71984 0.97285,2.0347 1.94571,7.10942 2.91857,12.96974 0.97285,5.86031 1.94571,12.31577 2.91856,16.5138 0.97286,4.19804 1.94572,5.98902 2.91857,4.59353 0.97286,-1.39549 1.94572,-5.94615 2.91857,-11.62836 0.97286,-5.68221 1.94571,-12.31305 2.91857,-16.96087 0.97286,-4.64783 1.94571,-7.1494 2.91857,-6.41038 0.97286,0.73901 1.94571,4.7093 2.91857,10.1431 0.97285,5.43381 1.94571,12.15798 2.91857,17.19809 0.97285,5.04011 1.94571,8.22132 2.91857,8.14793 0.97285,-0.0734 1.94571,-3.41419 2.91857,-8.53236 0.97285,-5.11817 1.94571,-11.85248 2.91856,-17.22252 0.97286,-5.37004 1.94572,-9.19152 2.91857,-9.78466 0.97286,-0.59314 1.94572,2.07684 2.91857,6.81604 0.97286,4.73921 1.94571,11.40035 2.91857,17.03387 0.97286,5.63352 1.94571,10.048 2.91857,11.30033 0.97286,1.25232 1.94571,-0.71379 2.91857,-5.0154 0.97285,-4.30161 1.94571,-10.80715 2.91857,-16.63445 0.97285,-5.82731 1.94571,-10.78016 2.91857,-12.67619 0.97285,-1.89602 1.94571,-0.65809 2.91857,3.1527 0.97285,3.81078 1.94571,10.08024 2.91856,16.02923 0.97286,5.94899 1.94572,11.37894 2.91857,13.8952 0.97286,2.51626 1.94572,2.02183 2.91857,-1.25098 0.97286,-3.27282 1.94571,-9.22863 2.91857,-15.22569 0.97286,-5.99707 1.94571,-11.83694 2.91857,-14.9423 0.97286,-3.10537 1.94571,-3.36056 2.91857,-0.6662 0.97285,2.69435 1.94571,8.26281 2.91857,14.23376 0.97285,5.97095 1.94571,12.14848 2.91857,15.80452 0.97285,3.65605 1.94571,4.6577 2.91857,2.57515 0.97285,-2.08256 1.94571,-7.19478 2.91856,-13.06573 0.97286,-5.87095 1.94572,-12.30971 2.91857,-16.4712 0.97286,-4.1615 1.94572,-5.89722 2.91857,-4.45223 0.97286,1.44499 1.94571,6.03772 2.91857,11.73603 0.97286,5.69832 1.94571,12.31864 2.91857,16.9341 0.97286,4.61545 1.94571,7.06377 2.91857,6.27422 0.97285,-0.78954 1.94571,-4.80596 2.91857,-10.26114 0.97285,-5.45517 1.94571,-12.17515 2.91857,-17.18746 0.97285,-5.01231 1.94571,-8.14293 2.91857,-8.01859 0.97285,0.12433 1.94571,3.51474 2.91856,8.65928 0.97286,5.14455 1.94572,11.88103 2.91857,17.22818 0.97286,5.34715 1.94572,9.12133 2.91857,9.66375 0.97286,0.54242 1.94571,-2.18003 2.91857,-6.95029 0.97286,-4.77026 1.94571,-11.43991 2.91857,-17.05574 0.97286,-5.61583 1.94571,-9.98688 2.91857,-11.18934 0.97285,-1.20246 1.94571,0.81835 2.91857,5.15531 0.97285,4.33695 1.94571,10.85724 2.91857,16.67227 0.97285,5.81503 1.94571,10.72887 2.91857,12.57649 0.97285,1.84762 1.94571,0.55346 2.91856,-3.29654 0.97286,-3.84999 1.94572,-10.14024 2.91857,-16.08252 0.97286,-5.94228 1.94572,-11.33812 2.91857,-13.80804 0.97286,-2.46993 1.94571,-1.91842 2.91857,1.39698 0.97286,3.31539 1.94571,9.29779 2.91857,15.2938 0.97286,5.99601 1.94571,11.80708 2.91857,14.86874 0.97285,3.06167 1.94571,3.25964 2.91857,0.51986 0.97285,-2.73977 1.94571,-8.34029 2.91857,-14.31585 0.97285,-5.97555 1.94571,-12.12996 2.91857,-15.74548 0.97285,-3.61553 1.94571,-4.56053 2.91856,-2.43027 0.97286,2.13026 1.94572,7.27961 2.91857,13.16077 0.97286,5.88117 1.94572,12.30276 2.91857,16.42742 0.97286,4.12465 1.94571,5.80499 2.91857,4.3106 0.97286,-1.49438 1.94571,-6.12885 2.91857,-11.84286 0.97286,-5.71401 1.94571,-12.32334 2.91857,-16.90609 0.97285,-4.58275 1.94571,-6.97764 2.91857,-6.13762 0.97285,0.84003 1.94571,4.90228 2.91857,10.37843 0.97285,5.47616 1.94571,12.19145 2.91857,17.1756 0.97285,4.98415 1.94571,8.06395 2.91856,7.88868 0.97286,-0.17526 1.94572,-3.61503 2.91857,-8.78558"
       style="opacity:1;fill:none;fill-opacity:1;fill-rule:nonzero;stroke:#000000;stroke-width:0.5;stroke-linecap:round;stroke-linejoin:round;stroke-miterlimit:4;stroke-dasharray:none;stroke-dashoffset:0;stroke-opacity:1;filter:url(#filter5954)"
       inkscape:connector-curvature="0" />
    <path
       style="opacity:1;fill:none;fill-opacity:1;fill-rule:nonzero;stroke:#000000;stroke-width:0.5;stroke-linecap:round;stroke-linejoin:round;stroke-miterlimit:4;stroke-dasharray:none;stroke-dashoffset:0;stroke-opacity:1;filter:url(#filter5960)"
       d="m 12.285712,174.57292 c 1.15639,-4.07847 2.312781,-8.0878 3.469171,-10.25837 1.15639,-2.17057 2.31278,-2.42187 3.469171,-0.65192 1.15639,1.76995 2.31278,5.512 3.469171,9.56501 1.15639,4.05301 2.312779,8.28418 3.46917,10.82481 1.15639,2.54062 2.31278,3.29863 3.46917,1.9477 1.156391,-1.35093 2.312781,-4.77591 3.469171,-8.75332 1.156391,-3.9774 2.312781,-8.37806 3.469171,-11.2573 1.156391,-2.87924 2.31278,-4.13457 3.46917,-3.21938 1.15639,0.91518 2.312781,3.98073 3.469171,7.83332 1.15639,3.85258 2.312781,8.36828 3.469171,11.55052 1.15639,3.18223 2.31278,4.91935 3.469171,4.45123 1.156389,-0.46812 2.312779,-3.1363 3.46917,-6.81641 1.15639,-3.6801 2.31278,-8.25496 3.469171,-11.70082 1.15639,-3.44586 2.31278,-5.64328 3.46917,-5.62801 1.156391,0.0152 2.312781,2.25306 3.46917,5.71515 1.156392,3.46209 2.312781,8.03952 3.469171,11.70637 1.156391,3.66684 2.312781,6.29736 3.469171,6.73515 1.15639,0.43778 2.312781,-1.34195 3.469171,-4.54319 1.15639,-3.20123 2.312779,-7.7246 3.469169,-11.56706 1.156393,-3.84246 2.312783,-6.87355 3.469176,-7.75897 1.15639,-0.88541 2.31278,0.41423 3.469173,3.31501 1.15639,2.90078 2.312783,7.31411 3.469173,11.28465 1.156393,3.97054 2.312783,7.36469 3.469186,8.68678 1.15638,1.32209 2.31277,0.51861 3.469173,-2.04582 1.15638,-2.56443 2.312783,-6.81312 3.469173,-10.86261 1.156383,-4.04949 2.312783,-7.76471 3.469163,-9.50712 1.1564,-1.7424 2.31279,-1.44504 3.46917,0.75132 1.1564,2.19635 2.31279,6.22784 3.46917,10.30618 1.1564,4.07834 2.31278,8.06866 3.46918,10.20982 1.15639,2.14117 2.31277,2.35359 3.46917,0.55248 1.15639,-1.8011 2.31278,-5.5655 3.46917,-9.62222 1.15638,-4.05673 2.31278,-8.27278 3.46917,-10.78622 1.15639,-2.51342 2.31278,-3.23301 3.46917,-1.84944 1.15639,1.38357 2.31278,4.8343 3.46918,8.81922 1.15638,3.98493 2.31277,8.37455 3.46916,11.22915 1.15639,2.8546 2.31279,4.07244 3.46917,3.12353 1.15639,-0.94891 2.31279,-4.04329 3.46917,-7.90711 1.1564,-3.86382 2.31278,-8.37269 3.46917,-11.53314 1.1564,-3.16046 2.31278,-4.86149 3.46917,-4.35897 1.1564,0.50252 2.31278,3.20226 3.46918,6.89716 1.15638,3.69491 2.31277,8.26725 3.46917,11.69445 1.15638,3.4272 2.31278,5.59037 3.46917,5.54047 1.15638,-0.0499 2.31278,-2.32161 3.46917,-5.80188 1.15638,-3.48028 2.31278,-8.05952 3.46916,-11.71106 1.1564,-3.65154 2.31279,-6.25009 3.46917,-6.65342 1.1564,-0.40332 2.31279,1.41222 3.46918,4.63481 1.15639,3.22259 2.31277,7.75206 3.46917,11.58277 1.15639,3.83071 2.31278,6.83249 3.46917,7.68405 1.15639,0.85157 2.31278,-0.48536 3.46917,-3.41039 1.15638,-2.92503 2.31278,-7.3487 3.46917,-11.31118 1.15639,-3.96248 2.31278,-7.33035 3.46918,-8.61961 1.15638,-1.28927 2.31277,-0.4475 3.46917,2.14378 1.15638,2.59128 2.31278,6.85442 3.46916,10.89964 1.15639,4.04522 2.31279,7.73751 3.46917,9.44853 1.15639,1.71102 2.31279,1.37481 3.46917,-0.85066 1.1564,-2.22546 2.31278,-6.27532 3.46917,-10.35323 1.1564,-4.07792 2.31278,-8.04894 3.46918,-10.16055 1.15639,-2.1116 2.31277,-2.28512 3.46917,-0.453 1.15638,1.83212 2.31277,5.61859 3.46917,9.67875 1.15638,4.06015 2.31278,8.26078 3.46917,10.74683 1.15638,2.48606 2.31278,3.16717 3.46917,1.75107 1.15639,-1.41611 2.31278,-4.89234 3.46916,-8.8845 1.1564,-3.99216 2.31279,-8.37042 3.46918,-11.20018 1.15639,-2.82975 2.31278,-4.01001 3.46917,-3.02744 1.15639,0.98256 2.31277,4.10556 3.46917,7.98032 1.15639,3.87478 2.31278,8.37649 3.46917,11.51493 1.1564,3.13844 2.31278,4.80327 3.46917,4.26638 1.15639,-0.53688 2.31278,-3.26798 3.46918,-6.97742 1.15638,-3.70944 2.31277,-8.27892 3.46917,-11.68721 1.15638,-3.4083 2.31277,-5.53707 3.46917,-5.45253 1.15638,0.0846 2.31278,2.38997 3.46916,5.88819 1.15639,3.49821 2.31279,8.07892 3.46917,11.7149 1.1564,3.63598 2.31279,6.20237 3.46917,6.57121 1.1564,0.36883 2.31278,-1.48239 3.46917,-4.7261 1.1564,-3.2437 2.31278,-7.77897 3.46918,-11.59765 1.15639,-3.81868 2.31277,-6.79093 3.46917,-7.60859 1.15638,-0.81764 2.31278,0.55648 3.46917,3.50554 1.15638,2.94907 2.31278,7.38276 3.46917,11.3369 1.15639,3.95412 2.31278,7.29547 3.46917,8.55182 1.15639,1.25636 2.31278,0.37634 3.46916,-2.24159 1.1564,-2.61794 2.31279,-6.89522 3.46918,-10.93588 1.15639,-4.04067 2.31279,-7.70976 3.46917,-9.38926"
       title="t sin(t)"
       id="path673"
       inkscape:connector-curvature="0"
       sodipodi:nodetypes="cssscssscscssscsccsscssccccccccccscsccccccscccscccsccccccccccccccccccccccccccccccsc" />
    <g
       id="g5984"
       transform="translate(-23.812498,11.1125)">
      <path
         id="path5962"
         title="t sin(t)"
         d="m 36.098053,214.68005 c 0.972856,-5.99788 1.945713,-11.89408 2.918569,-15.08617 0.972856,-3.19209 1.945712,-3.56167 2.918569,-0.95874 0.972856,2.60294 1.945712,8.10608 2.918569,14.06652 0.972856,5.96044 1.945712,12.18288 2.918569,15.91917 0.972856,3.7363 1.945712,4.85104 2.918568,2.86434 0.972857,-1.98671 1.945713,-7.02357 2.918569,-12.87282 0.972857,-5.84925 1.945713,-12.32094 2.918569,-16.55522 0.972857,-4.23427 1.945713,-6.08038 2.918569,-4.73449 0.972856,1.34589 1.945713,5.85415 2.918569,11.51984 0.972856,5.6657 1.945713,12.30657 2.918569,16.98643 0.972856,4.67986 1.945712,7.23451 2.918569,6.54608 0.972856,-0.68842 1.945712,-4.61231 2.918569,-10.02434 0.972856,-5.41204 1.945712,-12.13993 2.918569,-17.20748 0.972856,-5.06755 1.945712,-8.29911 2.918568,-8.27667 0.972857,0.0224 1.945713,3.3134 2.918569,8.40482 0.972857,5.09142 1.945713,11.82308 2.918569,17.21562 0.972857,5.39253 1.945713,9.26104 2.918569,9.90486 0.972856,0.64381 1.945713,-1.9735 2.918569,-6.68131 0.972856,-4.7078 1.945713,-11.35995 2.918569,-17.01076 0.972856,-5.6508 1.945712,-10.10839 2.918569,-11.41049 0.972856,-1.30211 1.945712,0.60917 2.918569,4.87512 0.972856,4.26594 1.945712,10.75628 2.91857,16.59543 0.97285,5.83916 1.94571,10.83067 2.91857,12.77496 0.97285,1.94429 1.94571,0.76269 2.91857,-3.00862 0.97285,-3.77131 1.94571,-10.01952 2.91857,-15.97478 0.97285,-5.95527 1.94571,-11.41895 2.91856,-13.98136 0.97286,-2.56242 1.94572,-2.12511 2.91857,1.1049 0.97286,3.23 1.94572,9.15878 2.91857,15.15647 0.97286,5.99769 1.94571,11.86594 2.91857,15.01478 0.97286,3.14884 1.94571,3.46124 2.91857,0.8125 0.97286,-2.64874 1.94571,-8.18474 2.91857,-14.15065 0.97285,-5.96591 1.94571,-12.16612 2.91857,-15.86242 0.97285,-3.69631 1.94571,-4.75454 2.91857,-2.71984 0.97285,2.0347 1.94571,7.10942 2.91857,12.96974 0.97285,5.86031 1.94571,12.31577 2.91856,16.5138 0.97286,4.19804 1.94572,5.98902 2.91857,4.59353 0.97286,-1.39549 1.94572,-5.94615 2.91857,-11.62836 0.97286,-5.68221 1.94571,-12.31305 2.91857,-16.96087 0.97286,-4.64783 1.94571,-7.1494 2.91857,-6.41038 0.97286,0.73901 1.94571,4.7093 2.91857,10.1431 0.97285,5.43381 1.94571,12.15798 2.91857,17.19809 0.97285,5.04011 1.94571,8.22132 2.91857,8.14793 0.97285,-0.0734 1.94571,-3.41419 2.91857,-8.53236 0.97285,-5.11817 1.94571,-11.85248 2.91856,-17.22252 0.97286,-5.37004 1.94572,-9.19152 2.91857,-9.78466 0.97286,-0.59314 1.94572,2.07684 2.91857,6.81604 0.97286,4.73921 1.94571,11.40035 2.91857,17.03387 0.97286,5.63352 1.94571,10.048 2.91857,11.30033 0.97286,1.25232 1.94571,-0.71379 2.91857,-5.0154 0.97285,-4.30161 1.94571,-10.80715 2.91857,-16.63445 0.97285,-5.82731 1.94571,-10.78016 2.91857,-12.67619 0.97285,-1.89602 1.94571,-0.65809 2.91857,3.1527 0.97285,3.81078 1.94571,10.08024 2.91856,16.02923 0.97286,5.94899 1.94572,11.37894 2.91857,13.8952 0.97286,2.51626 1.94572,2.02183 2.91857,-1.25098 0.97286,-3.27282 1.94571,-9.22863 2.91857,-15.22569 0.97286,-5.99707 1.94571,-11.83694 2.91857,-14.9423 0.97286,-3.10537 1.94571,-3.36056 2.91857,-0.6662 0.97285,2.69435 1.94571,8.26281 2.91857,14.23376 0.97285,5.97095 1.94571,12.14848 2.91857,15.80452 0.97285,3.65605 1.94571,4.6577 2.91857,2.57515 0.97285,-2.08256 1.94571,-7.19478 2.91856,-13.06573 0.97286,-5.87095 1.94572,-12.30971 2.91857,-16.4712 0.97286,-4.1615 1.94572,-5.89722 2.91857,-4.45223 0.97286,1.44499 1.94571,6.03772 2.91857,11.73603 0.97286,5.69832 1.94571,12.31864 2.91857,16.9341 0.97286,4.61545 1.94571,7.06377 2.91857,6.27422 0.97285,-0.78954 1.94571,-4.80596 2.91857,-10.26114 0.97285,-5.45517 1.94571,-12.17515 2.91857,-17.18746 0.97285,-5.01231 1.94571,-8.14293 2.91857,-8.01859 0.97285,0.12433 1.94571,3.51474 2.91856,8.65928 0.97286,5.14455 1.94572,11.88103 2.91857,17.22818 0.97286,5.34715 1.94572,9.12133 2.91857,9.66375 0.97286,0.54242 1.94571,-2.18003 2.91857,-6.95029 0.97286,-4.77026 1.94571,-11.43991 2.91857,-17.05574 0.97286,-5.61583 1.94571,-9.98688 2.91857,-11.18934 0.97285,-1.20246 1.94571,0.81835 2.91857,5.15531 0.97285,4.33695 1.94571,10.85724 2.91857,16.67227 0.97285,5.81503 1.94571,10.72887 2.91857,12.57649 0.97285,1.84762 1.94571,0.55346 2.91856,-3.29654 0.97286,-3.84999 1.94572,-10.14024 2.91857,-16.08252 0.97286,-5.94228 1.94572,-11.33812 2.91857,-13.80804 0.97286,-2.46993 1.94571,-1.91842 2.91857,1.39698 0.97286,3.31539 1.94571,9.29779 2.91857,15.2938 0.97286,5.99601 1.94571,11.80708 2.91857,14.86874 0.97285,3.06167 1.94571,3.25964 2.91857,0.51986 0.97285,-2.73977 1.94571,-8.34029 2.91857,-14.31585 0.97285,-5.97555 1.94571,-12.12996 2.91857,-15.74548 0.97285,-3.61553 1.94571,-4.56053 2.91856,-2.43027 0.97286,2.13026 1.94572,7.27961 2.91857,13.16077 0.97286,5.88117 1.94572,12.30276 2.91857,16.42742 0.97286,4.12465 1.94571,5.80499 2.91857,4.3106 0.97286,-1.49438 1.94571,-6.12885 2.91857,-11.84286 0.97286,-5.71401 1.94571,-12.32334 2.91857,-16.90609 0.97285,-4.58275 1.94571,-6.97764 2.91857,-6.13762 0.97285,0.84003 1.94571,4.90228 2.91857,10.37843 0.97285,5.47616 1.94571,12.19145 2.91857,17.1756 0.97285,4.98415 1.94571,8.06395 2.91856,7.88868 0.97286,-0.17526 1.94572,-3.61503 2.91857,-8.78558"
         style="opacity:1;fill:none;fill-opacity:1;fill-rule:nonzero;stroke:#000000;stroke-width:0.5;stroke-linecap:round;stroke-linejoin:round;stroke-miterlimit:4;stroke-dasharray:none;stroke-dashoffset:0;stroke-opacity:1;filter:url(#filter5954)"
         inkscape:connector-curvature="0" />
      <path
         style="opacity:1;fill:none;fill-opacity:1;fill-rule:nonzero;stroke:#000000;stroke-width:0.5;stroke-linecap:round;stroke-linejoin:round;stroke-miterlimit:4;stroke-dasharray:none;stroke-dashoffset:0;stroke-opacity:1;filter:url(#filter5960)"
         d="m 34.316838,214.32372 c 1.15639,-4.07847 2.312781,-8.0878 3.469171,-10.25837 1.15639,-2.17057 2.31278,-2.42187 3.469171,-0.65192 1.15639,1.76995 2.31278,5.512 3.469171,9.56501 1.15639,4.05301 2.312779,8.28418 3.46917,10.82481 1.15639,2.54062 2.31278,3.29863 3.46917,1.9477 1.156391,-1.35093 2.312781,-4.77591 3.469171,-8.75332 1.156391,-3.9774 2.312781,-8.37806 3.469171,-11.2573 1.156391,-2.87924 2.31278,-4.13457 3.46917,-3.21938 1.15639,0.91518 2.312781,3.98073 3.469171,7.83332 1.15639,3.85258 2.312781,8.36828 3.469171,11.55052 1.15639,3.18223 2.31278,4.91935 3.469171,4.45123 1.156389,-0.46812 2.312779,-3.1363 3.46917,-6.81641 1.15639,-3.6801 2.31278,-8.25496 3.469171,-11.70082 1.15639,-3.44586 2.31278,-5.64328 3.46917,-5.62801 1.156391,0.0152 2.312781,2.25306 3.46917,5.71515 1.156392,3.46209 2.312781,8.03952 3.469171,11.70637 1.156391,3.66684 2.312781,6.29736 3.469171,6.73515 1.15639,0.43778 2.312781,-1.34195 3.469171,-4.54319 1.15639,-3.20123 2.312779,-7.7246 3.46917,-11.56706 1.15639,-3.84246 2.31278,-6.87355 3.46917,-7.75897 1.15639,-0.88541 2.31278,0.41423 3.46917,3.31501 1.15639,2.90078 2.31278,7.31411 3.46917,11.28465 1.15639,3.97054 2.31278,7.36469 3.46918,8.68678 1.15638,1.32209 2.31277,0.51861 3.46917,-2.04582 1.15638,-2.56443 2.31278,-6.81312 3.46917,-10.86261 1.15638,-4.04949 2.31278,-7.76471 3.46916,-9.50712 1.1564,-1.7424 2.31279,-1.44504 3.46917,0.75132 1.1564,2.19635 2.31279,6.22784 3.46917,10.30618 1.1564,4.07834 2.31278,8.06866 3.46918,10.20982 1.15639,2.14117 2.31277,2.35359 3.46917,0.55248 1.15639,-1.8011 2.31278,-5.5655 3.46917,-9.62222 1.15638,-4.05673 2.31278,-8.27278 3.46917,-10.78622 1.15639,-2.51342 2.31278,-3.23301 3.46917,-1.84944 1.15639,1.38357 2.31278,4.8343 3.46918,8.81922 1.15638,3.98493 2.31277,8.37455 3.46916,11.22915 1.15639,2.8546 2.31279,4.07244 3.46917,3.12353 1.15639,-0.94891 2.31279,-4.04329 3.46917,-7.90711 1.1564,-3.86382 2.31278,-8.37269 3.46917,-11.53314 1.1564,-3.16046 2.31278,-4.86149 3.46917,-4.35897 1.1564,0.50252 2.31278,3.20226 3.46918,6.89716 1.15638,3.69491 2.31277,8.26725 3.46917,11.69445 1.15638,3.4272 2.31278,5.59037 3.46917,5.54047 1.15638,-0.0499 2.31278,-2.32161 3.46917,-5.80188 1.15638,-3.48028 2.31278,-8.05952 3.46916,-11.71106 1.1564,-3.65154 2.31279,-6.25009 3.46917,-6.65342 1.1564,-0.40332 2.31279,1.41222 3.46918,4.63481 1.15639,3.22259 2.31277,7.75206 3.46917,11.58277 1.15639,3.83071 2.31278,6.83249 3.46917,7.68405 1.15639,0.85157 2.31278,-0.48536 3.46917,-3.41039 1.15638,-2.92503 2.31278,-7.3487 3.46917,-11.31118 1.15639,-3.96248 2.31278,-7.33035 3.46918,-8.61961 1.15638,-1.28927 2.31277,-0.4475 3.46917,2.14378 1.15638,2.59128 2.31278,6.85442 3.46916,10.89964 1.15639,4.04522 2.31279,7.73751 3.46917,9.44853 1.15639,1.71102 2.31279,1.37481 3.46917,-0.85066 1.1564,-2.22546 2.31278,-6.27532 3.46917,-10.35323 1.1564,-4.07792 2.31278,-8.04894 3.46918,-10.16055 1.15639,-2.1116 2.31277,-2.28512 3.46917,-0.453 1.15638,1.83212 2.31277,5.61859 3.46917,9.67875 1.15638,4.06015 2.31278,8.26078 3.46917,10.74683 1.15638,2.48606 2.31278,3.16717 3.46917,1.75107 1.15639,-1.41611 2.31278,-4.89234 3.46916,-8.8845 1.1564,-3.99216 2.31279,-8.37042 3.46918,-11.20018 1.15639,-2.82975 2.31278,-4.01001 3.46917,-3.02744 1.15639,0.98256 2.31277,4.10556 3.46917,7.98032 1.15639,3.87478 2.31278,8.37649 3.46917,11.51493 1.1564,3.13844 2.31278,4.80327 3.46917,4.26638 1.15639,-0.53688 2.31278,-3.26798 3.46918,-6.97742 1.15638,-3.70944 2.31277,-8.27892 3.46917,-11.68721 1.15638,-3.4083 2.31277,-5.53707 3.46917,-5.45253 1.15638,0.0846 2.31278,2.38997 3.46916,5.88819 1.15639,3.49821 2.31279,8.07892 3.46917,11.7149 1.1564,3.63598 2.31279,6.20237 3.46917,6.57121 1.1564,0.36883 2.31278,-1.48239 3.46917,-4.7261 1.1564,-3.2437 2.31278,-7.77897 3.46918,-11.59765 1.15639,-3.81868 2.31277,-6.79093 3.46917,-7.60859 1.15638,-0.81764 2.31278,0.55648 3.46917,3.50554 1.15638,2.94907 2.31278,7.38276 3.46917,11.3369 1.15639,3.95412 2.31278,7.29547 3.46917,8.55182 1.15639,1.25636 2.31278,0.37634 3.46916,-2.24159 1.1564,-2.61794 2.31279,-6.89522 3.46918,-10.93588 1.15639,-4.04067 2.31279,-7.70976 3.46917,-9.38926"
         title="t sin(t)"
         id="path5964"
         inkscape:connector-curvature="0"
         sodipodi:nodetypes="cssscssscscssscsccsscssccccccccccscsccccccscccscccsccccccccccccccccccccccccccccccsc" />
    </g>
    <path
       style="fill:none;fill-rule:evenodd;stroke:#000000;stroke-width:0.75;stroke-linecap:butt;stroke-linejoin:miter;stroke-opacity:1"
       d="m 155.86407,154.52217 c 3.05492,0.46643 7.47867,0.83234 9.97568,0"
       id="path5988"
       inkscape:connector-curvature="0" />
    <path
       style="fill:none;fill-rule:evenodd;stroke:#000000;stroke-width:0.75;stroke-linecap:butt;stroke-linejoin:miter;stroke-opacity:1"
       d="m 160.85191,150.24688 c 0.0801,3.21144 -0.35627,7.95406 -0.35627,9.97567"
       id="path5990"
       inkscape:connector-curvature="0" />
    <path
       style="fill:none;fill-rule:evenodd;stroke:#000000;stroke-width:0.75;stroke-linecap:butt;stroke-linejoin:miter;stroke-opacity:1"
       d="m 154.43898,195.84997 c 2.71142,-0.31716 8.72962,-0.0591 9.97568,0.35627"
       id="path5992"
       inkscape:connector-curvature="0" />
    <path
       style="fill:none;fill-rule:evenodd;stroke:#000000;stroke-width:0.75;stroke-linecap:butt;stroke-linejoin:miter;stroke-opacity:1"
       d="m 154.79525,200.48154 c 3.33151,-0.29263 5.87988,0.35627 8.90686,0.35627"
       id="path5994"
       inkscape:connector-curvature="0" />
  </g>
  <g
     inkscape:groupmode="layer"
     id="layer2"
     inkscape:label="Layer 2"
     transform="translate(24.528029,10.434263)" />
</svg>
