<?xml version="1.0" encoding="UTF-8" standalone="no"?>
<!-- Created with Inkscape (http://www.inkscape.org/) -->

<svg
   xmlns:dc="http://purl.org/dc/elements/1.1/"
   xmlns:cc="http://creativecommons.org/ns#"
   xmlns:rdf="http://www.w3.org/1999/02/22-rdf-syntax-ns#"
   xmlns:svg="http://www.w3.org/2000/svg"
   xmlns="http://www.w3.org/2000/svg"
   xmlns:sodipodi="http://sodipodi.sourceforge.net/DTD/sodipodi-0.dtd"
   xmlns:inkscape="http://www.inkscape.org/namespaces/inkscape"
   inkscape:version="0.92.4 5da689c313, 2019-01-14"
   sodipodi:docname="pot-volume.svg"
   id="svg8"
   version="1.1"
   viewBox="0 0 297 75"
   height="7.5cm"
   width="29.700001cm">
  <defs
     id="defs2">
    <inkscape:path-effect
       effect="rough_hatches"
       id="path-effect5264"
       is_visible="true"
       direction="180.56721,123.87035 , 72.234579,0"
       dist_rdm="75;1"
       growth="0"
       do_bend="true"
       bender="180.56721,128.87035 , 5,0"
       bottom_edge_variation="3.5627169;1"
       top_edge_variation="3.5627169;1"
       bottom_tgt_variation="0;1"
       top_tgt_variation="0;1"
       scale_bf="1"
       scale_bb="1"
       scale_tf="1"
       scale_tb="1"
       top_smth_variation="0;1"
       bottom_smth_variation="0;1"
       fat_output="true"
       stroke_width_top="1"
       stroke_width_bottom="1"
       front_thickness="1"
       back_thickness="0.25" />
    <inkscape:path-effect
       effect="sketch"
       id="path-effect1559"
       is_visible="true"
       nbiter_approxstrokes="1"
       strokelength="121"
       strokelength_rdm="0.3;1"
       strokeoverlap="0.3"
       strokeoverlap_rdm="0.3;1"
       ends_tolerance="0.1;1"
       parallel_offset="5;1"
       tremble_size="5;1"
       tremble_frequency="1"
       nbtangents="0"
       tgt_places_rdmness="1;1"
       tgtscale="10"
       tgtlength="100"
       tgtlength_rdm="0.3;1" />
    <filter
       style="color-interpolation-filters:sRGB"
       id="filter5622"
       inkscape:label="filter0">
      <feGaussianBlur
         stdDeviation="16.420000000000002"
         id="feGaussianBlur5624"
         in="BackgroundImage" />
    </filter>
    <filter
       style="color-interpolation-filters:sRGB"
       inkscape:label="Roughen"
       id="filter5954">
      <feTurbulence
         type="fractalNoise"
         numOctaves="4"
         seed="87"
         baseFrequency="0.005 0.005"
         result="turbulence"
         id="feTurbulence5950" />
      <feDisplacementMap
         in="SourceGraphic"
         in2="turbulence"
         scale="13.9037"
         yChannelSelector="G"
         xChannelSelector="R"
         id="feDisplacementMap5952" />
    </filter>
    <filter
       style="color-interpolation-filters:sRGB"
       inkscape:label="Roughen"
       id="filter5960">
      <feTurbulence
         type="fractalNoise"
         numOctaves="4"
         seed="160"
         baseFrequency="0.005 0.005"
         result="turbulence"
         id="feTurbulence5956" />
      <feDisplacementMap
         in="SourceGraphic"
         in2="turbulence"
         scale="13.9"
         yChannelSelector="G"
         xChannelSelector="R"
         id="feDisplacementMap5958" />
    </filter>
    <filter
       style="color-interpolation-filters:sRGB"
       inkscape:label="Roughen"
       id="filter1800">
      <feTurbulence
         type="fractalNoise"
         numOctaves="4"
         seed="1"
         baseFrequency="0.0092 0.0185"
         result="turbulence"
         id="feTurbulence1796" />
      <feDisplacementMap
         in="SourceGraphic"
         in2="turbulence"
         scale="4.67914"
         yChannelSelector="G"
         xChannelSelector="R"
         id="feDisplacementMap1798" />
    </filter>
  </defs>
  <sodipodi:namedview
     id="base"
     pagecolor="#ffffff"
     bordercolor="#666666"
     borderopacity="1.0"
     inkscape:pageopacity="0.0"
     inkscape:pageshadow="2"
     inkscape:zoom="0.74263967"
     inkscape:cx="676.42097"
     inkscape:cy="130.46929"
     inkscape:document-units="mm"
     inkscape:current-layer="layer1"
     showgrid="true"
     inkscape:snap-global="false"
     inkscape:window-width="1366"
     inkscape:window-height="704"
     inkscape:window-x="0"
     inkscape:window-y="27"
     inkscape:window-maximized="0"
     units="cm"
     fit-margin-top="1"
     fit-margin-bottom="1"
     fit-margin-left="0"
     fit-margin-right="0">
    <inkscape:grid
       originy="-39.831238"
       originx="-5.869638"
       empopacity="0.10588235"
       empcolor="#0000ff"
       empspacing="1"
       spacingy="5"
       spacingx="5"
       units="cm"
       id="grid1021"
       type="xygrid" />
  </sodipodi:namedview>
  <metadata
     id="metadata5">
    <rdf:RDF>
      <cc:Work
         rdf:about="">
        <dc:format>image/svg+xml</dc:format>
        <dc:type
           rdf:resource="http://purl.org/dc/dcmitype/StillImage" />
        <dc:title></dc:title>
      </cc:Work>
    </rdf:RDF>
  </metadata>
  <g
     inkscape:label="Layer 1"
     inkscape:groupmode="layer"
     id="layer1"
     transform="translate(-5.8696391,-182.16877)"
     style="display:inline;opacity:1">
    <path
       style="fill:none;fill-rule:evenodd;stroke:#000000;stroke-width:0.26458332px;stroke-linecap:butt;stroke-linejoin:miter;stroke-opacity:1"
       d="m 119.00666,222.55402 c 1.81305,-0.15624 10.00648,0 11.60489,0 1.58225,0 2.06871,-3.30753 2.99167,-4.81094 0.48252,-0.78598 1.55319,5.59323 2.13691,6.41459 0.54247,0.76331 0.69594,2.75628 0.85476,3.00685 0.0618,0.0976 1.32941,-2.60499 1.85199,-4.81096 0.0937,-0.39532 1.21581,-4.30291 1.28214,-4.20957 1.45701,2.05014 1.08576,6.53917 2.5643,8.61961 0.14335,0.20169 2.86112,-8.41916 2.99167,-8.41916 0.5812,0 1.38993,4.76216 1.85199,5.41232 0.60535,0.85177 1.06977,2.25513 1.4246,3.00684 0.0719,0.15214 0.40069,-1.32804 0.42738,-1.40319 0.39092,-1.1001 0.68716,-3.37236 1.13971,-4.00913 0.24832,-0.34942 4.96108,0.60138 6.69563,0.60138"
       id="path238"
       inkscape:connector-curvature="0"
       sodipodi:nodetypes="csscscccscsccc" />
    <path
       style="fill:none;fill-rule:evenodd;stroke:#000000;stroke-width:0.26458332px;stroke-linecap:butt;stroke-linejoin:miter;stroke-opacity:1"
       d="m 89.183045,246.78102 c 0,-15.17135 -0.79868,-31.17606 0,-46.19005 9.755362,-1.21367 20.300785,0 30.003565,0 0.11688,14.86315 -0.35719,29.84749 -0.35719,45.65608 -9.29246,-2.52592 -20.265103,-1.06602 -29.646375,0.53397 z"
       id="path1169"
       inkscape:connector-curvature="0" />
    <path
       style="fill:none;fill-rule:evenodd;stroke:#000000;stroke-width:0.26458332px;stroke-linecap:butt;stroke-linejoin:miter;stroke-opacity:1"
       d="m 141.87277,213.73556 c 2.69677,7.0811 3.29315,3.90814 5.68651,0.31609"
       id="path1173"
       inkscape:connector-curvature="0" />
    <path
       style="fill:none;fill-rule:evenodd;stroke:#000000;stroke-width:0.26458332px;stroke-linecap:butt;stroke-linejoin:miter;stroke-opacity:1"
       d="m 144.24216,217.52868 c 1.13569,-2.66468 -0.82005,-12.92957 0.78979,-14.5403 0.95939,-0.95994 40.88416,-1.40654 45.93398,-0.45008 2.03111,1.54916 -2.99981,20.84433 -0.091,23.75465 2.84991,2.85151 13.04357,-10e-4 19.65808,0.67053"
       id="path1181"
       inkscape:connector-curvature="0"
       sodipodi:nodetypes="csccc" />
    <g
       id="g1529"
       transform="translate(-15.083782,-10.153814)">
      <path
         inkscape:connector-curvature="0"
         id="path1183"
         d="m 113.14662,222.50358 c 0.01,-6.58867 1.61963,-4.47932 2.0154,-0.12596"
         style="fill:none;fill-rule:evenodd;stroke:#000000;stroke-width:0.26458332px;stroke-linecap:butt;stroke-linejoin:miter;stroke-opacity:1" />
      <path
         inkscape:connector-curvature="0"
         id="path1185"
         d="m 112.8947,221.24396 c 0.58441,-0.44833 1.2593,-0.33581 1.88943,-0.50385"
         style="fill:none;fill-rule:evenodd;stroke:#000000;stroke-width:0.26458332px;stroke-linecap:butt;stroke-linejoin:miter;stroke-opacity:1" />
      <path
         sodipodi:nodetypes="cssssccc"
         inkscape:connector-curvature="0"
         id="path1189"
         d="m 116.47314,222.48957 c 0.10774,-0.75856 -0.20231,-3.89484 0,-4.09715 0.0377,-0.0377 0.86597,0.86597 0.97975,0.97975 0.096,0.096 0.97659,0.99052 0.97976,0.97976 0.10216,-0.3464 0.9354,-2.04858 0.97975,-2.04858 0.0939,0 -0.13105,0.18323 -0.0891,0.26721 0.16313,0.32625 0.17223,0.86704 0.26721,1.24696 0.16141,0.64565 1.03891,2.07849 0.71255,2.40485"
         style="fill:none;fill-rule:evenodd;stroke:#000000;stroke-width:0.26458332px;stroke-linecap:butt;stroke-linejoin:miter;stroke-opacity:1" />
      <path
         inkscape:connector-curvature="0"
         id="path1191"
         d="m 122.2626,222.22237 c -0.52333,-0.52333 -0.49117,-2.76649 -0.89069,-3.82995 0.38656,-0.55388 3.68568,0.14427 2.76113,1.06882 -0.46908,0.46908 -1.48763,0.61022 -2.04858,0.89069"
         style="fill:none;fill-rule:evenodd;stroke:#000000;stroke-width:0.26458332px;stroke-linecap:butt;stroke-linejoin:miter;stroke-opacity:1" />
    </g>
    <path
       style="fill:none;fill-rule:evenodd;stroke:#000000;stroke-width:0.26458332px;stroke-linecap:butt;stroke-linejoin:miter;stroke-opacity:1"
       d="m 70.779524,224.63965 c 4.436883,-0.92661 14.963778,1.00738 18.317771,-0.67054"
       id="path1193"
       inkscape:connector-curvature="0" />
    <path
       style="fill:none;fill-rule:evenodd;stroke:#000000;stroke-width:0.26458332px;stroke-linecap:butt;stroke-linejoin:miter;stroke-opacity:1"
       d="m 91.502768,221.59889 c 0.27211,0.73883 -0.90623,3.10186 -0.26721,3.74088 0.16163,0.16162 2.994023,0.0708 2.137653,0.35627"
       id="path1199"
       inkscape:connector-curvature="0" />
    <g
       id="g1511"
       transform="matrix(1.254019,0,0,1.2547177,-58.637661,-34.021401)"
       style="stroke-width:0.79721403">
      <path
         inkscape:connector-curvature="0"
         id="path3475"
         d="m 219.47366,203.46658 c -1.48991,-0.14899 -3.41871,-0.3645 -4.98784,0.53441 0.60659,4.77394 -0.28303,9.63935 0.17813,14.25097 1.62671,-0.8107 3.01214,-0.34008 4.63157,-0.17814 0.95529,-4.77641 -0.85798,-9.71803 0.17814,-14.60724 z"
         style="fill:none;fill-rule:evenodd;stroke:#000000;stroke-width:0.21092953px;stroke-linecap:butt;stroke-linejoin:miter;stroke-opacity:1" />
      <path
         inkscape:connector-curvature="0"
         id="path3477"
         d="m 219.47366,203.46658 c 3.22123,-2.4507 7.47095,-7.64908 9.26313,-9.44127"
         style="fill:none;fill-rule:evenodd;stroke:#000000;stroke-width:0.21092953px;stroke-linecap:butt;stroke-linejoin:miter;stroke-opacity:1" />
      <path
         inkscape:connector-curvature="0"
         id="path3479"
         d="m 219.11738,218.25196 c 3.5898,2.8603 7.91817,7.40825 10.15382,9.08499"
         style="fill:none;fill-rule:evenodd;stroke:#000000;stroke-width:0.21092953px;stroke-linecap:butt;stroke-linejoin:miter;stroke-opacity:1" />
      <path
         inkscape:connector-curvature="0"
         id="path3481"
         d="m 229.09305,193.84718 c -0.25934,11.44586 -0.17812,24.8202 -0.17812,33.6679"
         style="fill:none;fill-rule:evenodd;stroke:#000000;stroke-width:0.21092953px;stroke-linecap:butt;stroke-linejoin:miter;stroke-opacity:1" />
    </g>
    <g
       id="g1505"
       transform="matrix(0.79944623,0,0,0.79570148,6.8758044,43.172976)"
       style="stroke-width:1.25380588">
      <path
         inkscape:connector-curvature="0"
         id="path1368"
         d="m 186.83436,223.14485 c 0.40013,1.18166 1.88498,2.75782 2.14135,3.52693"
         style="fill:none;fill-rule:evenodd;stroke:#000000;stroke-width:0.33173609px;stroke-linecap:butt;stroke-linejoin:miter;stroke-opacity:1" />
      <path
         inkscape:connector-curvature="0"
         id="path1370"
         d="m 189.47956,223.14485 c -1.2879,0.76121 -2.32845,2.73875 -3.40098,3.27501"
         style="fill:none;fill-rule:evenodd;stroke:#000000;stroke-width:0.33173609px;stroke-linecap:butt;stroke-linejoin:miter;stroke-opacity:1" />
    </g>
    <path
       style="fill:none;fill-rule:evenodd;stroke:#000000;stroke-width:0.26458332px;stroke-linecap:butt;stroke-linejoin:miter;stroke-opacity:1"
       d="m 70.633394,224.32468 c 0.108472,-0.79681 -0.262642,-0.68455 -0.789794,-0.94828 -0.339538,-0.16987 -0.841447,0.20972 -0.94775,0.3161 -1.817625,1.81862 3.144616,3.44789 1.737544,0.63218 z"
       id="path1403"
       inkscape:connector-curvature="0" />
    <g
       id="g1478"
       transform="translate(-12.589864,-2.2765377)">
      <path
         inkscape:connector-curvature="0"
         id="path1209"
         d="m 124.75652,222.62853 c -0.0861,0.61651 -1.05821,3.43975 -0.75709,3.74088 0.0488,0.0488 1.75663,0 2.00405,0"
         style="fill:none;fill-rule:evenodd;stroke:#000000;stroke-width:0.26458332px;stroke-linecap:butt;stroke-linejoin:miter;stroke-opacity:1" />
      <path
         inkscape:connector-curvature="0"
         id="path1211"
         d="m 126.53789,225.38965 c -0.69875,1.44972 0.83665,1.12942 0.48987,0.0891 -0.0885,-0.26553 -0.48987,-0.16929 -0.48987,0.22267"
         style="fill:none;fill-rule:evenodd;stroke:#000000;stroke-width:0.26458332px;stroke-linecap:butt;stroke-linejoin:miter;stroke-opacity:1" />
      <path
         inkscape:connector-curvature="0"
         id="path1213"
         d="m 127.78485,225.52326 c -0.51665,1.15925 0.80161,1.03286 0.80161,0"
         style="fill:none;fill-rule:evenodd;stroke:#000000;stroke-width:0.26458332px;stroke-linecap:butt;stroke-linejoin:miter;stroke-opacity:1" />
      <path
         inkscape:connector-curvature="0"
         id="path1215"
         d="m 129.47715,224.5435 c -0.068,0.34209 -0.60997,1.5587 0,1.5587"
         style="fill:none;fill-rule:evenodd;stroke:#000000;stroke-width:0.26458332px;stroke-linecap:butt;stroke-linejoin:miter;stroke-opacity:1" />
      <path
         sodipodi:nodetypes="cc"
         inkscape:connector-curvature="0"
         id="path1217"
         d="m 128.72006,225.25605 c 0.27006,-0.0125 0.97987,0.046 1.22898,0.0288"
         style="fill:none;fill-rule:evenodd;stroke:#000000;stroke-width:0.26458332px;stroke-linecap:butt;stroke-linejoin:miter;stroke-opacity:1" />
      <path
         inkscape:connector-curvature="0"
         id="path1467"
         d="m 126.98204,223.59991 c 0.59186,-0.0511 1.64454,-0.12596 2.0154,-0.12596"
         style="fill:none;fill-rule:evenodd;stroke:#000000;stroke-width:0.26458332px;stroke-linecap:butt;stroke-linejoin:miter;stroke-opacity:1" />
      <path
         inkscape:connector-curvature="0"
         id="path1469"
         d="m 128.17868,222.27731 c 0.1579,0.77055 -0.51098,1.87516 -0.18894,2.51924"
         style="fill:none;fill-rule:evenodd;stroke:#000000;stroke-width:0.26458332px;stroke-linecap:butt;stroke-linejoin:miter;stroke-opacity:1" />
    </g>
    <g
       id="g1523"
       transform="translate(-12.411726,-4.2752901)">
      <path
         style="fill:none;fill-rule:evenodd;stroke:#000000;stroke-width:0.26458332px;stroke-linecap:butt;stroke-linejoin:miter;stroke-opacity:1"
         d="m 124.75652,235.59305 c -0.0861,0.61651 -1.05821,3.43975 -0.75709,3.74088 0.0488,0.0488 1.75663,0 2.00405,0"
         id="path1480"
         inkscape:connector-curvature="0" />
      <path
         style="fill:none;fill-rule:evenodd;stroke:#000000;stroke-width:0.26458332px;stroke-linecap:butt;stroke-linejoin:miter;stroke-opacity:1"
         d="m 126.53789,238.35417 c -0.69875,1.44972 0.83665,1.12942 0.48987,0.0891 -0.0885,-0.26553 -0.48987,-0.16929 -0.48987,0.22267"
         id="path1482"
         inkscape:connector-curvature="0" />
      <path
         style="fill:none;fill-rule:evenodd;stroke:#000000;stroke-width:0.26458332px;stroke-linecap:butt;stroke-linejoin:miter;stroke-opacity:1"
         d="m 127.78485,238.48778 c -0.51665,1.15925 0.80161,1.03286 0.80161,0"
         id="path1484"
         inkscape:connector-curvature="0" />
      <path
         style="fill:none;fill-rule:evenodd;stroke:#000000;stroke-width:0.26458332px;stroke-linecap:butt;stroke-linejoin:miter;stroke-opacity:1"
         d="m 129.47715,237.50802 c -0.068,0.34209 -0.60997,1.5587 0,1.5587"
         id="path1486"
         inkscape:connector-curvature="0" />
      <path
         style="fill:none;fill-rule:evenodd;stroke:#000000;stroke-width:0.26458332px;stroke-linecap:butt;stroke-linejoin:miter;stroke-opacity:1"
         d="m 128.72006,238.22057 c 0.27006,-0.0125 0.97987,0.046 1.22898,0.0288"
         id="path1488"
         inkscape:connector-curvature="0"
         sodipodi:nodetypes="cc" />
      <path
         style="fill:none;fill-rule:evenodd;stroke:#000000;stroke-width:0.26458332px;stroke-linecap:butt;stroke-linejoin:miter;stroke-opacity:1"
         d="m 126.98204,236.56443 c 0.59186,-0.0511 1.64454,-0.12596 2.0154,-0.12596"
         id="path1490"
         inkscape:connector-curvature="0" />
    </g>
    <path
       style="fill:none;fill-rule:evenodd;stroke:#000000;stroke-width:0.26458332px;stroke-linecap:butt;stroke-linejoin:miter;stroke-opacity:1"
       d="m 118.72073,233.44533 c 30.50769,-0.99921 61.83084,2.97745 91.58879,0"
       id="path1513"
       inkscape:connector-curvature="0"
       sodipodi:nodetypes="cc" />
    <path
       style="fill:none;fill-rule:evenodd;stroke:#000000;stroke-width:0.26458332px;stroke-linecap:butt;stroke-linejoin:miter;stroke-opacity:1"
       d="m 103.19039,192.32687 c 0.20282,2.63655 -0.075,4.95073 0.17813,7.48176"
       id="path1537"
       inkscape:connector-curvature="0" />
    <path
       style="fill:none;fill-rule:evenodd;stroke:#000000;stroke-width:0.26458332px;stroke-linecap:butt;stroke-linejoin:miter;stroke-opacity:1"
       d="m 101.31995,192.14873 c 1.65469,0.0159 3.30254,0.0185 4.89877,0.17814"
       id="path1543"
       inkscape:connector-curvature="0" />
    <path
       style="fill:none;fill-rule:evenodd;stroke:#000000;stroke-width:0.26458332px;stroke-linecap:butt;stroke-linejoin:miter;stroke-opacity:1"
       d="m 100.34019,189.74388 c 0.53722,-0.11769 0.96771,-0.17814 1.51417,-0.17814"
       id="path1545"
       inkscape:connector-curvature="0" />
    <path
       style="fill:none;fill-rule:evenodd;stroke:#000000;stroke-width:0.26458332px;stroke-linecap:butt;stroke-linejoin:miter;stroke-opacity:1"
       d="m 100.96367,188.49692 c -0.0329,0.56628 0.15829,1.20725 0.35628,1.60324"
       id="path1547"
       inkscape:connector-curvature="0" />
    <path
       style="fill:none;fill-rule:evenodd;stroke:#000000;stroke-width:0.26458332px;stroke-linecap:butt;stroke-linejoin:miter;stroke-opacity:1"
       d="m 102.74504,188.94226 c 0.78507,3.05264 0.69271,2.55006 2.13765,0.62348 0.30259,-0.40345 0.76304,-0.72447 0.97975,-1.15789"
       id="path1549"
       inkscape:connector-curvature="0" />
    <path
       style="fill:none;fill-rule:evenodd;stroke:#000000;stroke-width:0.26458332px;stroke-linecap:butt;stroke-linejoin:miter;stroke-opacity:1"
       d="m 104.08107,245.23358 c 1.13578,2.01749 -0.57522,4.54995 0.35628,6.41294"
       id="path1551"
       inkscape:connector-curvature="0" />
    <path
       style="fill:none;fill-rule:evenodd;stroke:#000000;stroke-width:0.26458332px;stroke-linecap:butt;stroke-linejoin:miter;stroke-opacity:1"
       d="m 102.2997,251.91372 c 1.17314,-0.26045 2.41656,-0.17813 3.65181,-0.17813"
       id="path1553"
       inkscape:connector-curvature="0" />
    <path
       style="fill:none;fill-rule:evenodd;stroke:#000000;stroke-width:0.26458332px;stroke-linecap:butt;stroke-linejoin:miter;stroke-opacity:1"
       d="m 103.63573,252.35907 c 0.48924,0.13667 1.00858,0.0891 1.51416,0.0891"
       id="path1555"
       inkscape:connector-curvature="0" />
    <path
       style="fill:none;fill-rule:evenodd;stroke:#000000;stroke-width:0.26458332px;stroke-linecap:butt;stroke-linejoin:miter;stroke-opacity:1"
       d="m 104.17014,253.16068 c 0.14845,0 0.2969,0 0.44534,0"
       id="path1557"
       inkscape:connector-curvature="0" />
  </g>
  <g
     inkscape:groupmode="layer"
     id="layer2"
     inkscape:label="Layer 2"
     transform="translate(24.528029,-74.240458)" />
</svg>
