<?xml version="1.0" encoding="UTF-8" standalone="no"?>
<!-- Created with Inkscape (http://www.inkscape.org/) -->

<svg
   xmlns:dc="http://purl.org/dc/elements/1.1/"
   xmlns:cc="http://creativecommons.org/ns#"
   xmlns:rdf="http://www.w3.org/1999/02/22-rdf-syntax-ns#"
   xmlns:svg="http://www.w3.org/2000/svg"
   xmlns="http://www.w3.org/2000/svg"
   xmlns:sodipodi="http://sodipodi.sourceforge.net/DTD/sodipodi-0.dtd"
   xmlns:inkscape="http://www.inkscape.org/namespaces/inkscape"
   inkscape:version="0.92.4 5da689c313, 2019-01-14"
   sodipodi:docname="pot-volume.svg"
   id="svg8"
   version="1.1"
   viewBox="0 0 297 75"
   height="7.5cm"
   width="29.700001cm">
  <defs
     id="defs2">
    <inkscape:path-effect
       effect="rough_hatches"
       id="path-effect5264"
       is_visible="true"
       direction="180.56721,123.87035 , 72.234579,0"
       dist_rdm="75;1"
       growth="0"
       do_bend="true"
       bender="180.56721,128.87035 , 5,0"
       bottom_edge_variation="3.5627169;1"
       top_edge_variation="3.5627169;1"
       bottom_tgt_variation="0;1"
       top_tgt_variation="0;1"
       scale_bf="1"
       scale_bb="1"
       scale_tf="1"
       scale_tb="1"
       top_smth_variation="0;1"
       bottom_smth_variation="0;1"
       fat_output="true"
       stroke_width_top="1"
       stroke_width_bottom="1"
       front_thickness="1"
       back_thickness="0.25" />
    <inkscape:path-effect
       effect="sketch"
       id="path-effect1559"
       is_visible="true"
       nbiter_approxstrokes="1"
       strokelength="121"
       strokelength_rdm="0.3;1"
       strokeoverlap="0.3"
       strokeoverlap_rdm="0.3;1"
       ends_tolerance="0.1;1"
       parallel_offset="5;1"
       tremble_size="5;1"
       tremble_frequency="1"
       nbtangents="0"
       tgt_places_rdmness="1;1"
       tgtscale="10"
       tgtlength="100"
       tgtlength_rdm="0.3;1" />
    <filter
       style="color-interpolation-filters:sRGB"
       id="filter5622"
       inkscape:label="filter0">
      <feGaussianBlur
         stdDeviation="16.420000000000002"
         id="feGaussianBlur5624"
         in="BackgroundImage" />
    </filter>
    <filter
       style="color-interpolation-filters:sRGB"
       inkscape:label="Roughen"
       id="filter5954">
      <feTurbulence
         type="fractalNoise"
         numOctaves="4"
         seed="87"
         baseFrequency="0.005 0.005"
         result="turbulence"
         id="feTurbulence5950" />
      <feDisplacementMap
         in="SourceGraphic"
         in2="turbulence"
         scale="13.9037"
         yChannelSelector="G"
         xChannelSelector="R"
         id="feDisplacementMap5952" />
    </filter>
    <filter
       style="color-interpolation-filters:sRGB"
       inkscape:label="Roughen"
       id="filter5960">
      <feTurbulence
         type="fractalNoise"
         numOctaves="4"
         seed="160"
         baseFrequency="0.005 0.005"
         result="turbulence"
         id="feTurbulence5956" />
      <feDisplacementMap
         in="SourceGraphic"
         in2="turbulence"
         scale="13.9"
         yChannelSelector="G"
         xChannelSelector="R"
         id="feDisplacementMap5958" />
    </filter>
    <filter
       style="color-interpolation-filters:sRGB"
       inkscape:label="Roughen"
       id="filter1800">
      <feTurbulence
         type="fractalNoise"
         numOctaves="4"
         seed="1"
         baseFrequency="0.0092 0.0185"
         result="turbulence"
         id="feTurbulence1796" />
      <feDisplacementMap
         in="SourceGraphic"
         in2="turbulence"
         scale="4.67914"
         yChannelSelector="G"
         xChannelSelector="R"
         id="feDisplacementMap1798" />
    </filter>
  </defs>
  <sodipodi:namedview
     id="base"
     pagecolor="#ffffff"
     bordercolor="#666666"
     borderopacity="1.0"
     inkscape:pageopacity="0.0"
     inkscape:pageshadow="2"
     inkscape:zoom="0.74263967"
     inkscape:cx="428.24121"
     inkscape:cy="72.428287"
     inkscape:document-units="mm"
     inkscape:current-layer="layer1"
     showgrid="true"
     inkscape:snap-global="false"
     inkscape:window-width="1366"
     inkscape:window-height="704"
     inkscape:window-x="0"
     inkscape:window-y="27"
     inkscape:window-maximized="0"
     units="cm"
     fit-margin-top="1"
     fit-margin-bottom="1"
     fit-margin-left="0"
     fit-margin-right="0">
    <inkscape:grid
       originy="-39.831238"
       originx="-5.869638"
       empopacity="0.10588235"
       empcolor="#0000ff"
       empspacing="1"
       spacingy="5"
       spacingx="5"
       units="cm"
       id="grid1021"
       type="xygrid" />
  </sodipodi:namedview>
  <metadata
     id="metadata5">
    <rdf:RDF>
      <cc:Work
         rdf:about="">
        <dc:format>image/svg+xml</dc:format>
        <dc:type
           rdf:resource="http://purl.org/dc/dcmitype/StillImage" />
        <dc:title></dc:title>
      </cc:Work>
    </rdf:RDF>
  </metadata>
  <g
     inkscape:label="Layer 1"
     inkscape:groupmode="layer"
     id="layer1"
     transform="translate(-5.8696391,-182.16877)"
     style="display:inline;opacity:1">
    <path
       style="fill:none;fill-rule:evenodd;stroke:#000000;stroke-width:0.26458332px;stroke-linecap:butt;stroke-linejoin:miter;stroke-opacity:1"
       d="m 119.00666,220.1728 c 1.81305,-0.15624 10.00648,0 11.60489,0 1.58225,0 2.06871,-3.30753 2.99167,-4.81094 0.48252,-0.78598 1.55319,5.59323 2.13691,6.41459 0.54247,0.76331 0.69594,2.75628 0.85476,3.00685 0.0618,0.0976 1.32941,-2.60499 1.85199,-4.81096 0.0937,-0.39532 1.21581,-4.30291 1.28214,-4.20957 1.45701,2.05014 1.08576,6.53917 2.5643,8.61961 0.14335,0.20169 2.86112,-8.41916 2.99167,-8.41916 0.5812,0 1.38993,4.76216 1.85199,5.41232 0.60535,0.85177 1.06977,2.25513 1.4246,3.00684 0.0719,0.15214 0.40069,-1.32804 0.42738,-1.40319 0.39092,-1.1001 0.68716,-3.37236 1.13971,-4.00913 0.24832,-0.34942 4.96108,0.60138 6.69563,0.60138"
       id="path238"
       inkscape:connector-curvature="0"
       sodipodi:nodetypes="csscscccscsccc" />
    <path
       style="fill:none;fill-rule:evenodd;stroke:#000000;stroke-width:0.26458332px;stroke-linecap:butt;stroke-linejoin:miter;stroke-opacity:1"
       d="m 89.183045,244.3998 c 0,-15.17135 -0.79868,-31.17606 0,-46.19005 9.755362,-1.21367 20.300785,0 30.003565,0 0.11688,14.86315 -0.35719,29.84749 -0.35719,45.65608 -9.29246,-2.52592 -20.265103,-1.06602 -29.646375,0.53397 z"
       id="path1169"
       inkscape:connector-curvature="0" />
    <path
       style="fill:none;fill-rule:evenodd;stroke:#000000;stroke-width:0.26458332px;stroke-linecap:butt;stroke-linejoin:miter;stroke-opacity:1"
       d="m 141.87277,211.35434 c 2.69677,7.0811 3.29315,3.90814 5.68651,0.31609"
       id="path1173"
       inkscape:connector-curvature="0" />
    <path
       style="fill:none;fill-rule:evenodd;stroke:#000000;stroke-width:0.26458332px;stroke-linecap:butt;stroke-linejoin:miter;stroke-opacity:1"
       d="m 144.24216,215.14746 c 1.13569,-2.66468 -0.82005,-12.92957 0.78979,-14.5403 0.95939,-0.95994 40.88416,-1.40654 45.93398,-0.45008 2.03111,1.54916 -2.99981,20.84433 -0.091,23.75465 2.84991,2.85151 13.04357,-0.001 19.65808,0.67053"
       id="path1181"
       inkscape:connector-curvature="0"
       sodipodi:nodetypes="csccc" />
    <g
       id="g1529"
       transform="translate(-15.083782,-12.535061)">
      <path
         inkscape:connector-curvature="0"
         id="path1183"
         d="m 113.14662,222.50358 c 0.01,-6.58867 1.61963,-4.47932 2.0154,-0.12596"
         style="fill:none;fill-rule:evenodd;stroke:#000000;stroke-width:0.26458332px;stroke-linecap:butt;stroke-linejoin:miter;stroke-opacity:1" />
      <path
         inkscape:connector-curvature="0"
         id="path1185"
         d="m 112.8947,221.24396 c 0.58441,-0.44833 1.2593,-0.33581 1.88943,-0.50385"
         style="fill:none;fill-rule:evenodd;stroke:#000000;stroke-width:0.26458332px;stroke-linecap:butt;stroke-linejoin:miter;stroke-opacity:1" />
      <path
         sodipodi:nodetypes="cssssccc"
         inkscape:connector-curvature="0"
         id="path1189"
         d="m 116.47314,222.48957 c 0.10774,-0.75856 -0.20231,-3.89484 0,-4.09715 0.0377,-0.0377 0.86597,0.86597 0.97975,0.97975 0.096,0.096 0.97659,0.99052 0.97976,0.97976 0.10216,-0.3464 0.9354,-2.04858 0.97975,-2.04858 0.0939,0 -0.13105,0.18323 -0.0891,0.26721 0.16313,0.32625 0.17223,0.86704 0.26721,1.24696 0.16141,0.64565 1.03891,2.07849 0.71255,2.40485"
         style="fill:none;fill-rule:evenodd;stroke:#000000;stroke-width:0.26458332px;stroke-linecap:butt;stroke-linejoin:miter;stroke-opacity:1" />
      <path
         inkscape:connector-curvature="0"
         id="path1191"
         d="m 122.2626,222.22237 c -0.52333,-0.52333 -0.49117,-2.76649 -0.89069,-3.82995 0.38656,-0.55388 3.68568,0.14427 2.76113,1.06882 -0.46908,0.46908 -1.48763,0.61022 -2.04858,0.89069"
         style="fill:none;fill-rule:evenodd;stroke:#000000;stroke-width:0.26458332px;stroke-linecap:butt;stroke-linejoin:miter;stroke-opacity:1" />
    </g>
    <path
       style="fill:none;fill-rule:evenodd;stroke:#000000;stroke-width:0.26458332px;stroke-linecap:butt;stroke-linejoin:miter;stroke-opacity:1"
       d="m 70.779524,222.25843 c 4.436883,-0.92661 14.963778,1.00738 18.317771,-0.67054"
       id="path1193"
       inkscape:connector-curvature="0" />
    <g
       id="g1511"
       transform="matrix(1.254019,0,0,1.2547177,-58.637661,-36.402648)"
       style="stroke-width:0.79721403">
      <path
         inkscape:connector-curvature="0"
         id="path3475"
         d="m 219.47366,203.46658 c -1.48991,-0.14899 -3.41871,-0.3645 -4.98784,0.53441 0.60659,4.77394 -0.28303,9.63935 0.17813,14.25097 1.62671,-0.8107 3.01214,-0.34008 4.63157,-0.17814 0.95529,-4.77641 -0.85798,-9.71803 0.17814,-14.60724 z"
         style="fill:none;fill-rule:evenodd;stroke:#000000;stroke-width:0.21092953px;stroke-linecap:butt;stroke-linejoin:miter;stroke-opacity:1" />
      <path
         inkscape:connector-curvature="0"
         id="path3477"
         d="m 219.47366,203.46658 c 3.22123,-2.4507 7.47095,-7.64908 9.26313,-9.44127"
         style="fill:none;fill-rule:evenodd;stroke:#000000;stroke-width:0.21092953px;stroke-linecap:butt;stroke-linejoin:miter;stroke-opacity:1" />
      <path
         inkscape:connector-curvature="0"
         id="path3479"
         d="m 219.11738,218.25196 c 3.5898,2.8603 7.91817,7.40825 10.15382,9.08499"
         style="fill:none;fill-rule:evenodd;stroke:#000000;stroke-width:0.21092953px;stroke-linecap:butt;stroke-linejoin:miter;stroke-opacity:1" />
      <path
         inkscape:connector-curvature="0"
         id="path3481"
         d="m 229.09305,193.84718 c -0.25934,11.44586 -0.17812,24.8202 -0.17812,33.6679"
         style="fill:none;fill-rule:evenodd;stroke:#000000;stroke-width:0.21092953px;stroke-linecap:butt;stroke-linejoin:miter;stroke-opacity:1" />
    </g>
    <g
       id="g1505"
       transform="matrix(0.79944623,0,0,0.79570148,6.8758044,40.791729)"
       style="stroke-width:1.25380588">
      <path
         inkscape:connector-curvature="0"
         id="path1368"
         d="m 186.83436,223.14485 c 0.40013,1.18166 1.88498,2.75782 2.14135,3.52693"
         style="fill:none;fill-rule:evenodd;stroke:#000000;stroke-width:0.33173609px;stroke-linecap:butt;stroke-linejoin:miter;stroke-opacity:1" />
      <path
         inkscape:connector-curvature="0"
         id="path1370"
         d="m 189.47956,223.14485 c -1.2879,0.76121 -2.32845,2.73875 -3.40098,3.27501"
         style="fill:none;fill-rule:evenodd;stroke:#000000;stroke-width:0.33173609px;stroke-linecap:butt;stroke-linejoin:miter;stroke-opacity:1" />
    </g>
    <path
       style="fill:none;fill-rule:evenodd;stroke:#000000;stroke-width:0.26458332px;stroke-linecap:butt;stroke-linejoin:miter;stroke-opacity:1"
       d="m 70.633394,221.94346 c 0.108472,-0.79681 -0.262642,-0.68455 -0.789794,-0.94828 -0.339538,-0.16987 -0.841447,0.20972 -0.94775,0.3161 -1.817625,1.81862 3.144616,3.44789 1.737544,0.63218 z"
       id="path1403"
       inkscape:connector-curvature="0" />
    <path
       style="fill:none;fill-rule:evenodd;stroke:#000000;stroke-width:0.26458332px;stroke-linecap:butt;stroke-linejoin:miter;stroke-opacity:1"
       d="m 118.72073,231.06411 c 30.50769,-0.99921 61.83084,2.97745 91.58879,0"
       id="path1513"
       inkscape:connector-curvature="0"
       sodipodi:nodetypes="cc" />
    <path
       style="fill:none;fill-rule:evenodd;stroke:#000000;stroke-width:0.26458332px;stroke-linecap:butt;stroke-linejoin:miter;stroke-opacity:1"
       d="m 103.19039,189.94565 c 0.20282,2.63655 -0.075,4.95073 0.17813,7.48176"
       id="path1537"
       inkscape:connector-curvature="0" />
    <path
       style="fill:none;fill-rule:evenodd;stroke:#000000;stroke-width:0.26458332px;stroke-linecap:butt;stroke-linejoin:miter;stroke-opacity:1"
       d="m 101.31995,189.76751 c 1.65469,0.0159 3.30254,0.0185 4.89877,0.17814"
       id="path1543"
       inkscape:connector-curvature="0" />
    <path
       style="fill:none;fill-rule:evenodd;stroke:#000000;stroke-width:0.26458332px;stroke-linecap:butt;stroke-linejoin:miter;stroke-opacity:1"
       d="m 100.34019,187.36266 c 0.53722,-0.11769 0.96771,-0.17814 1.51417,-0.17814"
       id="path1545"
       inkscape:connector-curvature="0" />
    <path
       style="fill:none;fill-rule:evenodd;stroke:#000000;stroke-width:0.26458332px;stroke-linecap:butt;stroke-linejoin:miter;stroke-opacity:1"
       d="m 100.96367,186.1157 c -0.0329,0.56628 0.15829,1.20725 0.35628,1.60324"
       id="path1547"
       inkscape:connector-curvature="0" />
    <path
       style="fill:none;fill-rule:evenodd;stroke:#000000;stroke-width:0.26458332px;stroke-linecap:butt;stroke-linejoin:miter;stroke-opacity:1"
       d="m 102.74504,186.56104 c 0.78507,3.05264 0.69271,2.55006 2.13765,0.62348 0.30259,-0.40345 0.76304,-0.72447 0.97975,-1.15789"
       id="path1549"
       inkscape:connector-curvature="0" />
    <path
       style="fill:none;fill-rule:evenodd;stroke:#000000;stroke-width:0.26458332px;stroke-linecap:butt;stroke-linejoin:miter;stroke-opacity:1"
       d="m 104.08107,242.85236 c 1.13578,2.01749 -0.57522,4.54995 0.35628,6.41294"
       id="path1551"
       inkscape:connector-curvature="0" />
    <path
       style="fill:none;fill-rule:evenodd;stroke:#000000;stroke-width:0.26458332px;stroke-linecap:butt;stroke-linejoin:miter;stroke-opacity:1"
       d="m 102.2997,249.5325 c 1.17314,-0.26045 2.41656,-0.17813 3.65181,-0.17813"
       id="path1553"
       inkscape:connector-curvature="0" />
    <path
       style="fill:none;fill-rule:evenodd;stroke:#000000;stroke-width:0.26458332px;stroke-linecap:butt;stroke-linejoin:miter;stroke-opacity:1"
       d="m 91.397796,219.89609 c -0.448098,1.05334 -0.700521,3.1004 -0.755772,3.6529"
       id="path3675"
       inkscape:connector-curvature="0" />
    <path
       style="fill:none;fill-rule:evenodd;stroke:#000000;stroke-width:0.26458332px;stroke-linecap:butt;stroke-linejoin:miter;stroke-opacity:1"
       d="m 91.901645,222.79322 c 0.2893,-0.65093 0.671451,-1.58369 0.755771,-2.51924 0.115791,3.3889 0.903082,2.20327 1.763468,-0.37789"
       id="path3677"
       inkscape:connector-curvature="0" />
    <path
       style="fill:none;fill-rule:evenodd;stroke:#000000;stroke-width:0.26458332px;stroke-linecap:butt;stroke-linejoin:miter;stroke-opacity:1"
       d="m 110.1689,219.96175 c -2.96964,3.62124 2.61932,2.55448 0.97976,-0.17814 -1.01011,-1.6835 -1.66255,0.47529 -1.4251,1.4251"
       id="path3683"
       inkscape:connector-curvature="0" />
    <path
       style="fill:none;fill-rule:evenodd;stroke:#000000;stroke-width:0.26458332px;stroke-linecap:butt;stroke-linejoin:miter;stroke-opacity:1"
       d="m 112.30655,219.78361 c -0.79967,2.71344 0.97975,2.48585 0.97975,0.0891"
       id="path3685"
       inkscape:connector-curvature="0" />
    <path
       style="fill:none;fill-rule:evenodd;stroke:#000000;stroke-width:0.26458332px;stroke-linecap:butt;stroke-linejoin:miter;stroke-opacity:1"
       d="m 114.62233,219.60548 c -0.12027,0.6152 -0.4433,2.30451 -0.44534,2.31578"
       id="path3687"
       inkscape:connector-curvature="0" />
    <path
       style="fill:none;fill-rule:evenodd;stroke:#000000;stroke-width:0.26458332px;stroke-linecap:butt;stroke-linejoin:miter;stroke-opacity:1"
       d="m 113.2863,219.42734 c 0.74646,-0.14365 1.48387,-0.0743 2.22671,0"
       id="path3689"
       inkscape:connector-curvature="0" />
    <path
       style="fill:none;fill-rule:evenodd;stroke:#000000;stroke-width:0.26458332px;stroke-linecap:butt;stroke-linejoin:miter;stroke-opacity:1"
       d="m 116.13649,220.85244 c 0.59379,0 1.18759,0 1.78137,0"
       id="path3693"
       inkscape:connector-curvature="0" />
    <path
       style="fill:none;fill-rule:evenodd;stroke:#000000;stroke-width:0.26458332px;stroke-linecap:butt;stroke-linejoin:miter;stroke-opacity:1"
       d="m 117.20532,219.60548 c 0.0353,0.93067 -0.19967,1.81069 -0.35628,2.67205"
       id="path3695"
       inkscape:connector-curvature="0" />
    <path
       style="fill:none;fill-rule:evenodd;stroke:#000000;stroke-width:0.26458332px;stroke-linecap:butt;stroke-linejoin:miter;stroke-opacity:1"
       d="m 109.18915,230.38277 c -0.25332,0.58887 -0.59905,1.6923 0.35627,1.6923 3.86957,0 -0.88148,-6.40993 -0.35627,-1.15789"
       id="path3697"
       inkscape:connector-curvature="0" />
    <path
       style="fill:none;fill-rule:evenodd;stroke:#000000;stroke-width:0.26458332px;stroke-linecap:butt;stroke-linejoin:miter;stroke-opacity:1"
       d="m 112.12841,229.40302 c -0.68374,3.21384 0.61856,2.25129 1.06882,0"
       id="path3699"
       inkscape:connector-curvature="0" />
    <path
       style="fill:none;fill-rule:evenodd;stroke:#000000;stroke-width:0.26458332px;stroke-linecap:butt;stroke-linejoin:miter;stroke-opacity:1"
       d="m 114.44419,229.04674 c -0.35466,0.84672 -0.53441,1.84679 -0.53441,2.58299"
       id="path3705"
       inkscape:connector-curvature="0" />
    <path
       style="fill:none;fill-rule:evenodd;stroke:#000000;stroke-width:0.26458332px;stroke-linecap:butt;stroke-linejoin:miter;stroke-opacity:1"
       d="m 113.10816,228.95767 c 0.64953,-0.0618 1.54961,0.0392 2.04858,0.0891"
       id="path3707"
       inkscape:connector-curvature="0" />
    <path
       style="fill:none;fill-rule:evenodd;stroke:#000000;stroke-width:0.26458332px;stroke-linecap:butt;stroke-linejoin:miter;stroke-opacity:1"
       d="m 115.78022,230.56091 c 0.44534,0 0.89068,0 1.33603,0"
       id="path3709"
       inkscape:connector-curvature="0" />
    <path
       style="fill:none;fill-rule:evenodd;stroke:#000000;stroke-width:0.26458332px;stroke-linecap:butt;stroke-linejoin:miter;stroke-opacity:1"
       d="m 101.88553,252.47177 c 0.70266,-0.17916 1.43442,-0.28596 2.13764,-0.35628"
       id="path3713"
       inkscape:connector-curvature="0" />
    <path
       style="fill:none;fill-rule:evenodd;stroke:#000000;stroke-width:0.26458332px;stroke-linecap:butt;stroke-linejoin:miter;stroke-opacity:1"
       d="m 104.55758,250.60133 c 1.03603,3.42834 1.0471,1.51765 2.13765,-0.44535"
       id="path3715"
       inkscape:connector-curvature="0" />
  </g>
  <g
     inkscape:groupmode="layer"
     id="layer2"
     inkscape:label="Layer 2"
     transform="translate(24.528029,-74.240458)" />
</svg>
