<?xml version="1.0" encoding="UTF-8" standalone="no"?>
<!-- Created with Inkscape (http://www.inkscape.org/) -->

<svg
   xmlns:dc="http://purl.org/dc/elements/1.1/"
   xmlns:cc="http://creativecommons.org/ns#"
   xmlns:rdf="http://www.w3.org/1999/02/22-rdf-syntax-ns#"
   xmlns:svg="http://www.w3.org/2000/svg"
   xmlns="http://www.w3.org/2000/svg"
   xmlns:sodipodi="http://sodipodi.sourceforge.net/DTD/sodipodi-0.dtd"
   xmlns:inkscape="http://www.inkscape.org/namespaces/inkscape"
   width="29.700001cm"
   height="7cm"
   viewBox="0 0 297 70.000005"
   version="1.1"
   id="svg8"
   sodipodi:docname="sound-amp-class-d-diagram.svg"
   inkscape:version="0.92.4 5da689c313, 2019-01-14">
  <defs
     id="defs2" />
  <sodipodi:namedview
     id="base"
     pagecolor="#ffffff"
     bordercolor="#666666"
     borderopacity="1.0"
     inkscape:pageopacity="0.0"
     inkscape:pageshadow="2"
     inkscape:zoom="1.0502511"
     inkscape:cx="669.72591"
     inkscape:cy="185.17959"
     inkscape:document-units="mm"
     inkscape:current-layer="layer1"
     showgrid="true"
     inkscape:snap-global="false"
     inkscape:window-width="1366"
     inkscape:window-height="768"
     inkscape:window-x="0"
     inkscape:window-y="0"
     inkscape:window-maximized="1"
     units="cm"
     fit-margin-top="1"
     fit-margin-bottom="1"
     fit-margin-left="0"
     fit-margin-right="0">
    <inkscape:grid
       type="xygrid"
       id="grid1021"
       units="cm"
       spacingx="5"
       spacingy="5"
       empspacing="1"
       empcolor="#0000ff"
       empopacity="0.10588235"
       originx="-30.397667"
       originy="-87.255341" />
  </sodipodi:namedview>
  <metadata
     id="metadata5">
    <rdf:RDF>
      <cc:Work
         rdf:about="">
        <dc:format>image/svg+xml</dc:format>
        <dc:type
           rdf:resource="http://purl.org/dc/dcmitype/StillImage" />
        <dc:title></dc:title>
      </cc:Work>
    </rdf:RDF>
  </metadata>
  <g
     inkscape:label="Layer 1"
     inkscape:groupmode="layer"
     id="layer1"
     transform="translate(-30.397668,-139.74467)">
    <g
       id="g3471"
       transform="matrix(0.46874757,0,0,0.4682758,31.608114,86.129408)"
       style="stroke-width:2.13441873">
      <path
         inkscape:connector-curvature="0"
         id="path2338"
         d="m 80.396356,195.84072 c -9.907212,0 -19.81437,0.21592 -29.727034,0.25192 -0.696036,-8.11732 1.097712,-18.23729 -0.503848,-25.44431"
         style="fill:none;fill-rule:evenodd;stroke:#000000;stroke-width:0.5647316px;stroke-linecap:butt;stroke-linejoin:miter;stroke-opacity:1" />
      <path
         inkscape:connector-curvature="0"
         id="path2344"
         d="m 51.224335,184.71104 c 0.851816,-0.16224 1.237488,-1.05935 1.603233,-1.42509 0.129354,-0.12936 -0.195874,-1.43397 0.178138,-1.24696 0.23907,0.11953 0.975977,0.61215 1.068822,0.89068 0.02151,0.0645 0.933354,4.01182 1.603234,2.67206 0.116147,-0.23229 0.687221,-5.72572 1.425097,-4.98784 0.446722,0.44672 1.41025,5.21052 1.78137,4.09715 0.291542,-0.87462 0.494083,-5.87852 1.603235,-5.87852 0.183803,0 0.955297,0.72825 1.068821,1.06882 0.331219,0.99366 -0.172799,2.34782 0,3.38461 0.288208,1.72924 0.652024,3.49877 1.068824,5.16597 0.03805,0.15221 0.350097,1.60324 0.534411,1.60324 0.298516,0 0.85216,-1.41061 0.890686,-1.60324 0.587618,-2.9381 1.068821,-5.83579 1.068821,-8.90685 0,-0.14273 -0.113736,-0.95509 0,-1.06882 0.15635,-0.15635 1.531764,-0.78402 1.781374,-0.53441 0.51136,0.51136 0.80234,7.83948 1.603233,9.44126 0.22934,0.45868 0.80713,-3.14496 0.89069,-3.56274 0.0319,-0.15955 0.0737,-1.78137 0.17813,-1.78137 0.29396,0 0.685,2.67205 1.781373,2.67205 1e-4,0 1.33712,-1.24913 1.4251,-1.42509 0.054,-0.10796 0.10349,-0.45977 0.17814,-0.53441 0.0491,-0.0491 1.571223,1.21495 1.781373,1.42509 1.03058,1.03058 1.26826,-2.65076 1.603233,-2.31578 0.4572,0.4572 0.33652,1.54396 0.53441,2.13765 0.14638,0.43912 0.38136,0.54695 0.71255,0.71254 1.19071,0.59536 1.841253,-0.0599 2.672063,-0.89068"
         style="fill:none;fill-rule:evenodd;stroke:#000000;stroke-width:0.5647316px;stroke-linecap:butt;stroke-linejoin:miter;stroke-opacity:1" />
    </g>
    <path
       style="fill:none;fill-rule:evenodd;stroke:#000000;stroke-width:0.26458332px;stroke-linecap:butt;stroke-linejoin:miter;stroke-opacity:1"
       d="m 75.780899,148.48058 c 0.923459,6.6575 -1.071215,51.73431 0.614243,53.21677 1.009802,0.88819 109.875068,-0.54028 112.379758,-0.54028 5.30371,0 69.8687,0.40722 70.33167,0 2.62325,-2.30729 0.30714,-19.27909 0.30714,-22.96154 0,-7.05974 3.32768,-23.3209 -0.30714,-29.71495 -1.11926,-1.96893 -14.19811,-0.27014 -16.27762,-0.27014 -23.27669,0 -145.28272,-2.12286 -167.048051,0.27014 z"
       id="path2348"
       inkscape:connector-curvature="0"
       sodipodi:nodetypes="csscscsc" />
    <g
       id="g2594"
       transform="matrix(0.48207745,0,0,0.48188711,157.53194,74.340266)"
       style="stroke-width:2.07476497">
      <path
         style="fill:none;fill-rule:evenodd;stroke:#000000;stroke-width:0.54894823px;stroke-linecap:butt;stroke-linejoin:miter;stroke-opacity:1"
         d="m 225.55997,185.29294 c 0.85182,-0.28955 1.23749,-1.8906 1.60324,-2.54333 0.12935,-0.23087 -0.19588,-2.55917 0.17813,-2.22542 0.23907,0.21332 0.97598,1.09249 1.06883,1.58958 0.0215,0.11511 0.93335,7.1598 1.60323,4.76876 0.11615,-0.41456 0.68722,-10.21857 1.4251,-8.90169 0.44672,0.79725 1.41025,9.2991 1.78137,7.3121 0.29154,-1.56092 0.49408,-10.49127 1.60323,-10.49127 0.18381,0 0.9553,1.29969 1.06882,1.9075 0.33122,1.77336 -0.1728,4.1901 0,6.04044 0.28821,3.08614 0.65203,6.24418 1.06883,9.21959 0.038,0.27165 0.35009,2.86127 0.53441,2.86127 0.29851,0 0.85216,-2.51748 0.89068,-2.86127 0.58762,-5.24356 1.06883,-10.415 1.06883,-15.89586 0,-0.25472 -0.11374,-1.70453 0,-1.9075 0.15635,-0.27903 1.53176,-1.39922 1.78137,-0.95375 0.51136,0.91262 0.80234,13.99095 1.60323,16.84962 0.22934,0.81859 0.80713,-5.61275 0.89069,-6.35835 0.0319,-0.28475 0.0737,-3.17917 0.17813,-3.17917 0.29396,0 0.685,4.76875 1.78137,4.76875 1e-4,0 1.33712,-2.2293 1.4251,-2.54333 0.054,-0.19267 0.10349,-0.82054 0.17814,-0.95375 0.0491,-0.0876 1.57122,2.1683 1.78137,2.54333 1.03058,1.83925 1.26826,-4.73076 1.60323,-4.13292 0.4572,0.81595 0.33652,2.75547 0.53441,3.81501 0.14638,0.78369 0.38136,0.97613 0.71255,1.27166 1.19071,1.06252 1.84125,-0.1069 2.67206,-1.58958"
         id="path2352"
         inkscape:connector-curvature="0" />
      <path
         inkscape:connector-curvature="0"
         id="path2376"
         d="m 225.13483,182.9926 c 10.04204,-0.12038 19.93808,0.12596 29.97894,0.12596"
         style="fill:none;fill-rule:evenodd;stroke:#000000;stroke-width:0.54894823px;stroke-linecap:butt;stroke-linejoin:miter;stroke-opacity:1" />
    </g>
    <path
       style="fill:none;fill-rule:evenodd;stroke:#000000;stroke-width:0.26458332px;stroke-linecap:butt;stroke-linejoin:miter;stroke-opacity:1"
       d="m 64.056137,162.70974 c 7.015578,1.17954 15.786779,0.75922 21.852695,0"
       id="path2519"
       inkscape:connector-curvature="0" />
    <path
       style="fill:none;fill-rule:evenodd;stroke:#000000;stroke-width:0.26458332px;stroke-linecap:butt;stroke-linejoin:miter;stroke-opacity:1"
       d="m 86.448402,157.84729 c 0,3.42173 0,6.84345 0,10.26516"
       id="path2521"
       inkscape:connector-curvature="0" />
    <path
       style="fill:none;fill-rule:evenodd;stroke:#000000;stroke-width:0.26458332px;stroke-linecap:butt;stroke-linejoin:miter;stroke-opacity:1"
       d="m 89.146275,157.84729 c 0.390463,3.38807 0.662993,6.8453 0.26979,9.99504"
       id="path2523"
       inkscape:connector-curvature="0" />
    <path
       style="fill:none;fill-rule:evenodd;stroke:#000000;stroke-width:0.26458332px;stroke-linecap:butt;stroke-linejoin:miter;stroke-opacity:1"
       d="m 89.582788,162.4396 c 6.27337,0.0317 35.608062,-0.73791 40.424542,-0.13512"
       id="path2527"
       inkscape:connector-curvature="0"
       sodipodi:nodetypes="cc" />
    <path
       style="fill:none;fill-rule:evenodd;stroke:#000000;stroke-width:0.26458332px;stroke-linecap:butt;stroke-linejoin:miter;stroke-opacity:1"
       d="m 130.00733,186.98308 c 0,-8.68707 0.28825,-20.16621 0.26977,-29.98509 8.58308,5.5089 17.90405,9.88457 22.39226,15.12762 -6.44789,6.45626 -13.53331,10.01304 -22.66203,14.85747 z"
       id="path2529"
       inkscape:connector-curvature="0" />
    <path
       style="fill:none;fill-rule:evenodd;stroke:#000000;stroke-width:0.26458332px;stroke-linecap:butt;stroke-linejoin:miter;stroke-opacity:1"
       d="m 122.18352,181.78939 c 1.94848,0.10342 7.16476,0.27012 7.68891,0.27012"
       id="path2531"
       inkscape:connector-curvature="0"
       sodipodi:nodetypes="cc" />
    <path
       style="fill:none;fill-rule:evenodd;stroke:#000000;stroke-width:0.26458332px;stroke-linecap:butt;stroke-linejoin:miter;stroke-opacity:1"
       d="m 108.54575,184.54669 c 0.6094,-1.78044 1.12611,-3.34773 1.34893,-5.13259 0.504,1.57929 1.08688,3.54273 1.34893,4.59231 0.79884,-1.43461 1.12523,-2.88593 1.48383,-4.32217 0.73271,1.57809 1.21403,3.28723 1.21403,4.59231 1.23942,-0.96067 1.28386,-3.04855 1.61873,-4.38972 0.51577,1.40684 1.01375,3.46075 1.14659,4.52479 0.90629,-1.09112 1.53856,-3.39338 1.95594,-5.06505 0.17401,1.41738 0.70431,4.05368 1.28148,5.06505"
       id="path2533"
       inkscape:connector-curvature="0"
       sodipodi:nodetypes="ccccccccc" />
    <path
       inkscape:connector-curvature="0"
       id="path2535"
       d="m 127.91391,154.61775 c -5.14061,0 -10.2812,0.11192 -15.42465,0.13072"
       style="fill:none;fill-rule:evenodd;stroke:#000000;stroke-width:0.26458332px;stroke-linecap:butt;stroke-linejoin:miter;stroke-opacity:1"
       sodipodi:nodetypes="cc" />
    <path
       inkscape:connector-curvature="0"
       id="path2537"
       d="m 112.87263,155.33972 c 0.44198,-0.0842 0.6421,-0.54946 0.83188,-0.73915 0.0671,-0.067 -0.10162,-0.74374 0.0924,-0.64675 0.12403,0.062 0.50641,0.3175 0.55459,0.46196 0.0106,0.0335 0.48428,2.08079 0.83187,1.38591 0.0603,-0.12056 0.35659,-2.96972 0.73945,-2.58702 0.23179,0.2317 0.73174,2.70251 0.92431,2.12505 0.1513,-0.45363 0.25637,-3.04897 0.83189,-3.04897 0.0954,0 0.49568,0.37771 0.55458,0.55435 0.17186,0.51538 -0.0897,1.21772 0,1.75547 0.14947,0.89689 0.33832,1.81469 0.55458,2.6794 0.0197,0.079 0.18167,0.83155 0.27729,0.83155 0.1549,0 0.44217,-0.73163 0.46216,-0.83155 0.30491,-1.52388 0.55459,-3.0268 0.55459,-4.61965 0,-0.074 -0.0591,-0.49538 0,-0.55437 0.0812,-0.0811 0.79479,-0.40663 0.92431,-0.27718 0.26534,0.26523 0.41632,4.06606 0.83189,4.89685 0.11904,0.2379 0.41879,-1.63119 0.46215,-1.84787 0.0165,-0.0828 0.0382,-0.92393 0.0924,-0.92393 0.15254,0 0.35544,1.3859 0.92432,1.3859 5e-5,0 0.69379,-0.64789 0.73945,-0.73915 0.028,-0.056 0.0536,-0.23846 0.0924,-0.27718 0.0254,-0.0255 0.81527,0.63015 0.92431,0.73915 0.53475,0.53452 0.65808,-1.37486 0.83189,-1.20112 0.23723,0.23715 0.17461,0.80079 0.27729,1.10873 0.076,0.22775 0.19788,0.28368 0.36972,0.36957 0.61783,0.30879 0.95538,-0.0311 1.38648,-0.46197"
       style="fill:none;fill-rule:evenodd;stroke:#000000;stroke-width:0.26458332px;stroke-linecap:butt;stroke-linejoin:miter;stroke-opacity:1" />
    <path
       style="fill:none;fill-rule:evenodd;stroke:#000000;stroke-width:0.26458332px;stroke-linecap:butt;stroke-linejoin:miter;stroke-opacity:1"
       d="m 152.45358,171.89427 c 7.43236,-0.21878 24.25635,-0.28653 30.61821,-0.28653"
       id="path2539"
       inkscape:connector-curvature="0"
       sodipodi:nodetypes="cc" />
    <g
       id="g3525"
       transform="matrix(1,0,0,0.71062592,0,46.295091)"
       style="stroke-width:1.18625891">
      <path
         inkscape:connector-curvature="0"
         id="path2541"
         d="m 171.42051,164.54641 c -5.1406,0 -10.2812,0.11191 -15.42465,0.13071"
         style="fill:none;fill-rule:evenodd;stroke:#000000;stroke-width:0.31386432px;stroke-linecap:butt;stroke-linejoin:miter;stroke-opacity:1"
         sodipodi:nodetypes="cc" />
      <path
         sodipodi:nodetypes="cccccccccccccccccccccc"
         inkscape:connector-curvature="0"
         id="path2551"
         d="m 156.44637,168.27617 c 0.37604,0.0516 0.72222,0 1.14659,0 -0.0421,-2.63454 -0.26977,-5.46915 -0.26977,-7.63134 0.6235,-0.2647 1.33635,-0.0892 1.75361,0.0675 -0.0891,2.47976 0.36761,5.21355 -0.20234,7.49632 0.48697,0.27305 0.7423,0.13512 1.28148,0.13512 0.15946,-2.58103 -0.0674,-5.47314 -0.0674,-7.76645 0.39496,0.17707 0.79418,0.13511 1.21398,0.13511 -0.0883,2.50409 -0.0674,5.0891 -0.0674,7.69882 0.82804,-0.11389 1.70593,-0.20011 2.22569,-0.13512 0.20418,-2.53465 -0.24367,-5.20668 -0.0337,-7.73259 0.28954,-0.17512 0.54741,0.0156 0.77566,0.10133 0.20038,2.79882 0.12615,5.29881 0.20235,7.49623 0.45131,0.35905 0.96383,0.27013 1.55126,0.27013 0.0766,-2.48984 0,-5.89081 0,-8.10407 0.35973,-0.003 0.60893,0.0256 0.94425,0.0675 -0.0795,2.59636 -0.0674,5.38016 -0.0674,8.03659 0.30201,0.21083 0.62187,0 0.87676,0 0.22331,-2.83497 -0.41878,-5.49235 -0.0674,-8.30667 0.6056,0.14376 1.45312,0.2287 1.88846,0.33767 0.0198,2.51849 -0.0368,5.98592 0.20234,7.90147 0.45749,-0.21506 0.91197,-0.12222 1.34893,-0.0675"
         style="fill:none;fill-rule:evenodd;stroke:#000000;stroke-width:0.31386432px;stroke-linecap:butt;stroke-linejoin:miter;stroke-opacity:1" />
    </g>
    <path
       style="fill:none;fill-rule:evenodd;stroke:#000000;stroke-width:0.26458332px;stroke-linecap:butt;stroke-linejoin:miter;stroke-opacity:1"
       d="m 189.93943,165.59077 c -0.59609,-1.19372 -0.3856,-2.57056 0.19077,-3.72479 3.52681,-7.06276 9.72801,6.51811 2.3846,4.67987 -1.39776,-0.34989 -2.83651,-0.55821 -2.95691,-2.38768 -2.07129,-0.0428 -4.86319,0 -6.39071,0 -0.81887,5.11269 0.5727,10.59816 0,15.18567 1.81749,-0.21752 4.86086,0.15567 6.10456,0 0.30546,1.05821 0.78538,1.55047 1.52615,2.29218 2.73696,2.74053 7.57558,-1.20127 4.95996,-3.82029 -2.56877,-2.57211 -7.11909,-1.60332 -6.00918,2.10117"
       id="path2557"
       inkscape:connector-curvature="0" />
    <path
       style="fill:none;fill-rule:evenodd;stroke:#000000;stroke-width:0.26458332px;stroke-linecap:butt;stroke-linejoin:miter;stroke-opacity:1"
       d="m 192.22864,152.79277 c -0.12404,2.33547 0.23848,4.91213 0.23848,6.99593"
       id="path2559"
       inkscape:connector-curvature="0"
       sodipodi:nodetypes="cc" />
    <path
       style="fill:none;fill-rule:evenodd;stroke:#000000;stroke-width:0.26458332px;stroke-linecap:butt;stroke-linejoin:miter;stroke-opacity:1"
       d="m 190.22558,152.79277 c 1.09915,0.31418 2.82803,0.29342 3.62459,0.38203"
       id="path2561"
       inkscape:connector-curvature="0" />
    <path
       style="fill:none;fill-rule:evenodd;stroke:#000000;stroke-width:0.26458332px;stroke-linecap:butt;stroke-linejoin:miter;stroke-opacity:1"
       d="m 193.01878,182.65271 c 0.92326,3.25293 -0.17211,7.13431 0.25342,10.54349"
       id="path2563"
       inkscape:connector-curvature="0"
       sodipodi:nodetypes="cc" />
    <path
       style="fill:none;fill-rule:evenodd;stroke:#000000;stroke-width:0.26458332px;stroke-linecap:butt;stroke-linejoin:miter;stroke-opacity:1"
       d="m 191.78838,193.1962 c 0.95029,0.10221 2.78653,0.2137 3.23742,0.27014"
       id="path2565"
       inkscape:connector-curvature="0" />
    <path
       style="fill:none;fill-rule:evenodd;stroke:#000000;stroke-width:0.26458332px;stroke-linecap:butt;stroke-linejoin:miter;stroke-opacity:1"
       d="m 193.20884,166.69901 c 0.0937,3.16945 -0.12933,7.30555 -0.42852,9.70172"
       id="path2567"
       inkscape:connector-curvature="0"
       sodipodi:nodetypes="cc" />
    <path
       style="fill:none;fill-rule:evenodd;stroke:#000000;stroke-width:0.26458332px;stroke-linecap:butt;stroke-linejoin:miter;stroke-opacity:1"
       d="m 192.73672,176.43959 c -0.089,0.23148 0.23352,1.3911 0.0635,1.56147 -0.26892,0.26927 -1.96181,-0.46102 -2.22574,0.0675 -0.0538,0.10782 0.2665,2.63052 0.40469,2.76889 0.34846,0.34892 1.74237,-0.34892 2.09084,0 0.0759,0.076 0,2.0201 0,2.02602"
       id="path2569"
       inkscape:connector-curvature="0"
       sodipodi:nodetypes="cccssc" />
    <path
       style="fill:none;fill-rule:evenodd;stroke:#000000;stroke-width:0.26458332px;stroke-linecap:butt;stroke-linejoin:miter;stroke-opacity:1"
       d="m 192.05815,178.87901 c 0.63909,0.50135 1.01168,0.38592 0.26979,0.8104"
       id="path2573"
       inkscape:connector-curvature="0" />
    <path
       style="fill:none;fill-rule:evenodd;stroke:#000000;stroke-width:0.26458332px;stroke-linecap:butt;stroke-linejoin:miter;stroke-opacity:1"
       d="m 191.2488,179.41927 c 0.39288,-0.001 1.10086,0 1.28148,0"
       id="path2575"
       inkscape:connector-curvature="0" />
    <path
       style="fill:none;fill-rule:evenodd;stroke:#000000;stroke-width:0.26458332px;stroke-linecap:butt;stroke-linejoin:miter;stroke-opacity:1"
       d="m 193.0501,179.24875 c 0.1673,0.62984 0.0197,1.00046 0.0197,1.25107"
       id="path2577"
       inkscape:connector-curvature="0"
       sodipodi:nodetypes="cc" />
    <path
       style="fill:none;fill-rule:evenodd;stroke:#000000;stroke-width:0.26458332px;stroke-linecap:butt;stroke-linejoin:miter;stroke-opacity:1"
       d="m 192.48259,159.86918 c 0.48784,2.11842 -0.88372,1.23552 -1.70592,2.05879 -0.0948,0.0949 -0.0551,2.64617 0.13494,2.83643 0.0957,0.0957 2.09084,-0.27296 2.09084,-0.13512 0,0.54215 0.0984,1.50077 0.23032,2.02674"
       id="path2579"
       inkscape:connector-curvature="0"
       sodipodi:nodetypes="cscsc" />
    <path
       style="fill:none;fill-rule:evenodd;stroke:#000000;stroke-width:0.26458332px;stroke-linecap:butt;stroke-linejoin:miter;stroke-opacity:1"
       d="m 191.99071,162.67085 c -0.98429,0.76964 -0.47185,0.86782 0.33314,1.13648"
       id="path2581"
       inkscape:connector-curvature="0"
       sodipodi:nodetypes="cc" />
    <path
       style="fill:none;fill-rule:evenodd;stroke:#000000;stroke-width:0.26458332px;stroke-linecap:butt;stroke-linejoin:miter;stroke-opacity:1"
       d="m 191.58604,163.21111 c 1.62002,0.0613 1.43202,0.0314 1.43202,1.57717"
       id="path2583"
       inkscape:connector-curvature="0"
       sodipodi:nodetypes="cc" />
    <path
       style="fill:none;fill-rule:evenodd;stroke:#000000;stroke-width:0.26458332px;stroke-linecap:butt;stroke-linejoin:miter;stroke-opacity:1"
       d="m 183.9808,153.27521 c 0.6269,0.0621 1.89968,0.17814 2.22671,0.17814"
       id="path2596"
       inkscape:connector-curvature="0" />
    <path
       style="fill:none;fill-rule:evenodd;stroke:#000000;stroke-width:0.26458332px;stroke-linecap:butt;stroke-linejoin:miter;stroke-opacity:1"
       d="m 185.04962,152.38453 c 0.0454,0.66141 -0.47568,1.75103 0,2.22671"
       id="path2598"
       inkscape:connector-curvature="0" />
    <path
       style="fill:none;fill-rule:evenodd;stroke:#000000;stroke-width:0.26458332px;stroke-linecap:butt;stroke-linejoin:miter;stroke-opacity:1"
       d="m 186.83099,152.29546 c 0.83118,5.02174 1.30938,1.12211 2.13765,-0.53441"
       id="path2600"
       inkscape:connector-curvature="0" />
    <path
       style="fill:none;fill-rule:evenodd;stroke:#000000;stroke-width:0.26458332px;stroke-linecap:butt;stroke-linejoin:miter;stroke-opacity:1"
       d="m 185.22776,193.89047 c 0.38827,-0.0603 2.20553,-0.17814 1.6923,-0.17814"
       id="path2602"
       inkscape:connector-curvature="0" />
    <path
       style="fill:none;fill-rule:evenodd;stroke:#000000;stroke-width:0.26458332px;stroke-linecap:butt;stroke-linejoin:miter;stroke-opacity:1"
       d="m 187.98888,192.46537 c 0.12468,5.81231 2.47029,0.28539 2.31579,-0.17814"
       id="path2604"
       inkscape:connector-curvature="0" />
    <path
       style="fill:none;fill-rule:evenodd;stroke:#000000;stroke-width:0.26458332px;stroke-linecap:butt;stroke-linejoin:miter;stroke-opacity:1"
       d="m 193.01453,171.83012 c 8.96182,-0.0956 34.61777,0.67824 42.93633,0.1705"
       id="path2610"
       inkscape:connector-curvature="0"
       sodipodi:nodetypes="cc" />
    <g
       id="g2634"
       transform="matrix(1,0,0,1.3160357,0,-55.182094)"
       style="stroke-width:0.8716982">
      <path
         inkscape:connector-curvature="0"
         id="path2618"
         d="m 213.10156,179.66184 c -5.1406,0 -10.21822,-0.0141 -15.36167,0.005"
         style="fill:none;fill-rule:evenodd;stroke:#000000;stroke-width:0.23063681px;stroke-linecap:butt;stroke-linejoin:miter;stroke-opacity:1"
         sodipodi:nodetypes="cc" />
      <path
         sodipodi:nodetypes="cccccccccccccccccccccc"
         inkscape:connector-curvature="0"
         id="path2620"
         d="m 198.1904,183.26564 c 0.37604,0.0516 0.72222,0 1.14659,0 -0.0421,-2.63454 -0.26977,-5.46915 -0.26977,-7.63134 0.6235,-0.2647 1.33635,-0.0892 1.75361,0.0675 -0.0891,2.47976 0.36761,5.21355 -0.20234,7.49632 0.48697,0.27305 0.7423,0.13512 1.28148,0.13512 0.15946,-2.58103 -0.0674,-5.47314 -0.0674,-7.76645 0.39496,0.17707 0.79418,0.13511 1.21398,0.13511 -0.0883,2.50409 -0.0674,5.0891 -0.0674,7.69882 0.82804,-0.11389 1.70593,-0.20011 2.22569,-0.13512 0.20418,-2.53465 -0.24367,-5.20668 -0.0337,-7.73259 0.28954,-0.17512 0.54741,0.0156 0.77566,0.10133 0.20038,2.79882 0.12615,5.29881 0.20235,7.49623 0.45131,0.35905 0.96383,0.27013 1.55126,0.27013 0.0766,-2.48984 0,-5.89081 0,-8.10407 0.35973,-0.003 0.60893,0.0256 0.94425,0.0675 -0.0795,2.59636 -0.0674,5.38016 -0.0674,8.03659 0.30201,0.21083 0.62187,0 0.87676,0 0.22331,-2.83497 -0.41878,-5.49235 -0.0674,-8.30667 0.6056,0.14376 1.45312,0.2287 1.88846,0.33767 0.0198,2.51849 -0.0368,5.98592 0.20234,7.90147 0.45749,-0.21506 0.91197,-0.12222 1.34893,-0.0675"
         style="fill:none;fill-rule:evenodd;stroke:#000000;stroke-width:0.23063681px;stroke-linecap:butt;stroke-linejoin:miter;stroke-opacity:1" />
      <rect
         y="174.60713"
         x="197.55771"
         height="4.9433022"
         width="16.187555"
         id="rect2622"
         style="opacity:1;fill:#ffffff;fill-opacity:1;fill-rule:nonzero;stroke:none;stroke-width:0.23100002;stroke-linecap:round;stroke-linejoin:round;stroke-miterlimit:4;stroke-dasharray:none;stroke-dashoffset:0;stroke-opacity:1" />
    </g>
    <g
       id="g2629"
       transform="matrix(1,0,0,1.2965823,0,-50.107962)"
       style="stroke-width:0.87821317">
      <path
         sodipodi:nodetypes="cc"
         style="fill:none;fill-rule:evenodd;stroke:#000000;stroke-width:0.23236056px;stroke-linecap:butt;stroke-linejoin:miter;stroke-opacity:1"
         d="m 213.16454,164.63548 c -5.1406,0 -10.2812,0.0228 -15.42465,0.0416"
         id="path2614"
         inkscape:connector-curvature="0" />
      <path
         style="fill:none;fill-rule:evenodd;stroke:#000000;stroke-width:0.23236056px;stroke-linecap:butt;stroke-linejoin:miter;stroke-opacity:1"
         d="m 198.1904,168.27617 c 0.37604,0.0516 0.72222,0 1.14659,0 -0.0421,-2.63454 -0.26977,-5.46915 -0.26977,-7.63134 0.6235,-0.2647 1.33635,-0.0892 1.75361,0.0675 -0.0891,2.47976 0.36761,5.21355 -0.20234,7.49632 0.48697,0.27305 0.7423,0.13512 1.28148,0.13512 0.15946,-2.58103 -0.0674,-5.47314 -0.0674,-7.76645 0.39496,0.17707 0.79418,0.13511 1.21398,0.13511 -0.0883,2.50409 -0.0674,5.0891 -0.0674,7.69882 0.82804,-0.11389 1.70593,-0.20011 2.22569,-0.13512 0.20418,-2.53465 -0.24367,-5.20668 -0.0337,-7.73259 0.28954,-0.17512 0.54741,0.0156 0.77566,0.10133 0.20038,2.79882 0.12615,5.29881 0.20235,7.49623 0.45131,0.35905 0.96383,0.27013 1.55126,0.27013 0.0766,-2.48984 0,-5.89081 0,-8.10407 0.35973,-0.003 0.60893,0.0256 0.94425,0.0675 -0.0795,2.59636 -0.0674,5.38016 -0.0674,8.03659 0.30201,0.21083 0.62187,0 0.87676,0 0.22331,-2.83497 -0.41878,-5.49235 -0.0674,-8.30667 0.6056,0.14376 1.45312,0.2287 1.88846,0.33767 0.0198,2.51849 -0.0368,5.98592 0.20234,7.90147 0.45749,-0.21506 0.91197,-0.12222 1.34893,-0.0675"
         id="path2616"
         inkscape:connector-curvature="0"
         sodipodi:nodetypes="cccccccccccccccccccccc" />
      <rect
         style="opacity:1;fill:#ffffff;fill-opacity:1;fill-rule:nonzero;stroke:none;stroke-width:0.23272648;stroke-linecap:round;stroke-linejoin:round;stroke-miterlimit:4;stroke-dasharray:none;stroke-dashoffset:0;stroke-opacity:1"
         id="rect2624"
         width="15.875809"
         height="4.230762"
         x="197.55771"
         y="164.72052" />
    </g>
    <circle
       id="path2636"
       style="fill:#000000;stroke:none"
       cx="193.1405"
       cy="171.70416"
       r="0.5" />
    <path
       style="fill:none;fill-rule:evenodd;stroke:#000000;stroke-width:0.26499999;stroke-linecap:butt;stroke-linejoin:miter;stroke-opacity:1;stroke-miterlimit:4;stroke-dasharray:1.58999992,1.58999992;stroke-dashoffset:0"
       d="m 175.04498,147.39669 c 1.95931,18.29911 -1.02231,37.42462 1.06882,54.15367"
       id="path2646"
       inkscape:connector-curvature="0" />
    <path
       inkscape:connector-curvature="0"
       id="path3453"
       d="m 222.40667,147.39669 c -0.43397,20.3145 -0.0146,37.29866 1.06882,54.15367"
       style="fill:none;fill-rule:evenodd;stroke:#000000;stroke-width:0.26499999;stroke-linecap:butt;stroke-linejoin:miter;stroke-miterlimit:4;stroke-dasharray:1.58999992, 1.58999992;stroke-dashoffset:0;stroke-opacity:1"
       sodipodi:nodetypes="cc" />
    <path
       style="fill:none;fill-rule:evenodd;stroke:#000000;stroke-width:0.26458332px;stroke-linecap:butt;stroke-linejoin:miter;stroke-opacity:1"
       d="m 236.06602,172.08205 c -0.41996,-1.53111 0.15978,-3.61909 1.63751,-2.14136 0.43067,0.43068 0.13743,1.28256 0.37788,1.76347 0.0594,0.11876 0.25874,0.37789 0.12597,0.37789 -0.33255,0 0.23757,-2.70101 0.62981,-2.89713 0.46592,-0.23296 1.84498,2.89713 1.25962,2.89713 -0.51615,0 0.10856,-3.6703 1.25962,-2.51924 0.0892,0.0892 1.08916,2.51924 0.88173,2.51924 -0.40668,0 -0.0713,-3.47231 0.88173,-2.51924 1.05997,1.05997 1.47377,2.39328 1.13366,2.39328 -0.16676,0 0.20313,-2.21853 0.25192,-2.26732 0.6054,-0.60539 1.14958,0.66164 1.25962,0.88173 0.207,0.414 0.12597,1.29699 0.12597,1.51155 7.45815,0.21648 32.26096,-0.25193 39.31368,-0.25193"
       id="path3455"
       inkscape:connector-curvature="0"
       sodipodi:nodetypes="cccssssscscccc" />
    <path
       style="fill:none;fill-rule:evenodd;stroke:#000000;stroke-width:0.26458332px;stroke-linecap:butt;stroke-linejoin:miter;stroke-opacity:1"
       d="m 250.0525,172.08205 c -0.30461,2.73797 0.67422,7.80235 -0.12597,10.20292"
       id="path3457"
       inkscape:connector-curvature="0" />
    <path
       style="fill:none;fill-rule:evenodd;stroke:#000000;stroke-width:0.26458332px;stroke-linecap:butt;stroke-linejoin:miter;stroke-opacity:1"
       d="m 246.52556,182.03304 c 1.97305,0.22547 5.20424,-0.49058 6.67599,0"
       id="path3459"
       inkscape:connector-curvature="0" />
    <path
       style="fill:none;fill-rule:evenodd;stroke:#000000;stroke-width:0.26458332px;stroke-linecap:butt;stroke-linejoin:miter;stroke-opacity:1"
       d="m 246.52556,183.1667 c 1.72104,0.58637 5.90129,-0.64873 6.80195,0.25192"
       id="path3461"
       inkscape:connector-curvature="0" />
    <path
       style="fill:none;fill-rule:evenodd;stroke:#000000;stroke-width:0.26458332px;stroke-linecap:butt;stroke-linejoin:miter;stroke-opacity:1"
       d="m 250.0525,183.29266 c 0.005,3.42439 0.25192,6.24084 0.25192,9.69907"
       id="path3463"
       inkscape:connector-curvature="0" />
    <path
       style="fill:none;fill-rule:evenodd;stroke:#000000;stroke-width:0.26458332px;stroke-linecap:butt;stroke-linejoin:miter;stroke-opacity:1"
       d="m 248.3229,193.09026 c 1.4502,0.0975 2.97619,-0.29896 4.35449,0.20954"
       id="path3465"
       inkscape:connector-curvature="0" />
    <path
       inkscape:connector-curvature="0"
       id="path3467"
       d="m 102.4909,147.39669 c 1.95931,18.29911 0.74116,39.94386 1.06882,54.15367"
       style="fill:none;fill-rule:evenodd;stroke:#000000;stroke-width:0.26499999;stroke-linecap:butt;stroke-linejoin:miter;stroke-miterlimit:4;stroke-dasharray:1.58999992, 1.58999992;stroke-dashoffset:0;stroke-opacity:1"
       sodipodi:nodetypes="cc" />
    <path
       style="fill:none;fill-rule:evenodd;stroke:#000000;stroke-width:0.26458332px;stroke-linecap:butt;stroke-linejoin:miter;stroke-opacity:1"
       d="m 290.12154,166.99177 c -1.48991,-0.14899 -3.41871,-0.3645 -4.98784,0.53441 0.60659,4.77394 -0.28303,9.63935 0.17813,14.25097 1.62671,-0.8107 3.01214,-0.34008 4.63157,-0.17814 0.95529,-4.77641 -0.85798,-9.71803 0.17814,-14.60724 z"
       id="path3475"
       inkscape:connector-curvature="0" />
    <path
       style="fill:none;fill-rule:evenodd;stroke:#000000;stroke-width:0.26458332px;stroke-linecap:butt;stroke-linejoin:miter;stroke-opacity:1"
       d="m 290.12154,166.99177 c 3.22123,-2.4507 7.47095,-7.64908 9.26313,-9.44127"
       id="path3477"
       inkscape:connector-curvature="0" />
    <path
       style="fill:none;fill-rule:evenodd;stroke:#000000;stroke-width:0.26458332px;stroke-linecap:butt;stroke-linejoin:miter;stroke-opacity:1"
       d="m 289.76526,181.77715 c 3.5898,2.8603 7.91817,7.40825 10.15382,9.08499"
       id="path3479"
       inkscape:connector-curvature="0" />
    <path
       style="fill:none;fill-rule:evenodd;stroke:#000000;stroke-width:0.26458332px;stroke-linecap:butt;stroke-linejoin:miter;stroke-opacity:1"
       d="m 299.74093,157.37237 c -0.25934,11.44586 -0.17812,24.8202 -0.17812,33.6679"
       id="path3481"
       inkscape:connector-curvature="0" />
    <path
       style="fill:none;fill-rule:evenodd;stroke:#000000;stroke-width:0.26458332px;stroke-linecap:butt;stroke-linejoin:miter;stroke-opacity:1"
       d="m 284.77742,176.61117 c -1.57014,0.42338 -3.79194,0.2621 -4.63156,0.17814 -0.94416,4.98344 0.51819,10.31606 0,15.49792"
       id="path3489"
       inkscape:connector-curvature="0" />
    <path
       style="fill:none;fill-rule:evenodd;stroke:#000000;stroke-width:0.26458332px;stroke-linecap:butt;stroke-linejoin:miter;stroke-opacity:1"
       d="m 277.4738,192.46537 c 1.70589,0.40633 4.51154,-0.0949 5.34411,-0.17814"
       id="path3491"
       inkscape:connector-curvature="0" />
    <path
       style="fill:none;fill-rule:evenodd;stroke:#000000;stroke-width:0.26458332px;stroke-linecap:butt;stroke-linejoin:miter;stroke-opacity:1"
       d="m 65.312537,181.24273 c 5.848178,-0.76849 14.684314,-0.45544 19.238803,0 0.364569,4.20473 0.251926,5.98171 0.251926,10.41469"
       id="path3493"
       inkscape:connector-curvature="0"
       sodipodi:nodetypes="ccc" />
    <path
       style="fill:none;fill-rule:evenodd;stroke:#000000;stroke-width:0.26458332px;stroke-linecap:butt;stroke-linejoin:miter;stroke-opacity:1"
       d="m 81.701148,191.57468 c 2.256404,0 4.512805,0 6.769209,0"
       id="path3495"
       inkscape:connector-curvature="0" />
    <path
       style="fill:none;fill-rule:evenodd;stroke:#000000;stroke-width:0.26458332px;stroke-linecap:butt;stroke-linejoin:miter;stroke-opacity:1"
       d="m 65.312537,181.42087 c -1.556809,-2.30234 -2.796106,2.09708 0,0 z"
       id="path3499"
       inkscape:connector-curvature="0" />
    <path
       style="fill:none;fill-rule:evenodd;stroke:#000000;stroke-width:0.26458332px;stroke-linecap:butt;stroke-linejoin:miter;stroke-opacity:1"
       d="m 64.243713,162.89461 c -2.072177,-2.32006 -2.970612,2.22796 0,0 z"
       id="path3503"
       inkscape:connector-curvature="0" />
    <path
       style="fill:none;fill-rule:evenodd;stroke:#000000;stroke-width:0.26458332px;stroke-linecap:butt;stroke-linejoin:miter;stroke-opacity:1"
       d="m 83.175721,192.86577 c 1.331826,0.25635 2.663616,0.002 3.904819,0.12596"
       id="path3505"
       inkscape:connector-curvature="0" />
    <path
       style="fill:none;fill-rule:evenodd;stroke:#000000;stroke-width:0.26458332px;stroke-linecap:butt;stroke-linejoin:miter;stroke-opacity:1"
       d="m 84.435339,194.50327 c 0.294521,-0.0375 0.587822,0.084 0.881735,0.12597"
       id="path3507"
       inkscape:connector-curvature="0" />
    <path
       style="fill:none;fill-rule:evenodd;stroke:#000000;stroke-width:0.26458332px;stroke-linecap:butt;stroke-linejoin:miter;stroke-opacity:1"
       d="m 249.22849,194.0686 c 0.83347,-0.11292 2.48892,-5.2e-4 2.49392,0"
       id="path3511"
       inkscape:connector-curvature="0" />
    <path
       style="fill:none;fill-rule:evenodd;stroke:#000000;stroke-width:0.26458332px;stroke-linecap:butt;stroke-linejoin:miter;stroke-opacity:1"
       d="m 249.94104,194.95929 c 0.30262,0.0464 0.50139,0.0557 0.80162,0.0891"
       id="path3513"
       inkscape:connector-curvature="0" />
    <path
       style="fill:none;fill-rule:evenodd;stroke:#000000;stroke-width:0.26458332px;stroke-linecap:butt;stroke-linejoin:miter;stroke-opacity:1"
       d="m 278.54263,193.44512 c 0.90652,-0.0791 1.87837,0.0338 2.67205,0.17814"
       id="path3515"
       inkscape:connector-curvature="0" />
    <path
       style="fill:none;fill-rule:evenodd;stroke:#000000;stroke-width:0.26458332px;stroke-linecap:butt;stroke-linejoin:miter;stroke-opacity:1"
       d="m 279.43331,194.42488 c 0.20214,-0.0483 0.41565,0 0.62348,0"
       id="path3517"
       inkscape:connector-curvature="0" />
    <path
       style="fill:none;fill-rule:evenodd;stroke:#000000;stroke-width:0.26458332px;stroke-linecap:butt;stroke-linejoin:miter;stroke-opacity:1"
       d="m 108.1545,182.04435 12.02426,-0.17814"
       id="path3521"
       inkscape:connector-curvature="0" />
    <g
       style="stroke-width:0.88139629"
       transform="matrix(1,0,0,1.2872342,68.272349,-48.813191)"
       id="g3665">
      <path
         sodipodi:nodetypes="cc"
         style="fill:none;fill-rule:evenodd;stroke:#000000;stroke-width:0.23320276px;stroke-linecap:butt;stroke-linejoin:miter;stroke-opacity:1"
         d="m 171.42051,164.54641 c -5.1406,0 -10.2812,0.11191 -15.42465,0.13071"
         id="path3661"
         inkscape:connector-curvature="0" />
      <path
         style="fill:none;fill-rule:evenodd;stroke:#000000;stroke-width:0.23320276px;stroke-linecap:butt;stroke-linejoin:miter;stroke-opacity:1"
         d="m 156.44637,168.27617 c 0.37604,0.0516 0.72222,0 1.14659,0 -0.0421,-2.63454 -0.26977,-5.46915 -0.26977,-7.63134 0.6235,-0.2647 1.33635,-0.0892 1.75361,0.0675 -0.0891,2.47976 0.36761,5.21355 -0.20234,7.49632 0.48697,0.27305 0.7423,0.13512 1.28148,0.13512 0.15946,-2.58103 -0.0674,-5.47314 -0.0674,-7.76645 0.39496,0.17707 0.79418,0.13511 1.21398,0.13511 -0.0883,2.50409 -0.0674,5.0891 -0.0674,7.69882 0.82804,-0.11389 1.70593,-0.20011 2.22569,-0.13512 0.20418,-2.53465 -0.24367,-5.20668 -0.0337,-7.73259 0.28954,-0.17512 0.54741,0.0156 0.77566,0.10133 0.20038,2.79882 0.12615,5.29881 0.20235,7.49623 0.45131,0.35905 0.96383,0.27013 1.55126,0.27013 0.0766,-2.48984 0,-5.89081 0,-8.10407 0.35973,-0.003 0.60893,0.0256 0.94425,0.0675 -0.0795,2.59636 -0.0674,5.38016 -0.0674,8.03659 0.30201,0.21083 0.62187,0 0.87676,0 0.22331,-2.83497 -0.41878,-5.49235 -0.0674,-8.30667 0.6056,0.14376 1.45312,0.2287 1.88846,0.33767 0.0198,2.51849 -0.0368,5.98592 0.20234,7.90147 0.45749,-0.21506 0.91197,-0.12222 1.34893,-0.0675"
         id="path3663"
         inkscape:connector-curvature="0"
         sodipodi:nodetypes="cccccccccccccccccccccc" />
    </g>
  </g>
</svg>
