<?xml version="1.0" encoding="UTF-8" standalone="no"?>
<!-- Created with Inkscape (http://www.inkscape.org/) -->

<svg
   xmlns:dc="http://purl.org/dc/elements/1.1/"
   xmlns:cc="http://creativecommons.org/ns#"
   xmlns:rdf="http://www.w3.org/1999/02/22-rdf-syntax-ns#"
   xmlns:svg="http://www.w3.org/2000/svg"
   xmlns="http://www.w3.org/2000/svg"
   xmlns:sodipodi="http://sodipodi.sourceforge.net/DTD/sodipodi-0.dtd"
   xmlns:inkscape="http://www.inkscape.org/namespaces/inkscape"
   width="29.700001cm"
   height="17.181641cm"
   viewBox="0 0 297 171.81641"
   version="1.1"
   id="svg8"
   sodipodi:docname="text-lcd-i2c.svg"
   inkscape:version="0.92.4 5da689c313, 2019-01-14">
  <defs
     id="defs2" />
  <sodipodi:namedview
     id="base"
     pagecolor="#ffffff"
     bordercolor="#666666"
     borderopacity="1.0"
     inkscape:pageopacity="0.0"
     inkscape:pageshadow="2"
     inkscape:zoom="0.52512555"
     inkscape:cx="559.67939"
     inkscape:cy="289.36056"
     inkscape:document-units="mm"
     inkscape:current-layer="layer1"
     showgrid="true"
     inkscape:snap-global="false"
     inkscape:window-width="1366"
     inkscape:window-height="768"
     inkscape:window-x="0"
     inkscape:window-y="0"
     inkscape:window-maximized="1"
     units="cm"
     fit-margin-top="1"
     fit-margin-bottom="1"
     fit-margin-left="0"
     fit-margin-right="0">
    <inkscape:grid
       type="xygrid"
       id="grid1021"
       units="cm"
       spacingx="5"
       spacingy="5"
       empspacing="1"
       empcolor="#0000ff"
       empopacity="0.10588235"
       originx="-30.397667"
       originy="-87.255341" />
  </sodipodi:namedview>
  <metadata
     id="metadata5">
    <rdf:RDF>
      <cc:Work
         rdf:about="">
        <dc:format>image/svg+xml</dc:format>
        <dc:type
           rdf:resource="http://purl.org/dc/dcmitype/StillImage" />
        <dc:title></dc:title>
      </cc:Work>
    </rdf:RDF>
  </metadata>
  <g
     inkscape:label="Layer 1"
     inkscape:groupmode="layer"
     id="layer1"
     transform="translate(-30.397668,-37.928303)">
    <path
       style="fill:none;fill-rule:evenodd;stroke:#000000;stroke-width:0.26458332px;stroke-linecap:butt;stroke-linejoin:miter;stroke-opacity:1"
       d="m 47.707897,110.38814 c 2.651826,-0.0855 6.18154,-0.18925 7.167086,0.79656"
       id="path4646"
       inkscape:connector-curvature="0" />
    <path
       style="fill:none;fill-rule:evenodd;stroke:#000000;stroke-width:0.26458332px;stroke-linecap:butt;stroke-linejoin:miter;stroke-opacity:1"
       d="m 47.309726,118.75202 c 1.765781,-1.12473 9.70372,-0.27297 8.361598,0.39828"
       id="path4648"
       inkscape:connector-curvature="0" />
    <path
       style="fill:none;fill-rule:evenodd;stroke:#000000;stroke-width:0.26458332px;stroke-linecap:butt;stroke-linejoin:miter;stroke-opacity:1"
       d="m 47.707897,126.31935 c 2.725911,-0.13799 7.980151,0.009 8.75977,0.39828"
       id="path4650"
       inkscape:connector-curvature="0" />
    <path
       style="fill:none;fill-rule:evenodd;stroke:#000000;stroke-width:0.26458332px;stroke-linecap:butt;stroke-linejoin:miter;stroke-opacity:1"
       d="m 50.096927,137.86946 c 1.830712,-0.68359 9.106577,-0.57172 7.963428,0"
       id="path4652"
       inkscape:connector-curvature="0" />
    <path
       style="fill:none;fill-rule:evenodd;stroke:#000000;stroke-width:0.26458332px;stroke-linecap:butt;stroke-linejoin:miter;stroke-opacity:1"
       d="m 49.698756,144.64024 c 1.724489,-1.28886 11.560503,-0.79656 8.759772,-0.79656"
       id="path4654"
       inkscape:connector-curvature="0" />
    <path
       style="fill:none;fill-rule:evenodd;stroke:#000000;stroke-width:0.26458332px;stroke-linecap:butt;stroke-linejoin:miter;stroke-opacity:1"
       d="m 51.291441,153.80067 c 2.372421,-0.28129 4.778054,0 7.167087,0"
       id="path4656"
       inkscape:connector-curvature="0" />
    <path
       style="fill:none;fill-rule:evenodd;stroke:#000000;stroke-width:0.26458332px;stroke-linecap:butt;stroke-linejoin:miter;stroke-opacity:1"
       d="m 50.893268,162.96112 c 2.078483,-1.04815 4.048208,-1.59311 6.370743,-1.59311"
       id="path4658"
       inkscape:connector-curvature="0" />
    <path
       style="fill:none;fill-rule:evenodd;stroke:#000000;stroke-width:0.26458332px;stroke-linecap:butt;stroke-linejoin:miter;stroke-opacity:1"
       d="m 51.291441,172.51985 c 2.306863,-2.08165 6.212454,-1.7131 8.361603,-2.78796"
       id="path4660"
       inkscape:connector-curvature="0" />
    <path
       style="fill:none;fill-rule:evenodd;stroke:#000000;stroke-width:0.26458332px;stroke-linecap:butt;stroke-linejoin:miter;stroke-opacity:1"
       d="m 51.689612,179.29061 c 2.093739,-0.53343 4.210153,-1.19483 6.370743,-1.19483"
       id="path4662"
       inkscape:connector-curvature="0" />
    <g
       style="stroke-width:0.67115068"
       id="g4792"
       transform="matrix(1.439012,-0.38568748,0.38558209,1.4394053,-64.452547,-141.9643)">
      <g
         style="stroke-width:0.67115068"
         id="g4736"
         transform="rotate(2.4286334,56.522939,176.53944)">
        <path
           style="fill:none;fill-rule:evenodd;stroke:#000000;stroke-width:0.17757528px;stroke-linecap:butt;stroke-linejoin:miter;stroke-opacity:1"
           d="m 43.832203,167.90882 c 1.149455,0.0419 -2.928054,9.88897 -2.138156,9.88897 0.24416,0 2.405425,-9.01225 2.405425,-7.75081 0,2.22002 1.761355,6.87014 0.53454,7.48355"
           id="path4664"
           inkscape:connector-curvature="0" />
        <path
           style="fill:none;fill-rule:evenodd;stroke:#000000;stroke-width:0.17757528px;stroke-linecap:butt;stroke-linejoin:miter;stroke-opacity:1"
           d="m 41.694047,175.1251 c 1.236331,-0.088 6.448358,-1.62056 4.810849,-0.80181"
           id="path4666"
           inkscape:connector-curvature="0" />
        <path
           style="fill:none;fill-rule:evenodd;stroke:#000000;stroke-width:0.17757528px;stroke-linecap:butt;stroke-linejoin:miter;stroke-opacity:1"
           d="m 47.573975,174.05602 c 1.261467,6.60333 -0.712807,1.39577 2.672696,0.26727"
           id="path4668"
           inkscape:connector-curvature="0" />
        <path
           style="fill:none;fill-rule:evenodd;stroke:#000000;stroke-width:0.17757528px;stroke-linecap:butt;stroke-linejoin:miter;stroke-opacity:1"
           d="m 53.721174,175.1251 c -3.07018,-0.84606 -5.127098,6.19617 -1.069078,2.13816"
           id="path4670"
           inkscape:connector-curvature="0" />
        <path
           style="fill:none;fill-rule:evenodd;stroke:#000000;stroke-width:0.17757528px;stroke-linecap:butt;stroke-linejoin:miter;stroke-opacity:1"
           d="m 55.057521,170.84879 c -0.688253,1.89746 -1.069078,5.62348 -1.069078,6.949"
           id="path4672"
           inkscape:connector-curvature="0" />
        <path
           style="fill:none;fill-rule:evenodd;stroke:#000000;stroke-width:0.17757528px;stroke-linecap:butt;stroke-linejoin:miter;stroke-opacity:1"
           d="m 56.928408,174.32329 c -2.120736,7.91493 4.319254,-2.75857 2.138156,1.60362 -0.284538,0.56907 -0.05583,1.44801 -0.267269,1.87088"
           id="path4674"
           inkscape:connector-curvature="0" />
        <path
           style="fill:none;fill-rule:evenodd;stroke:#000000;stroke-width:0.17757528px;stroke-linecap:butt;stroke-linejoin:miter;stroke-opacity:1"
           d="m 62.273798,174.59056 c -0.204396,0.88525 -0.128225,1.86007 -0.534537,2.6727"
           id="path4676"
           inkscape:connector-curvature="0" />
        <path
           style="fill:none;fill-rule:evenodd;stroke:#000000;stroke-width:0.17757528px;stroke-linecap:butt;stroke-linejoin:miter;stroke-opacity:1"
           d="m 64.144686,174.59056 c -0.157549,0.23707 -0.914649,4.00904 -1.336347,4.00904 -1.152332,0 2.899505,-3.78223 3.474503,-3.20723 0.835601,0.8356 -0.782262,4.77176 -0.267269,3.74177"
           id="path4680"
           inkscape:connector-curvature="0" />
        <path
           style="fill:none;fill-rule:evenodd;stroke:#000000;stroke-width:0.17757528px;stroke-linecap:butt;stroke-linejoin:miter;stroke-opacity:1"
           d="m 67.88646,176.72872 c -3.713496,7.45199 9.776415,-2.44411 0,0 z"
           id="path4684"
           inkscape:connector-curvature="0" />
      </g>
    </g>
    <path
       style="fill:none;fill-rule:evenodd;stroke:#000000;stroke-width:0.26458332px;stroke-linecap:butt;stroke-linejoin:miter;stroke-opacity:1"
       d="m 104.12072,100.44663 c -0.25918,0.0252 -0.0951,2.1122 -0.14078,2.1122 -0.3122,0 2.80944,-0.12876 2.11163,1.26732 -0.46774,0.93575 -4.00916,2.10634 -3.23783,0.56326"
       id="path4745"
       inkscape:connector-curvature="0" />
    <path
       style="fill:none;fill-rule:evenodd;stroke:#000000;stroke-width:0.26458332px;stroke-linecap:butt;stroke-linejoin:miter;stroke-opacity:1"
       d="m 103.97995,101.00989 c 0.69653,-0.007 3.04877,-0.53911 2.53395,-0.28163"
       id="path4747"
       inkscape:connector-curvature="0" />
    <path
       style="fill:none;fill-rule:evenodd;stroke:#000000;stroke-width:0.26458332px;stroke-linecap:butt;stroke-linejoin:miter;stroke-opacity:1"
       d="m 107.49932,102.13639 c 0.94938,5.38111 1.40829,0.28109 2.53394,-0.84487"
       id="path4749"
       inkscape:connector-curvature="0" />
    <path
       style="fill:none;fill-rule:evenodd;stroke:#000000;stroke-width:0.26458332px;stroke-linecap:butt;stroke-linejoin:miter;stroke-opacity:1"
       d="m 85.256895,183.10406 c -0.696351,-0.28148 -1.231567,0.0699 -1.548517,0.70406 -1.354965,2.71067 1.368224,1.52918 2.533943,2.1122"
       id="path4772"
       inkscape:connector-curvature="0" />
    <path
       style="fill:none;fill-rule:evenodd;stroke:#000000;stroke-width:0.26458332px;stroke-linecap:butt;stroke-linejoin:miter;stroke-opacity:1"
       d="m 84.553021,185.07543 c 1.384686,-1.01028 1.6893,-0.32553 1.6893,0.9857"
       id="path4774"
       inkscape:connector-curvature="0" />
    <path
       style="fill:none;fill-rule:evenodd;stroke:#000000;stroke-width:0.26458332px;stroke-linecap:butt;stroke-linejoin:miter;stroke-opacity:1"
       d="m 87.790838,185.92032 c -0.319378,-0.63897 -0.05721,-1.98403 -0.281538,-2.81626 0.479141,0.13441 0.666183,1.37043 0.985426,1.68976 0.431037,0.43115 0.638026,1.23439 1.266965,1.54894 0.02801,0.0134 0.355162,0.28163 0.281552,0.28163 -0.290312,0 0.460311,-3.96177 -0.140784,-3.66115"
       id="path4776"
       inkscape:connector-curvature="0" />
    <path
       style="fill:none;fill-rule:evenodd;stroke:#000000;stroke-width:0.26458332px;stroke-linecap:butt;stroke-linejoin:miter;stroke-opacity:1"
       d="m 91.450991,183.52649 c -0.09803,0.76336 -0.03128,2.58183 0,2.67546 1.650283,-1.1005 4.043353,-3.72922 0,-2.67546 z"
       id="path4778"
       inkscape:connector-curvature="0" />
    <path
       style="fill:none;fill-rule:evenodd;stroke:#000000;stroke-width:0.26458332px;stroke-linecap:butt;stroke-linejoin:miter;stroke-opacity:1"
       d="m 57.839347,99.661272 c 7.600772,-2.220759 16.181145,0.236 23.644529,-2.25247 3.549478,-1.183488 25.661654,-4.739733 28.898864,-1.501656 3.80965,3.810693 0.7506,26.171994 0.7506,30.408414 0,17.02935 -2.39345,36.88253 2.25187,52.18232 0.51156,1.02341 1.11789,9.76876 0.75061,10.13614 -2.19025,2.19085 -21.040416,1.87706 -24.770439,1.87706 -6.795221,0 -25.42624,4.22438 -30.775411,-1.12625 -0.58709,-0.58723 0,-12.72557 0,-14.26566 0,-21.90728 -7.196923,-56.1137 -0.750623,-75.457898 z"
       id="path5768"
       inkscape:connector-curvature="0"
       sodipodi:nodetypes="ccssccscsc" />
    <path
       style="fill:none;fill-rule:evenodd;stroke:#000000;stroke-width:0.26458332px;stroke-linecap:butt;stroke-linejoin:miter;stroke-opacity:1"
       d="m 51.730176,185.4971 c 2.076916,-0.34893 4.322946,0 6.192614,0"
       id="path1429"
       inkscape:connector-curvature="0" />
    <path
       style="fill:none;fill-rule:evenodd;stroke:#000000;stroke-width:0.26458332px;stroke-linecap:butt;stroke-linejoin:miter;stroke-opacity:1"
       d="m 307.35705,43.862892 c -37.63101,2.219124 -90.1518,-1.449056 -133.22284,-0.530913 -1.98829,14.960007 2.29632,33.642836 0,45.127639 42.16246,-3.447879 94.00091,0 133.7536,0 -0.52178,-13.478532 -0.53076,-31.480825 -0.53076,-44.596726 z"
       id="path478"
       inkscape:connector-curvature="0"
       sodipodi:nodetypes="ccccc" />
    <path
       style="fill:none;fill-rule:evenodd;stroke:#000000;stroke-width:0.26458332px;stroke-linecap:butt;stroke-linejoin:miter;stroke-opacity:1"
       d="m 223.24678,57.293743 c -1.01647,7.310088 -4.37699,6.569721 3.19013,6.569721"
       id="path494"
       inkscape:connector-curvature="0" />
    <path
       style="fill:none;fill-rule:evenodd;stroke:#000000;stroke-width:0.26458332px;stroke-linecap:butt;stroke-linejoin:miter;stroke-opacity:1"
       d="m 233.38014,58.7954 c -3.33166,-2.616104 -6.44471,6.601938 -1.12593,3.941829"
       id="path496"
       inkscape:connector-curvature="0" />
    <path
       style="fill:none;fill-rule:evenodd;stroke:#000000;stroke-width:0.26458332px;stroke-linecap:butt;stroke-linejoin:miter;stroke-opacity:1"
       d="m 235.81966,63.675761 c -0.77763,1.555675 1.55769,-4.189364 1.50123,-5.068065 5.894,-2.438727 4.76583,8.033616 -2.43951,5.631175"
       id="path498"
       inkscape:connector-curvature="0" />
    <path
       style="fill:none;fill-rule:evenodd;stroke:#000000;stroke-width:0.26458332px;stroke-linecap:butt;stroke-linejoin:miter;stroke-opacity:1"
       d="m 112.56265,102.90635 c 8.37599,-2.77187 71.48004,2.28137 72.6847,-0.37541 0.16913,-3.160313 0.0948,-9.750643 -0.37998,-14.288441"
       id="path550"
       inkscape:connector-curvature="0"
       sodipodi:nodetypes="ccc" />
    <path
       style="fill:none;fill-rule:evenodd;stroke:#000000;stroke-width:0.26458332px;stroke-linecap:butt;stroke-linejoin:miter;stroke-opacity:1"
       d="m 223.05564,87.386014 c -0.444,36.489156 3.66983,84.075916 0.7506,111.215936 -1.60477,5.3858 -19.16561,6.55822 -37.38419,4.77794 -30.25921,-1.0077 -95.273036,1.83936 -97.702502,-0.59075 -2.490918,-2.4916 -1.608107,-6.01496 -1.858166,-11.81615"
       id="path554"
       inkscape:connector-curvature="0"
       sodipodi:nodetypes="ccccc" />
    <path
       style="fill:none;fill-rule:evenodd;stroke:#000000;stroke-width:0.26458332px;stroke-linecap:butt;stroke-linejoin:miter;stroke-opacity:1"
       d="m 110.97278,155.48741 c 0.74968,-0.11057 4.44213,-0.0981 3.98076,0.13277"
       id="path1247"
       inkscape:connector-curvature="0" />
    <path
       style="fill:none;fill-rule:evenodd;stroke:#000000;stroke-width:0.26458332px;stroke-linecap:butt;stroke-linejoin:miter;stroke-opacity:1"
       d="m 110.97278,147.9219 c 1.34361,0.0857 3.68615,-0.41281 4.51153,0"
       id="path1249"
       inkscape:connector-curvature="0" />
    <path
       style="fill:none;fill-rule:evenodd;stroke:#000000;stroke-width:0.26458332px;stroke-linecap:butt;stroke-linejoin:miter;stroke-opacity:1"
       d="m 110.84148,140.07218 c 1.7239,0.0328 3.83002,-0.18771 5.06668,-0.18771"
       id="path1253"
       inkscape:connector-curvature="0" />
    <path
       style="fill:none;fill-rule:evenodd;stroke:#000000;stroke-width:0.26458332px;stroke-linecap:butt;stroke-linejoin:miter;stroke-opacity:1"
       d="m 114.40692,184.55855 c 1.18848,0 2.37696,0 3.56544,0"
       id="path1257"
       inkscape:connector-curvature="0" />
    <path
       style="fill:none;fill-rule:evenodd;stroke:#000000;stroke-width:0.26458332px;stroke-linecap:butt;stroke-linejoin:miter;stroke-opacity:1"
       d="m 180.92218,86.050079 c -0.43647,1.309425 2.38517,-0.605465 2.6452,-1.385581 0.34202,-1.026055 -1.77836,-0.77067 -2.01539,-1.007695 -0.10217,-0.102179 0.75522,-1.36929 0.37789,-1.763469 0.77556,0.03675 1.57683,-0.189708 2.14135,-0.377884"
       id="path1526"
       inkscape:connector-curvature="0" />
    <path
       style="fill:none;fill-rule:evenodd;stroke:#000000;stroke-width:0.26458332px;stroke-linecap:butt;stroke-linejoin:miter;stroke-opacity:1"
       d="m 184.32316,83.026992 c 1.53428,4.940858 1.60863,1.598149 2.51924,-1.133658"
       id="path1528"
       inkscape:connector-curvature="0" />
    <path
       style="fill:none;fill-rule:evenodd;stroke:#000000;stroke-width:0.26458332px;stroke-linecap:butt;stroke-linejoin:miter;stroke-opacity:1"
       d="m 195.53377,82.523146 c -3.75851,-0.443243 3.3384,3.023087 -1.88943,3.023087"
       id="path1530"
       inkscape:connector-curvature="0" />
    <path
       style="fill:none;fill-rule:evenodd;stroke:#000000;stroke-width:0.26458332px;stroke-linecap:butt;stroke-linejoin:miter;stroke-opacity:1"
       d="m 196.54147,85.168347 c 0.43548,-0.871075 0.54914,-1.938414 0.37788,-2.897127 3.67054,-0.114496 0.73148,3.098216 -0.12596,3.526936"
       id="path1532"
       inkscape:connector-curvature="0" />
    <path
       style="fill:none;fill-rule:evenodd;stroke:#000000;stroke-width:0.26458332px;stroke-linecap:butt;stroke-linejoin:miter;stroke-opacity:1"
       d="m 199.0607,85.672193 c 0.14178,-1.034394 0.49475,-2.104956 0.75578,-3.149047 0.53804,-2.152187 0.69304,1.953178 0.88173,2.519238"
       id="path1534"
       inkscape:connector-curvature="0" />
    <path
       style="fill:none;fill-rule:evenodd;stroke:#000000;stroke-width:0.26458332px;stroke-linecap:butt;stroke-linejoin:miter;stroke-opacity:1"
       d="m 199.31263,84.286612 c 0.42443,-0.05656 0.8534,-0.116519 1.25962,-0.251923"
       id="path1536"
       inkscape:connector-curvature="0" />
    <path
       style="fill:none;fill-rule:evenodd;stroke:#000000;stroke-width:0.26458332px;stroke-linecap:butt;stroke-linejoin:miter;stroke-opacity:1"
       d="m 207.87804,82.523146 c -4.47309,0.643623 3.04289,2.519238 -1.51154,2.519238"
       id="path1540"
       inkscape:connector-curvature="0" />
    <path
       style="fill:none;fill-rule:evenodd;stroke:#000000;stroke-width:0.26458332px;stroke-linecap:butt;stroke-linejoin:miter;stroke-opacity:1"
       d="m 210.01939,82.649106 c -2.05422,0.598072 -1.47524,3.256862 1.0077,2.015392"
       id="path1542"
       inkscape:connector-curvature="0" />
    <path
       style="fill:none;fill-rule:evenodd;stroke:#000000;stroke-width:0.26458332px;stroke-linecap:butt;stroke-linejoin:miter;stroke-opacity:1"
       d="m 211.78286,82.397183 c 0.64453,2.339642 -0.8842,3.496061 2.01539,2.771164"
       id="path1544"
       inkscape:connector-curvature="0" />
    <path
       style="fill:none;fill-rule:evenodd;stroke:#000000;stroke-width:0.26458332px;stroke-linecap:butt;stroke-linejoin:miter;stroke-opacity:1"
       d="m 220.85212,82.901032 c -1.57002,0.0068 -3.69753,2.015389 -0.25193,2.015389"
       id="path1546"
       inkscape:connector-curvature="0" />
    <path
       style="fill:none;fill-rule:evenodd;stroke:#000000;stroke-width:0.26458332px;stroke-linecap:butt;stroke-linejoin:miter;stroke-opacity:1"
       d="m 219.97039,84.286612 c 1.51715,-0.55328 1.33219,0.646907 0.75577,1.511544"
       id="path1548"
       inkscape:connector-curvature="0" />
    <path
       style="fill:none;fill-rule:evenodd;stroke:#000000;stroke-width:0.26458332px;stroke-linecap:butt;stroke-linejoin:miter;stroke-opacity:1"
       d="m 222.11174,85.42027 c -0.23937,-0.718092 0.0973,-1.510924 0.12596,-2.267315 0.75485,0.547689 0.86845,1.975525 1.0077,2.393277"
       id="path1550"
       inkscape:connector-curvature="0" />
    <path
       style="fill:none;fill-rule:evenodd;stroke:#000000;stroke-width:0.26458332px;stroke-linecap:butt;stroke-linejoin:miter;stroke-opacity:1"
       d="m 224.00117,83.026992 c -0.074,0.782852 -0.50385,2.05921 -0.50385,2.393278"
       id="path1552"
       inkscape:connector-curvature="0" />
    <path
       style="fill:none;fill-rule:evenodd;stroke:#000000;stroke-width:0.26458332px;stroke-linecap:butt;stroke-linejoin:miter;stroke-opacity:1"
       d="m 224.50502,85.294307 c 0,0.67274 0.40529,-1.813316 0.6298,-2.393275 2.77292,1.006555 0.20088,3.023086 -1.13365,3.023086"
       id="path1554"
       inkscape:connector-curvature="0" />
    <path
       style="fill:none;fill-rule:evenodd;stroke:#000000;stroke-width:0.26458332px;stroke-linecap:butt;stroke-linejoin:miter;stroke-opacity:1"
       d="m 113.05327,177.14562 c 1.5069,-0.40513 2.96608,-0.32687 4.45343,-0.17814"
       id="path1560"
       inkscape:connector-curvature="0" />
    <path
       style="fill:none;fill-rule:evenodd;stroke:#000000;stroke-width:0.26458332px;stroke-linecap:butt;stroke-linejoin:miter;stroke-opacity:1"
       d="m 111.45004,132.25507 c 1.4211,-0.32698 3.03531,-0.35627 4.27529,-0.35627"
       id="path1562"
       inkscape:connector-curvature="0" />
    <path
       style="fill:none;fill-rule:evenodd;stroke:#000000;stroke-width:0.26458332px;stroke-linecap:butt;stroke-linejoin:miter;stroke-opacity:1"
       d="m 111.62818,124.59518 c 1.07687,-0.34161 2.27678,-0.0434 3.3846,0.17813"
       id="path1564"
       inkscape:connector-curvature="0" />
    <path
       style="fill:none;fill-rule:evenodd;stroke:#000000;stroke-width:0.26458332px;stroke-linecap:butt;stroke-linejoin:miter;stroke-opacity:1"
       d="m 111.80632,117.11342 c 1.36696,0.10337 2.73191,0.23216 4.09715,0.35628"
       id="path1566"
       inkscape:connector-curvature="0" />
    <path
       style="fill:none;fill-rule:evenodd;stroke:#000000;stroke-width:0.26458332px;stroke-linecap:butt;stroke-linejoin:miter;stroke-opacity:1"
       d="m 112.697,110.16607 c 0.85091,-0.47486 2.8473,-0.0181 3.02833,0"
       id="path1568"
       inkscape:connector-curvature="0" />
    <path
       style="fill:none;fill-rule:evenodd;stroke:#000000;stroke-width:0.26458332px;stroke-linecap:butt;stroke-linejoin:miter;stroke-opacity:1"
       d="m 102.19597,160.24166 c -0.0918,0.0245 -0.96823,-0.29139 -1.13365,-0.12596 -2.893667,2.89366 5.05978,2.34419 -0.37789,4.15674"
       id="path1580"
       inkscape:connector-curvature="0" />
    <path
       style="fill:none;fill-rule:evenodd;stroke:#000000;stroke-width:0.26458332px;stroke-linecap:butt;stroke-linejoin:miter;stroke-opacity:1"
       d="m 103.83348,160.36762 c 0.10045,1.00944 0.33376,2.76474 0.50385,3.27501 0.92054,-1.22739 1.77483,-3.09339 -0.50385,-3.27501 z"
       id="path1582"
       inkscape:connector-curvature="0" />
    <path
       style="fill:none;fill-rule:evenodd;stroke:#000000;stroke-width:0.26458332px;stroke-linecap:butt;stroke-linejoin:miter;stroke-opacity:1"
       d="m 106.22676,163.89456 c -0.73642,-0.009 -0.174,-5.26051 0.50384,-3.90482 0.47274,0.94548 1.0665,3.70334 1.13366,3.90482"
       id="path1584"
       inkscape:connector-curvature="0" />
    <path
       style="fill:none;fill-rule:evenodd;stroke:#000000;stroke-width:0.26458332px;stroke-linecap:butt;stroke-linejoin:miter;stroke-opacity:1"
       d="m 105.72291,162.7609 c 0.42116,-0.18181 2.63995,-1.3401 1.76346,-0.75577"
       id="path1586"
       inkscape:connector-curvature="0" />
    <path
       style="fill:none;fill-rule:evenodd;stroke:#000000;stroke-width:0.26458332px;stroke-linecap:butt;stroke-linejoin:miter;stroke-opacity:1"
       d="m 102.07001,167.92534 c -2.940985,-0.80913 2.36024,3.02309 -0.50385,3.02309 -0.26555,0 -0.53482,-0.10463 -0.75577,-0.25193"
       id="path1588"
       inkscape:connector-curvature="0" />
    <path
       style="fill:none;fill-rule:evenodd;stroke:#000000;stroke-width:0.26458332px;stroke-linecap:butt;stroke-linejoin:miter;stroke-opacity:1"
       d="m 105.0931,168.0513 c -2.0977,-0.1638 -2.47476,3.04346 0.12596,2.39328"
       id="path1590"
       inkscape:connector-curvature="0" />
    <path
       style="fill:none;fill-rule:evenodd;stroke:#000000;stroke-width:0.26458332px;stroke-linecap:butt;stroke-linejoin:miter;stroke-opacity:1"
       d="m 106.22676,168.0513 c -0.0431,2.83812 -0.37912,2.26732 2.01539,2.26732"
       id="path1594"
       inkscape:connector-curvature="0" />
    <path
       style="fill:none;fill-rule:evenodd;stroke:#000000;stroke-width:0.26458332px;stroke-linecap:butt;stroke-linejoin:miter;stroke-opacity:1"
       d="m 110.55936,162.71651 c 0,0 82.66992,3.29568 89.78108,-2.85019 1.99325,-8.20467 -0.35627,-61.327114 -0.35627,-73.392477"
       id="path1598"
       inkscape:connector-curvature="0"
       sodipodi:nodetypes="ccc" />
    <path
       style="fill:none;fill-rule:evenodd;stroke:#000000;stroke-width:0.26458332px;stroke-linecap:butt;stroke-linejoin:miter;stroke-opacity:1"
       d="m 111.98445,169.842 c 21.64379,0.15047 90.05548,5.78227 96.90657,-1.06883 2.42379,-8.83671 -0.7936,-57.92756 0,-81.58678"
       id="path1602"
       inkscape:connector-curvature="0"
       sodipodi:nodetypes="ccc" />
  </g>
</svg>
