<?xml version="1.0" encoding="UTF-8" standalone="no"?>
<!-- Created with Inkscape (http://www.inkscape.org/) -->

<svg
   xmlns:dc="http://purl.org/dc/elements/1.1/"
   xmlns:cc="http://creativecommons.org/ns#"
   xmlns:rdf="http://www.w3.org/1999/02/22-rdf-syntax-ns#"
   xmlns:svg="http://www.w3.org/2000/svg"
   xmlns="http://www.w3.org/2000/svg"
   xmlns:sodipodi="http://sodipodi.sourceforge.net/DTD/sodipodi-0.dtd"
   xmlns:inkscape="http://www.inkscape.org/namespaces/inkscape"
   width="29.700001cm"
   height="11.18164cm"
   viewBox="0 0 297 111.8164"
   version="1.1"
   id="svg8"
   sodipodi:docname="text-lcd-radio-wiring.svg"
   inkscape:version="0.92.4 5da689c313, 2019-01-14">
  <defs
     id="defs2" />
  <sodipodi:namedview
     id="base"
     pagecolor="#ffffff"
     bordercolor="#666666"
     borderopacity="1.0"
     inkscape:pageopacity="0.0"
     inkscape:pageshadow="2"
     inkscape:zoom="1.0502511"
     inkscape:cx="667.86527"
     inkscape:cy="268.82263"
     inkscape:document-units="mm"
     inkscape:current-layer="layer1"
     showgrid="true"
     inkscape:snap-global="false"
     inkscape:window-width="1366"
     inkscape:window-height="704"
     inkscape:window-x="0"
     inkscape:window-y="27"
     inkscape:window-maximized="1"
     units="cm"
     fit-margin-top="1"
     fit-margin-bottom="1"
     fit-margin-left="0"
     fit-margin-right="0">
    <inkscape:grid
       type="xygrid"
       id="grid1021"
       units="cm"
       spacingx="5"
       spacingy="5"
       empspacing="1"
       empcolor="#0000ff"
       empopacity="0.10588235"
       originx="-30.397667"
       originy="-87.255341" />
  </sodipodi:namedview>
  <metadata
     id="metadata5">
    <rdf:RDF>
      <cc:Work
         rdf:about="">
        <dc:format>image/svg+xml</dc:format>
        <dc:type
           rdf:resource="http://purl.org/dc/dcmitype/StillImage" />
        <dc:title></dc:title>
      </cc:Work>
    </rdf:RDF>
  </metadata>
  <g
     inkscape:label="Layer 1"
     inkscape:groupmode="layer"
     id="layer1"
     transform="translate(-30.397668,-97.928261)">
    <path
       style="fill:none;fill-rule:evenodd;stroke:#000000;stroke-width:0.25;stroke-linecap:butt;stroke-linejoin:miter;stroke-opacity:1"
       d="m 115.50441,163.76338 c 21.70088,-3.30261 88.44912,-1.11722 117.07145,-0.0317"
       id="path4552"
       inkscape:connector-curvature="0"
       sodipodi:nodetypes="cc" />
    <path
       style="fill:none;fill-rule:evenodd;stroke:#000000;stroke-width:0.25;stroke-linecap:butt;stroke-linejoin:miter;stroke-opacity:1"
       d="m 115.88239,170.75594 c 25.80104,-2.18796 90.59355,-1.70556 116.52438,-1.11836"
       id="path4554"
       inkscape:connector-curvature="0"
       sodipodi:nodetypes="cc" />
    <path
       style="fill:none;fill-rule:evenodd;stroke:#000000;stroke-width:0.26458332px;stroke-linecap:butt;stroke-linejoin:miter;stroke-opacity:1"
       d="m 115.51958,174.59056 c 1.15856,-0.63938 7.27133,0 5.61267,0"
       id="path4640"
       inkscape:connector-curvature="0" />
    <path
       style="fill:none;fill-rule:evenodd;stroke:#000000;stroke-width:0.26458332px;stroke-linecap:butt;stroke-linejoin:miter;stroke-opacity:1"
       d="m 73.290914,137.17283 c 1.780018,-0.0574 4.149312,-0.127 4.810852,0.53454"
       id="path4646"
       inkscape:connector-curvature="0" />
    <path
       style="fill:none;fill-rule:evenodd;stroke:#000000;stroke-width:0.26458332px;stroke-linecap:butt;stroke-linejoin:miter;stroke-opacity:1"
       d="m 73.023645,142.78549 c 1.185267,-0.75476 6.513554,-0.18318 5.612659,0.26727"
       id="path4648"
       inkscape:connector-curvature="0" />
    <path
       style="fill:none;fill-rule:evenodd;stroke:#000000;stroke-width:0.26458332px;stroke-linecap:butt;stroke-linejoin:miter;stroke-opacity:1"
       d="m 73.290914,147.86361 c 1.829747,-0.0926 5.356616,0.006 5.879932,0.26727"
       id="path4650"
       inkscape:connector-curvature="0" />
    <path
       style="fill:none;fill-rule:evenodd;stroke:#000000;stroke-width:0.26458332px;stroke-linecap:butt;stroke-linejoin:miter;stroke-opacity:1"
       d="m 74.894532,155.61442 c 1.228852,-0.45873 6.112736,-0.38366 5.345406,0"
       id="path4652"
       inkscape:connector-curvature="0" />
    <path
       style="fill:none;fill-rule:evenodd;stroke:#000000;stroke-width:0.26458332px;stroke-linecap:butt;stroke-linejoin:miter;stroke-opacity:1"
       d="m 74.627263,160.15801 c 1.15755,-0.8649 7.759921,-0.53454 5.879945,-0.53454"
       id="path4654"
       inkscape:connector-curvature="0" />
    <path
       style="fill:none;fill-rule:evenodd;stroke:#000000;stroke-width:0.26458332px;stroke-linecap:butt;stroke-linejoin:miter;stroke-opacity:1"
       d="m 75.696341,166.3052 c 1.592469,-0.18876 3.207232,0 4.810867,0"
       id="path4656"
       inkscape:connector-curvature="0" />
    <path
       style="fill:none;fill-rule:evenodd;stroke:#000000;stroke-width:0.26458332px;stroke-linecap:butt;stroke-linejoin:miter;stroke-opacity:1"
       d="m 75.42907,172.4524 c 1.395166,-0.70337 2.717329,-1.06907 4.276322,-1.06907"
       id="path4658"
       inkscape:connector-curvature="0" />
    <path
       style="fill:none;fill-rule:evenodd;stroke:#000000;stroke-width:0.26458332px;stroke-linecap:butt;stroke-linejoin:miter;stroke-opacity:1"
       d="m 75.696341,178.86687 c 1.548464,-1.39691 4.170071,-1.14959 5.612677,-1.87088"
       id="path4660"
       inkscape:connector-curvature="0" />
    <path
       style="fill:none;fill-rule:evenodd;stroke:#000000;stroke-width:0.26458332px;stroke-linecap:butt;stroke-linejoin:miter;stroke-opacity:1"
       d="m 75.96361,183.41045 c 1.405406,-0.35796 2.826033,-0.8018 4.276328,-0.8018"
       id="path4662"
       inkscape:connector-curvature="0" />
    <g
       id="g4792"
       transform="rotate(-15,-123.17758,-8.504931)">
      <g
         id="g4736"
         transform="rotate(2.4286334,56.522939,176.53944)">
        <path
           style="fill:none;fill-rule:evenodd;stroke:#000000;stroke-width:0.26458332px;stroke-linecap:butt;stroke-linejoin:miter;stroke-opacity:1"
           d="m 43.832203,167.90882 c 1.149455,0.0419 -2.928054,9.88897 -2.138156,9.88897 0.24416,0 2.405425,-9.01225 2.405425,-7.75081 0,2.22002 1.761355,6.87014 0.53454,7.48355"
           id="path4664"
           inkscape:connector-curvature="0" />
        <path
           style="fill:none;fill-rule:evenodd;stroke:#000000;stroke-width:0.26458332px;stroke-linecap:butt;stroke-linejoin:miter;stroke-opacity:1"
           d="m 41.694047,175.1251 c 1.236331,-0.088 6.448358,-1.62056 4.810849,-0.80181"
           id="path4666"
           inkscape:connector-curvature="0" />
        <path
           style="fill:none;fill-rule:evenodd;stroke:#000000;stroke-width:0.26458332px;stroke-linecap:butt;stroke-linejoin:miter;stroke-opacity:1"
           d="m 47.573975,174.05602 c 1.261467,6.60333 -0.712807,1.39577 2.672696,0.26727"
           id="path4668"
           inkscape:connector-curvature="0" />
        <path
           style="fill:none;fill-rule:evenodd;stroke:#000000;stroke-width:0.26458332px;stroke-linecap:butt;stroke-linejoin:miter;stroke-opacity:1"
           d="m 53.721174,175.1251 c -3.07018,-0.84606 -5.127098,6.19617 -1.069078,2.13816"
           id="path4670"
           inkscape:connector-curvature="0" />
        <path
           style="fill:none;fill-rule:evenodd;stroke:#000000;stroke-width:0.26458332px;stroke-linecap:butt;stroke-linejoin:miter;stroke-opacity:1"
           d="m 55.057521,170.84879 c -0.688253,1.89746 -1.069078,5.62348 -1.069078,6.949"
           id="path4672"
           inkscape:connector-curvature="0" />
        <path
           style="fill:none;fill-rule:evenodd;stroke:#000000;stroke-width:0.26458332px;stroke-linecap:butt;stroke-linejoin:miter;stroke-opacity:1"
           d="m 56.928408,174.32329 c -2.120736,7.91493 4.319254,-2.75857 2.138156,1.60362 -0.284538,0.56907 -0.05583,1.44801 -0.267269,1.87088"
           id="path4674"
           inkscape:connector-curvature="0" />
        <path
           style="fill:none;fill-rule:evenodd;stroke:#000000;stroke-width:0.26458332px;stroke-linecap:butt;stroke-linejoin:miter;stroke-opacity:1"
           d="m 62.273798,174.59056 c -0.204396,0.88525 -0.128225,1.86007 -0.534537,2.6727"
           id="path4676"
           inkscape:connector-curvature="0" />
        <path
           style="fill:none;fill-rule:evenodd;stroke:#000000;stroke-width:0.26458332px;stroke-linecap:butt;stroke-linejoin:miter;stroke-opacity:1"
           d="m 64.144686,174.59056 c -0.157549,0.23707 -0.914649,4.00904 -1.336347,4.00904 -1.152332,0 2.899505,-3.78223 3.474503,-3.20723 0.835601,0.8356 -0.782262,4.77176 -0.267269,3.74177"
           id="path4680"
           inkscape:connector-curvature="0" />
        <path
           style="fill:none;fill-rule:evenodd;stroke:#000000;stroke-width:0.26458332px;stroke-linecap:butt;stroke-linejoin:miter;stroke-opacity:1"
           d="m 67.88646,176.72872 c -3.713496,7.45199 9.776415,-2.44411 0,0 z"
           id="path4684"
           inkscape:connector-curvature="0" />
      </g>
    </g>
    <path
       style="fill:none;fill-rule:evenodd;stroke:#000000;stroke-width:0.26458332px;stroke-linecap:butt;stroke-linejoin:miter;stroke-opacity:1"
       d="m 115.47355,157.48531 c 1.74139,0.0838 3.09043,-0.26727 4.81085,-0.26727"
       id="path4813"
       inkscape:connector-curvature="0" />
    <path
       style="fill:none;fill-rule:evenodd;stroke:#000000;stroke-width:0.26458332px;stroke-linecap:butt;stroke-linejoin:miter;stroke-opacity:1"
       d="m 114.90832,152.42254 c 2.00558,-0.20693 5.82685,0.0265 6.41447,-0.26727"
       id="path4815"
       inkscape:connector-curvature="0" />
    <path
       style="fill:none;fill-rule:evenodd;stroke:#000000;stroke-width:0.26458332px;stroke-linecap:butt;stroke-linejoin:miter;stroke-opacity:1"
       d="m 115.4582,147.34442 5.61266,0.53454"
       id="path4817"
       inkscape:connector-curvature="0" />
    <path
       style="fill:none;fill-rule:evenodd;stroke:#000000;stroke-width:0.26458332px;stroke-linecap:butt;stroke-linejoin:miter;stroke-opacity:1"
       d="m 116.58867,142.25095 c 1.60404,0.0759 3.37139,-0.21255 4.81084,0.26727"
       id="path4819"
       inkscape:connector-curvature="0" />
    <path
       style="fill:none;fill-rule:evenodd;stroke:#000000;stroke-width:0.26458332px;stroke-linecap:butt;stroke-linejoin:miter;stroke-opacity:1"
       d="m 117.39047,138.2419 c 1.63685,-0.26192 2.96494,0.53454 4.27631,0.53454"
       id="path4821"
       inkscape:connector-curvature="0" />
    <path
       style="fill:none;fill-rule:evenodd;stroke:#000000;stroke-width:0.26458332px;stroke-linecap:butt;stroke-linejoin:miter;stroke-opacity:1"
       d="m 111.15768,130.50149 c -0.17397,0.0169 -0.0638,1.41741 -0.0945,1.41741 -0.20956,0 1.88582,-0.0864 1.41742,0.85045 -0.31397,0.62794 -2.69112,1.41348 -2.17337,0.37798"
       id="path4745"
       inkscape:connector-curvature="0" />
    <path
       style="fill:none;fill-rule:evenodd;stroke:#000000;stroke-width:0.26458332px;stroke-linecap:butt;stroke-linejoin:miter;stroke-opacity:1"
       d="m 111.06319,130.87947 c 0.46754,-0.005 2.04646,-0.36177 1.70089,-0.18899"
       id="path4747"
       inkscape:connector-curvature="0" />
    <path
       style="fill:none;fill-rule:evenodd;stroke:#000000;stroke-width:0.26458332px;stroke-linecap:butt;stroke-linejoin:miter;stroke-opacity:1"
       d="m 113.42554,131.63542 c 0.63726,3.61104 0.9453,0.18863 1.70089,-0.56696"
       id="path4749"
       inkscape:connector-curvature="0" />
    <path
       style="fill:none;fill-rule:evenodd;stroke:#000000;stroke-width:0.26458332px;stroke-linecap:butt;stroke-linejoin:miter;stroke-opacity:1"
       d="m 109.55129,162.62947 c -0.51724,-0.47709 -1.89392,0.34378 -1.13393,0.85044 0.53644,0.35763 2.13828,0.25378 0.75595,0.94494 -0.28731,0.14366 -0.62372,0.18899 -0.94494,0.18899"
       id="path4751"
       inkscape:connector-curvature="0" />
    <path
       style="fill:none;fill-rule:evenodd;stroke:#000000;stroke-width:0.26458332px;stroke-linecap:butt;stroke-linejoin:miter;stroke-opacity:1"
       d="m 110.68521,162.44048 c 0.10066,0.76029 -0.27924,2.16701 -0.28348,2.17336 1.72512,2e-5 2.61781,-2.74205 0.28348,-2.17336 z"
       id="path4753"
       inkscape:connector-curvature="0" />
    <path
       style="fill:none;fill-rule:evenodd;stroke:#000000;stroke-width:0.26458332px;stroke-linecap:butt;stroke-linejoin:miter;stroke-opacity:1"
       d="m 112.38611,164.89732 c 1.37446,-3.72133 1.70089,-3.20593 1.70089,-0.0945"
       id="path4755"
       inkscape:connector-curvature="0" />
    <path
       style="fill:none;fill-rule:evenodd;stroke:#000000;stroke-width:0.26458332px;stroke-linecap:butt;stroke-linejoin:miter;stroke-opacity:1"
       d="m 112.57509,164.14137 c 0.61509,-0.31268 1.57332,-0.31418 2.07887,-0.56696"
       id="path4757"
       inkscape:connector-curvature="0" />
    <path
       style="fill:none;fill-rule:evenodd;stroke:#000000;stroke-width:0.26458332px;stroke-linecap:butt;stroke-linejoin:miter;stroke-opacity:1"
       d="m 109.83477,169.24405 c -0.47533,-0.1995 -0.63355,-0.0408 -1.03944,0.0945 -1.31325,0.43775 0.72297,0.87898 0.94494,1.32292 0.18528,0.37055 -0.85787,0.37427 -1.22842,0.18899"
       id="path4761"
       inkscape:connector-curvature="0" />
    <path
       style="fill:none;fill-rule:evenodd;stroke:#000000;stroke-width:0.26458332px;stroke-linecap:butt;stroke-linejoin:miter;stroke-opacity:1"
       d="m 111.44116,169.14956 c -1.75789,-0.0174 -1.75042,2.90683 0.85045,1.6064"
       id="path4763"
       inkscape:connector-curvature="0" />
    <path
       style="fill:none;fill-rule:evenodd;stroke:#000000;stroke-width:0.26458332px;stroke-linecap:butt;stroke-linejoin:miter;stroke-opacity:1"
       d="m 113.14206,169.05506 c -0.43985,2.02385 -0.34731,1.98438 1.5119,1.98438"
       id="path4765"
       inkscape:connector-curvature="0" />
    <path
       style="fill:none;fill-rule:evenodd;stroke:#000000;stroke-width:0.26458332px;stroke-linecap:butt;stroke-linejoin:miter;stroke-opacity:1"
       d="m 98.495477,185.9695 c -0.467423,-0.18889 -0.826686,0.0469 -1.039433,0.47247 -0.909519,1.81902 0.918413,1.02617 1.700893,1.41741"
       id="path4772"
       inkscape:connector-curvature="0" />
    <path
       style="fill:none;fill-rule:evenodd;stroke:#000000;stroke-width:0.26458332px;stroke-linecap:butt;stroke-linejoin:miter;stroke-opacity:1"
       d="m 98.023004,187.29241 c 0.929463,-0.67796 1.133933,-0.21845 1.133933,0.66146"
       id="path4774"
       inkscape:connector-curvature="0" />
    <path
       style="fill:none;fill-rule:evenodd;stroke:#000000;stroke-width:0.26458332px;stroke-linecap:butt;stroke-linejoin:miter;stroke-opacity:1"
       d="m 100.19637,187.85938 c -0.214383,-0.42879 -0.0384,-1.3314 -0.18898,-1.88988 0.32162,0.0902 0.44717,0.91964 0.66146,1.13393 0.28933,0.28933 0.42827,0.82835 0.85044,1.03943 0.0188,0.009 0.2384,0.18899 0.18899,0.18899 -0.19487,0 0.30898,-2.65858 -0.0945,-2.45685"
       id="path4776"
       inkscape:connector-curvature="0" />
    <path
       style="fill:none;fill-rule:evenodd;stroke:#000000;stroke-width:0.26458332px;stroke-linecap:butt;stroke-linejoin:miter;stroke-opacity:1"
       d="m 102.65322,186.25298 c -0.0658,0.51226 -0.021,1.73256 0,1.79539 1.10774,-0.7385 2.71407,-2.50253 0,-1.79539 z"
       id="path4778"
       inkscape:connector-curvature="0" />
    <path
       style="fill:none;fill-rule:evenodd;stroke:#000000;stroke-width:0.26458332px;stroke-linecap:butt;stroke-linejoin:miter;stroke-opacity:1"
       d="m 99.839678,190.89374 c -0.544686,2.9132 -0.691931,6.6136 0.980082,8.28561 1.63076,1.63075 103.55673,0.4449 106.61959,0.4449 12.20218,0 32.89037,1.52559 37.97897,-3.563 1.12583,-1.12584 -0.80181,-12.64777 -0.80181,-14.16529"
       id="path5644"
       inkscape:connector-curvature="0"
       sodipodi:nodetypes="ccscc" />
    <path
       style="fill:none;fill-rule:evenodd;stroke:#000000;stroke-width:0.26458332px;stroke-linecap:butt;stroke-linejoin:miter;stroke-opacity:1"
       d="m 80.091585,129.97447 c 5.101984,-1.49026 10.861512,0.15837 15.871273,-1.51154 2.382569,-0.79419 17.225202,-3.18064 19.398152,-1.0077 2.5572,2.5572 0.50384,17.56295 0.50384,20.40584 0,11.4277 -1.60659,24.75035 1.51155,35.01741 0.34338,0.68677 0.75037,6.55542 0.50384,6.80195 -1.47019,1.47019 -14.12322,1.25962 -16.62697,1.25962 -4.561252,0 -17.067224,2.83481 -20.657832,-0.75578 -0.39408,-0.39407 0,-8.53961 0,-9.5731 0,-14.70108 -4.830895,-37.6556 -0.503853,-50.6367 z"
       id="path5768"
       inkscape:connector-curvature="0"
       sodipodi:nodetypes="ccssccscsc" />
    <path
       style="fill:none;fill-rule:evenodd;stroke:#000000;stroke-width:0.26458332px;stroke-linecap:butt;stroke-linejoin:miter;stroke-opacity:1"
       d="m 117.18217,132.25504 c 7.66905,0.0865 36.91182,-0.77765 38.40201,0.71254 4.3068,4.3068 -4.52923,22.60488 0.89069,23.69224 7.13104,1.43065 75.03705,-1e-5 75.88639,-1e-5"
       id="path440"
       inkscape:connector-curvature="0"
       sodipodi:nodetypes="cssc" />
    <g
       id="g3623"
       transform="translate(67.692092)">
      <path
         sodipodi:nodetypes="cssscc"
         inkscape:connector-curvature="0"
         id="path4556"
         d="m 164.83856,151.66449 c -0.13547,4.5065 0.37798,8.74127 0.37798,13.22916 0,8.93015 -2.24251,17.00893 7.18154,17.00893 1.82093,0 11.94161,1.28756 12.85119,0.37798 0.83922,-0.83922 -1.47969,-29.44993 -2.26785,-30.2381 -2.9937,-2.99369 -14.21536,-1.85079 -18.14286,-0.37797 z"
         style="fill:none;fill-rule:evenodd;stroke:#000000;stroke-width:0.26458332px;stroke-linecap:butt;stroke-linejoin:miter;stroke-opacity:1" />
      <path
         sodipodi:nodetypes="cssc"
         inkscape:connector-curvature="0"
         id="path4692"
         d="m 167.74864,161.6273 c -3.21517,-0.44397 -0.53454,1.44272 -0.53454,2.00452 0,0.41133 -1.33635,0.39509 -1.33635,0.26727 0,-0.39081 0.51012,-0.0488 0.53454,0"
         style="fill:none;fill-rule:evenodd;stroke:#000000;stroke-width:0.26458332px;stroke-linecap:butt;stroke-linejoin:miter;stroke-opacity:1" />
      <path
         sodipodi:nodetypes="cc"
         inkscape:connector-curvature="0"
         id="path4694"
         d="m 169.48589,161.22639 c -0.5867,0.59717 -2.27302,4.14513 -1.20272,2.00452"
         style="fill:none;fill-rule:evenodd;stroke:#000000;stroke-width:0.26458332px;stroke-linecap:butt;stroke-linejoin:miter;stroke-opacity:1" />
      <path
         sodipodi:nodetypes="ccc"
         inkscape:connector-curvature="0"
         id="path4696"
         d="m 168.55044,162.29547 c 0.79582,-2.17776 2.83785,0.25151 0.13364,1.60362 -0.72872,0.36436 -1.02036,0.49208 -1.20271,0.4009"
         style="fill:none;fill-rule:evenodd;stroke:#000000;stroke-width:0.26458332px;stroke-linecap:butt;stroke-linejoin:miter;stroke-opacity:1" />
      <path
         sodipodi:nodetypes="cccsscc"
         inkscape:connector-curvature="0"
         id="path4698"
         d="m 171.49041,161.6273 c -0.25009,0.36066 -0.43289,0.71614 -0.66817,1.06907 -2.27029,3.40544 0.5658,-1.1305 0.66817,-1.06907 0.20397,0.12237 0.58333,1.82209 0.26727,2.13815 -0.0275,0.0275 -1.46998,-0.65218 -1.46998,-0.66817 0,-0.18367 0.37026,0.0515 0.53454,0.13363 0.26661,0.13331 1.47071,2.7e-4 0.93544,-0.26727"
         style="fill:none;fill-rule:evenodd;stroke:#000000;stroke-width:0.26458332px;stroke-linecap:butt;stroke-linejoin:miter;stroke-opacity:1" />
      <path
         sodipodi:nodetypes="ccsccc"
         inkscape:connector-curvature="0"
         id="path4730"
         d="m 173.62856,179.13345 c -0.74363,-0.92097 -2.72227,0.43537 -2.27178,1.33635 0.60014,1.2003 2.93996,0.45091 2.93996,0.66817 0,0.28601 -2.00438,-1.00219 -1.33635,-0.66817 0.3058,0.1529 1.26341,0.0607 1.46998,0.26727 0.15279,0.15278 -0.89992,1.18495 -0.13363,0.80181"
         style="fill:none;fill-rule:evenodd;stroke:#000000;stroke-width:0.26458332px;stroke-linecap:butt;stroke-linejoin:miter;stroke-opacity:1" />
      <path
         sodipodi:nodetypes="csccc"
         inkscape:connector-curvature="0"
         id="path4732"
         d="m 175.36582,179.26708 c -0.22349,0.0161 -0.47307,2.00453 -0.53454,2.00453 -0.29882,0 0.26727,-0.53454 0.4009,-0.80181 0.0511,-0.1023 -0.059,-1.29905 0.13364,-1.20272 0.62996,0.31498 0.35319,1.37457 0.66817,2.00453"
         style="fill:none;fill-rule:evenodd;stroke:#000000;stroke-width:0.26458332px;stroke-linecap:butt;stroke-linejoin:miter;stroke-opacity:1" />
      <path
         sodipodi:nodetypes="cc"
         inkscape:connector-curvature="0"
         id="path4734"
         d="m 177.2367,178.86618 c -0.61052,0.88121 -1.24648,1.82479 -1.60361,2.53906"
         style="fill:none;fill-rule:evenodd;stroke:#000000;stroke-width:0.26458332px;stroke-linecap:butt;stroke-linejoin:miter;stroke-opacity:1" />
      <path
         sodipodi:nodetypes="ccsc"
         inkscape:connector-curvature="0"
         id="path4736"
         d="m 178.17215,179.40072 c -0.93799,3.26526 -1.30023,0.92873 0,0 1.65595,-1.18282 1.27405,0.4632 0.26727,1.46998 -0.26769,0.26769 -1.05423,0.19303 -1.46999,0.40091"
         style="fill:none;fill-rule:evenodd;stroke:#000000;stroke-width:0.26458332px;stroke-linecap:butt;stroke-linejoin:miter;stroke-opacity:1" />
      <path
         sodipodi:nodetypes="cccc"
         inkscape:connector-curvature="0"
         id="path5624"
         d="m 167.77852,169.33854 c -0.22967,-0.91083 -1.83851,0.14587 -1.5119,0.47247 0.17903,0.17904 0.86809,0.20663 1.03943,0.37798 1.73574,1.73574 -0.89212,1.11309 -1.03943,1.03943"
         style="fill:none;fill-rule:evenodd;stroke:#000000;stroke-width:0.26458332px;stroke-linecap:butt;stroke-linejoin:miter;stroke-opacity:1" />
      <path
         sodipodi:nodetypes="ccc"
         inkscape:connector-curvature="0"
         id="path5626"
         d="m 170.04638,169.62202 c -0.89019,-0.48542 -2.04084,0.92651 -1.6064,1.79539 0.18569,0.37139 2.4118,0.16426 1.98437,0.37798"
         style="fill:none;fill-rule:evenodd;stroke:#000000;stroke-width:0.26458332px;stroke-linecap:butt;stroke-linejoin:miter;stroke-opacity:1" />
      <path
         sodipodi:nodetypes="cc"
         inkscape:connector-curvature="0"
         id="path5628"
         d="m 171.08581,169.52753 c 0.53174,1.64578 -1.11499,2.45684 0.94494,2.45684"
         style="fill:none;fill-rule:evenodd;stroke:#000000;stroke-width:0.26458332px;stroke-linecap:butt;stroke-linejoin:miter;stroke-opacity:1" />
      <path
         sodipodi:nodetypes="csccsc"
         inkscape:connector-curvature="0"
         id="path462"
         d="m 166.0052,155.23472 c 0.28886,0.16143 -0.11158,-0.53441 0,-0.53441 0.17814,0 -0.0662,0.36901 0,0.53441 0.2499,0.62475 0.75858,1.20691 0.97976,1.87044 0.0258,0.0775 0.12019,0.68142 0.17813,0.62348 0.22157,-0.22157 0.53169,-2.30761 0.71255,-2.8502"
         style="fill:none;fill-rule:evenodd;stroke:#000000;stroke-width:0.26458332px;stroke-linecap:butt;stroke-linejoin:miter;stroke-opacity:1" />
      <path
         sodipodi:nodetypes="cc"
         inkscape:connector-curvature="0"
         id="path464"
         d="m 168.94446,156.74888 c -1.80353,-0.20527 -1.57941,1.77661 1.06883,1.24696"
         style="fill:none;fill-rule:evenodd;stroke:#000000;stroke-width:0.26458332px;stroke-linecap:butt;stroke-linejoin:miter;stroke-opacity:1" />
      <path
         sodipodi:nodetypes="cc"
         inkscape:connector-curvature="0"
         id="path466"
         d="m 171.34931,156.74888 c -2.15234,0.14553 -0.33767,2.2799 1.4251,1.69231"
         style="fill:none;fill-rule:evenodd;stroke:#000000;stroke-width:0.26458332px;stroke-linecap:butt;stroke-linejoin:miter;stroke-opacity:1" />
    </g>
    <path
       style="fill:none;fill-rule:evenodd;stroke:#000000;stroke-width:0.26458332px;stroke-linecap:butt;stroke-linejoin:miter;stroke-opacity:1"
       d="m 260.33739,103.09315 c -25.53686,1.50307 -61.17811,-0.98147 -90.40664,-0.3596 -1.34927,10.13279 1.55832,22.78713 0,30.56607 28.61196,-2.33534 63.79016,0 90.76682,0 -0.35409,-9.12934 -0.36018,-21.32275 -0.36018,-30.20647 z"
       id="path478"
       inkscape:connector-curvature="0"
       sodipodi:nodetypes="ccccc" />
    <g
       id="g3773"
       transform="translate(7.8380317,-4.8097013)">
      <path
         inkscape:connector-curvature="0"
         id="path494-3"
         d="m 203.25914,112.1902 c -0.68979,4.9513 -2.97028,4.44984 2.16486,4.44984"
         style="fill:none;fill-rule:evenodd;stroke:#000000;stroke-width:0.26458332px;stroke-linecap:butt;stroke-linejoin:miter;stroke-opacity:1" />
      <path
         inkscape:connector-curvature="0"
         id="path496"
         d="m 210.13576,113.20731 c -2.2609,-1.77195 -4.37346,4.47166 -0.76407,2.6699"
         style="fill:none;fill-rule:evenodd;stroke:#000000;stroke-width:0.26458332px;stroke-linecap:butt;stroke-linejoin:miter;stroke-opacity:1" />
      <path
         inkscape:connector-curvature="0"
         id="path498"
         d="m 211.79125,116.5129 c -0.52771,1.0537 1.05707,-2.83756 1.01875,-3.43272 3.99974,-1.65182 3.23415,5.44136 -1.65548,3.81413"
         style="fill:none;fill-rule:evenodd;stroke:#000000;stroke-width:0.26458332px;stroke-linecap:butt;stroke-linejoin:miter;stroke-opacity:1" />
    </g>
    <path
       style="fill:none;fill-rule:evenodd;stroke:#000000;stroke-width:0.26458332px;stroke-linecap:butt;stroke-linejoin:miter;stroke-opacity:1"
       d="m 177.81216,131.54162 c -0.29619,0.8869 1.61861,-0.4101 1.79507,-0.93849 0.2321,-0.69498 -1.20682,-0.522 -1.36767,-0.68254 -0.0693,-0.0692 0.5125,-0.92745 0.25644,-1.19444 0.52631,0.0249 1.07006,-0.12849 1.45315,-0.25595"
       id="path1526"
       inkscape:connector-curvature="0" />
    <path
       style="fill:none;fill-rule:evenodd;stroke:#000000;stroke-width:0.26458332px;stroke-linecap:butt;stroke-linejoin:miter;stroke-opacity:1"
       d="m 180.12011,129.494 c 1.04118,3.34657 1.09164,1.08247 1.70959,-0.76785"
       id="path1528"
       inkscape:connector-curvature="0" />
    <path
       style="fill:none;fill-rule:evenodd;stroke:#000000;stroke-width:0.26458332px;stroke-linecap:butt;stroke-linejoin:miter;stroke-opacity:1"
       d="m 187.72777,129.15274 c -2.55057,-0.30023 2.26547,2.04761 -1.28219,2.04761"
       id="path1530"
       inkscape:connector-curvature="0" />
    <path
       style="fill:none;fill-rule:evenodd;stroke:#000000;stroke-width:0.26458332px;stroke-linecap:butt;stroke-linejoin:miter;stroke-opacity:1"
       d="m 188.4116,130.9444 c 0.29553,-0.59001 0.37266,-1.31294 0.25644,-1.9623 2.49087,-0.0776 0.49639,2.0985 -0.0855,2.38888"
       id="path1532"
       inkscape:connector-curvature="0" />
    <path
       style="fill:none;fill-rule:evenodd;stroke:#000000;stroke-width:0.26458332px;stroke-linecap:butt;stroke-linejoin:miter;stroke-opacity:1"
       d="m 190.12118,131.28566 c 0.0962,-0.70062 0.33575,-1.42573 0.51288,-2.13292 0.36513,-1.45773 0.47031,1.32294 0.59836,1.70634"
       id="path1534"
       inkscape:connector-curvature="0" />
    <path
       style="fill:none;fill-rule:evenodd;stroke:#000000;stroke-width:0.26458332px;stroke-linecap:butt;stroke-linejoin:miter;stroke-opacity:1"
       d="m 190.29215,130.34717 c 0.28802,-0.0383 0.57912,-0.0789 0.85479,-0.17063"
       id="path1536"
       inkscape:connector-curvature="0" />
    <path
       style="fill:none;fill-rule:evenodd;stroke:#000000;stroke-width:0.26458332px;stroke-linecap:butt;stroke-linejoin:miter;stroke-opacity:1"
       d="m 197.99417,129.15274 c -3.0355,0.43594 2.06494,1.70634 -1.02575,1.70634"
       id="path1540"
       inkscape:connector-curvature="0" />
    <path
       style="fill:none;fill-rule:evenodd;stroke:#000000;stroke-width:0.26458332px;stroke-linecap:butt;stroke-linejoin:miter;stroke-opacity:1"
       d="m 199.44731,129.23805 c -1.39402,0.40509 -1.00111,2.20596 0.68384,1.36508"
       id="path1542"
       inkscape:connector-curvature="0" />
    <path
       style="fill:none;fill-rule:evenodd;stroke:#000000;stroke-width:0.26458332px;stroke-linecap:butt;stroke-linejoin:miter;stroke-opacity:1"
       d="m 200.64403,129.06742 c 0.43738,1.5847 -0.60003,2.36797 1.36766,1.87698"
       id="path1544"
       inkscape:connector-curvature="0" />
    <path
       style="fill:none;fill-rule:evenodd;stroke:#000000;stroke-width:0.26458332px;stroke-linecap:butt;stroke-linejoin:miter;stroke-opacity:1"
       d="m 208.56201,129.40869 c -1.06544,0.005 -2.50919,1.36507 -0.17097,1.36507"
       id="path1546"
       inkscape:connector-curvature="0" />
    <path
       style="fill:none;fill-rule:evenodd;stroke:#000000;stroke-width:0.26458332px;stroke-linecap:butt;stroke-linejoin:miter;stroke-opacity:1"
       d="m 207.96365,130.34717 c 1.02956,-0.37475 0.90404,0.43817 0.51288,1.02381"
       id="path1548"
       inkscape:connector-curvature="0" />
    <path
       style="fill:none;fill-rule:evenodd;stroke:#000000;stroke-width:0.26458332px;stroke-linecap:butt;stroke-linejoin:miter;stroke-opacity:1"
       d="m 209.4168,131.11503 c -0.16244,-0.48638 0.066,-1.02338 0.0855,-1.53571 0.51225,0.37097 0.58934,1.33807 0.68383,1.62103"
       id="path1550"
       inkscape:connector-curvature="0" />
    <path
       style="fill:none;fill-rule:evenodd;stroke:#000000;stroke-width:0.26458332px;stroke-linecap:butt;stroke-linejoin:miter;stroke-opacity:1"
       d="m 210.69899,129.494 c -0.0502,0.53025 -0.34192,1.39476 -0.34192,1.62103"
       id="path1552"
       inkscape:connector-curvature="0" />
    <path
       style="fill:none;fill-rule:evenodd;stroke:#000000;stroke-width:0.26458332px;stroke-linecap:butt;stroke-linejoin:miter;stroke-opacity:1"
       d="m 211.04091,131.02971 c 0,0.45567 0.27503,-1.2282 0.42739,-1.62102 1.88173,0.68176 0.13632,2.04761 -0.76931,2.04761"
       id="path1554"
       inkscape:connector-curvature="0" />
    <path
       style="fill:none;fill-rule:evenodd;stroke:#000000;stroke-width:0.26458332px;stroke-linecap:butt;stroke-linejoin:miter;stroke-opacity:1"
       d="m 210.13798,132.3535 c 1.12794,19.50487 -2.09046,49.08855 0.17814,67.23735"
       id="path3645"
       inkscape:connector-curvature="0"
       sodipodi:nodetypes="cc" />
    <path
       style="fill:none;fill-rule:evenodd;stroke:#000000;stroke-width:0.26458332px;stroke-linecap:butt;stroke-linejoin:miter;stroke-opacity:1"
       d="m 199.80603,132.53164 c -0.69359,7.95585 0.17814,27.91783 0.17814,36.59777"
       id="path3665"
       inkscape:connector-curvature="0"
       sodipodi:nodetypes="cc" />
    <path
       style="fill:none;fill-rule:evenodd;stroke:#000000;stroke-width:0.26458332px;stroke-linecap:butt;stroke-linejoin:miter;stroke-opacity:1"
       d="m 190.00849,132.53164 c -0.67208,9.60041 1e-5,21.41326 1e-5,30.18483"
       id="path3667"
       inkscape:connector-curvature="0"
       sodipodi:nodetypes="cc" />
    <path
       style="fill:none;fill-rule:evenodd;stroke:#000000;stroke-width:0.26458332px;stroke-linecap:butt;stroke-linejoin:miter;stroke-opacity:1"
       d="m 180.03282,132.53164 c 0.17478,4.61922 0.41054,19.95316 -0.17814,24.66259"
       id="path3669"
       inkscape:connector-curvature="0"
       sodipodi:nodetypes="cc" />
    <circle
       id="path3671"
       style="fill:#000000;stroke:none"
       cx="179.49841"
       cy="157.37238"
       r="0.75" />
    <circle
       id="path3673"
       style="fill:#000000;stroke:none"
       cx="199.98418"
       cy="168.95128"
       r="0.75" />
    <circle
       id="path3675"
       style="fill:#000000;stroke:none"
       cx="189.89334"
       cy="162.59052"
       r="0.75" />
    <circle
       id="path3677"
       style="fill:#000000;stroke:none"
       cx="210.31612"
       cy="199.41272"
       r="0.75" />
    <g
       id="g3798"
       transform="translate(0,-4.9125157)">
      <path
         inkscape:connector-curvature="0"
         id="path3700"
         d="m 232.8185,145.25215 c -0.0471,1.16064 -0.25192,2.23389 -0.25192,3.40098"
         style="fill:none;fill-rule:evenodd;stroke:#000000;stroke-width:0.26458332px;stroke-linecap:butt;stroke-linejoin:miter;stroke-opacity:1" />
      <path
         inkscape:connector-curvature="0"
         id="path3702"
         d="m 231.181,145.63004 c 0.31979,-0.30665 3.6481,-0.81635 2.77116,-0.37789"
         style="fill:none;fill-rule:evenodd;stroke:#000000;stroke-width:0.26458332px;stroke-linecap:butt;stroke-linejoin:miter;stroke-opacity:1" />
      <path
         inkscape:connector-curvature="0"
         id="path3704"
         d="m 234.83389,148.52716 c -0.18501,-0.37002 0.15737,-2.13553 0.12597,-3.14904 0.0285,-0.17502 1.94145,-0.59284 1.25962,-0.25193"
         style="fill:none;fill-rule:evenodd;stroke:#000000;stroke-width:0.26458332px;stroke-linecap:butt;stroke-linejoin:miter;stroke-opacity:1" />
      <path
         inkscape:connector-curvature="0"
         id="path3706"
         d="m 234.83389,147.01562 c 0.65846,0.0515 1.12369,-0.12596 1.76347,-0.12596"
         style="fill:none;fill-rule:evenodd;stroke:#000000;stroke-width:0.26458332px;stroke-linecap:butt;stroke-linejoin:miter;stroke-opacity:1" />
      <path
         inkscape:connector-curvature="0"
         id="path3708"
         d="m 234.83389,149.03101 c 0.75288,-0.41115 1.77664,-0.62981 2.6452,-0.62981"
         style="fill:none;fill-rule:evenodd;stroke:#000000;stroke-width:0.26458332px;stroke-linecap:butt;stroke-linejoin:miter;stroke-opacity:1" />
      <path
         inkscape:connector-curvature="0"
         id="path3716"
         d="m 238.36083,148.4012 c 0.1002,-0.86654 0.25192,-1.79243 0.25192,-2.6452 0,-2.30144 1.38559,3.03379 1.38559,3.14905"
         style="fill:none;fill-rule:evenodd;stroke:#000000;stroke-width:0.26458332px;stroke-linecap:butt;stroke-linejoin:miter;stroke-opacity:1" />
      <path
         inkscape:connector-curvature="0"
         id="path3718"
         d="m 238.36083,147.39351 c 0.5204,0.0564 0.76422,-0.12596 1.25962,-0.12596"
         style="fill:none;fill-rule:evenodd;stroke:#000000;stroke-width:0.26458332px;stroke-linecap:butt;stroke-linejoin:miter;stroke-opacity:1" />
      <path
         inkscape:connector-curvature="0"
         id="path3720"
         d="m 241.38392,148.27524 c 0.51354,0.25677 1.51782,-0.11341 1.13365,-0.88173 -0.4805,-0.96101 -1.4937,-0.37789 -1.38558,-0.37789 5.1e-4,0 0.19683,-1.50954 0.25193,-1.51154 0.60158,-0.38311 1.97017,-0.0226 2.01539,0"
         style="fill:none;fill-rule:evenodd;stroke:#000000;stroke-width:0.26458332px;stroke-linecap:butt;stroke-linejoin:miter;stroke-opacity:1" />
      <path
         inkscape:connector-curvature="0"
         id="path3722"
         d="m 244.15508,145.12619 c 1.99981,-0.27914 0.80337,2.04615 0.37788,2.89713"
         style="fill:none;fill-rule:evenodd;stroke:#000000;stroke-width:0.26458332px;stroke-linecap:butt;stroke-linejoin:miter;stroke-opacity:1" />
      <path
         inkscape:connector-curvature="0"
         id="path3724"
         d="m 243.39931,146.7637 c 0.45824,0.0341 2.49547,-0.11408 2.01539,0.12596"
         style="fill:none;fill-rule:evenodd;stroke:#000000;stroke-width:0.26458332px;stroke-linecap:butt;stroke-linejoin:miter;stroke-opacity:1" />
      <path
         inkscape:connector-curvature="0"
         id="path3726"
         d="m 247.43009,145.37812 c -3.33782,2.69518 0.79636,3.48214 0.25192,2.39327 -0.30998,-0.61996 -1.22271,0.0522 -1.38558,0.37789"
         style="fill:none;fill-rule:evenodd;stroke:#000000;stroke-width:0.26458332px;stroke-linecap:butt;stroke-linejoin:miter;stroke-opacity:1" />
      <path
         inkscape:connector-curvature="0"
         id="path3728"
         d="m 248.68971,145.63004 c 0.16795,0 0.3359,0 0.50385,0 0.11945,0 0.6797,-0.0761 0.75577,0 0.1624,0.1624 -0.41676,2.04493 -0.50385,2.39328 -0.0797,0.31866 0,1.55235 0,1.00769"
         style="fill:none;fill-rule:evenodd;stroke:#000000;stroke-width:0.26458332px;stroke-linecap:butt;stroke-linejoin:miter;stroke-opacity:1" />
      <path
         inkscape:connector-curvature="0"
         id="path3730"
         d="m 248.94163,147.39351 c 0.35856,-0.32293 2.29008,0 1.76347,0"
         style="fill:none;fill-rule:evenodd;stroke:#000000;stroke-width:0.26458332px;stroke-linecap:butt;stroke-linejoin:miter;stroke-opacity:1" />
    </g>
    <path
       style="fill:none;fill-rule:evenodd;stroke:#000000;stroke-width:0.26458332px;stroke-linecap:butt;stroke-linejoin:miter;stroke-opacity:1"
       d="m 213.16844,115.39917 c 0.37241,-0.39398 0.74319,-0.529 1.0077,0 0.32729,0.65459 -0.75577,1.30373 -0.75577,1.13366 0,-0.16816 1.9073,0.61193 1.38558,1.13366 -0.72229,0.72229 -2.82235,0.37789 -2.51924,0.37789"
       id="path3779"
       inkscape:connector-curvature="0" />
    <path
       style="fill:none;fill-rule:evenodd;stroke:#000000;stroke-width:0.26458332px;stroke-linecap:butt;stroke-linejoin:miter;stroke-opacity:1"
       d="m 216.06557,115.77706 c 0.51432,-0.48162 1.01563,-0.45921 1.6375,-0.25192 1.34634,0.44878 -1.52615,1.91865 -1.76347,2.39327 -0.19454,0.38909 0.99427,0.76921 1.25962,0.50385 0.17064,-0.17063 -0.29923,-1.14961 -0.37788,-1.38558 -0.31646,-0.94937 -1.58164,-0.15846 -0.75577,-1.25962 z"
       id="path3781"
       inkscape:connector-curvature="0" />
    <path
       style="fill:none;fill-rule:evenodd;stroke:#000000;stroke-width:0.26458332px;stroke-linecap:butt;stroke-linejoin:miter;stroke-opacity:1"
       d="m 238.99064,145.63004 c -0.7121,0.27222 -1.09261,0.84352 -1.25962,1.51154 -0.60035,2.40141 1.13366,1.16422 1.13366,0.88174 0,-0.48975 -1.77716,-1.287 -1.25962,-0.25193"
       id="path3800"
       inkscape:connector-curvature="0" />
    <path
       style="fill:none;fill-rule:evenodd;stroke:#000000;stroke-width:0.26458332px;stroke-linecap:butt;stroke-linejoin:miter;stroke-opacity:1"
       d="m 240.37622,146.7637 c -0.16352,0.169 -0.54579,0.67187 -0.37788,1.00769 0.5443,1.08861 2.29101,0.0948 2.01539,-1.00769 -0.36974,-1.47894 -2.02015,-1.91318 -1.63751,0 z"
       id="path3802"
       inkscape:connector-curvature="0" />
    <path
       style="fill:none;fill-rule:evenodd;stroke:#000000;stroke-width:0.26458332px;stroke-linecap:butt;stroke-linejoin:miter;stroke-opacity:1"
       d="m 243.14738,145.50408 c -0.0578,0.73935 0.12597,1.40864 0.12597,2.14135 0,0.9871 0.0284,-0.0142 0.75577,-0.37788 0.46045,-0.23023 0.70631,1.10661 0.62981,1.25961"
       id="path3804"
       inkscape:connector-curvature="0" />
    <path
       style="fill:none;fill-rule:evenodd;stroke:#000000;stroke-width:0.26458332px;stroke-linecap:butt;stroke-linejoin:miter;stroke-opacity:1"
       d="m 235.08582,145.756 c -1.65674,1.9357 -0.84069,3.35852 1.25962,4.40867"
       id="path3810"
       inkscape:connector-curvature="0" />
    <path
       style="fill:none;fill-rule:evenodd;stroke:#000000;stroke-width:0.26458332px;stroke-linecap:butt;stroke-linejoin:miter;stroke-opacity:1"
       d="m 245.54066,145.00023 c 0.95051,1.23318 2.26942,4.91252 -0.37789,4.91252"
       id="path3812"
       inkscape:connector-curvature="0" />
    <path
       style="fill:none;fill-rule:evenodd;stroke:#000000;stroke-width:0.26458332px;stroke-linecap:butt;stroke-linejoin:miter;stroke-opacity:1"
       d="m 211.53094,113.25782 c -1.5413,1.49904 -2.10655,5.72188 0.37788,6.55002"
       id="path3814"
       inkscape:connector-curvature="0" />
    <path
       style="fill:none;fill-rule:evenodd;stroke:#000000;stroke-width:0.26458332px;stroke-linecap:butt;stroke-linejoin:miter;stroke-opacity:1"
       d="m 221.73385,113.50975 c 1.45578,2.81016 2.76308,4.54271 0.25193,7.05386"
       id="path3816"
       inkscape:connector-curvature="0" />
    <path
       style="fill:none;fill-rule:evenodd;stroke:#000000;stroke-width:0.26458332px;stroke-linecap:butt;stroke-linejoin:miter;stroke-opacity:1"
       d="m 219.46654,115.14725 c -0.0449,0.34371 -0.36465,3.14905 -0.50385,3.14905 -0.085,0 0.34315,-1.54628 0.75577,-1.13366 0.39781,0.39781 0.52092,1.16781 0.75577,1.63751"
       id="path3818"
       inkscape:connector-curvature="0" />
  </g>
</svg>
