<?xml version="1.0" encoding="UTF-8" standalone="no"?>
<!-- Created with Inkscape (http://www.inkscape.org/) -->

<svg
   xmlns:dc="http://purl.org/dc/elements/1.1/"
   xmlns:cc="http://creativecommons.org/ns#"
   xmlns:rdf="http://www.w3.org/1999/02/22-rdf-syntax-ns#"
   xmlns:svg="http://www.w3.org/2000/svg"
   xmlns="http://www.w3.org/2000/svg"
   xmlns:sodipodi="http://sodipodi.sourceforge.net/DTD/sodipodi-0.dtd"
   xmlns:inkscape="http://www.inkscape.org/namespaces/inkscape"
   width="29.700001cm"
   height="17.181641cm"
   viewBox="0 0 297 171.81641"
   version="1.1"
   id="svg8"
   sodipodi:docname="text-lcd-parallel-4.svg"
   inkscape:version="0.92.4 5da689c313, 2019-01-14">
  <defs
     id="defs2" />
  <sodipodi:namedview
     id="base"
     pagecolor="#ffffff"
     bordercolor="#666666"
     borderopacity="1.0"
     inkscape:pageopacity="0.0"
     inkscape:pageshadow="2"
     inkscape:zoom="0.52512555"
     inkscape:cx="658.33696"
     inkscape:cy="182.30178"
     inkscape:document-units="mm"
     inkscape:current-layer="layer1"
     showgrid="true"
     inkscape:snap-global="false"
     inkscape:window-width="1366"
     inkscape:window-height="768"
     inkscape:window-x="0"
     inkscape:window-y="0"
     inkscape:window-maximized="1"
     units="cm"
     fit-margin-top="1"
     fit-margin-bottom="1"
     fit-margin-left="0"
     fit-margin-right="0">
    <inkscape:grid
       type="xygrid"
       id="grid1021"
       units="cm"
       spacingx="5"
       spacingy="5"
       empspacing="1"
       empcolor="#0000ff"
       empopacity="0.10588235"
       originx="-30.397667"
       originy="-87.255341" />
  </sodipodi:namedview>
  <metadata
     id="metadata5">
    <rdf:RDF>
      <cc:Work
         rdf:about="">
        <dc:format>image/svg+xml</dc:format>
        <dc:type
           rdf:resource="http://purl.org/dc/dcmitype/StillImage" />
        <dc:title></dc:title>
      </cc:Work>
    </rdf:RDF>
  </metadata>
  <g
     inkscape:label="Layer 1"
     inkscape:groupmode="layer"
     id="layer1"
     transform="translate(-30.397668,-37.928303)">
    <g
       id="g1386"
       transform="matrix(1.4897748,0,0,1.490182,-93.012612,-94.024344)"
       style="stroke-width:0.67115068">
      <path
         inkscape:connector-curvature="0"
         id="path4646"
         d="m 94.457571,137.17283 c 1.780018,-0.0574 4.149312,-0.127 4.810852,0.53454"
         style="fill:none;fill-rule:evenodd;stroke:#000000;stroke-width:0.17757528px;stroke-linecap:butt;stroke-linejoin:miter;stroke-opacity:1" />
      <path
         inkscape:connector-curvature="0"
         id="path4648"
         d="m 94.190302,142.78549 c 1.185267,-0.75476 6.513548,-0.18318 5.612659,0.26727"
         style="fill:none;fill-rule:evenodd;stroke:#000000;stroke-width:0.17757528px;stroke-linecap:butt;stroke-linejoin:miter;stroke-opacity:1" />
      <path
         inkscape:connector-curvature="0"
         id="path4650"
         d="m 94.457571,147.86361 c 1.829747,-0.0926 5.356616,0.006 5.879929,0.26727"
         style="fill:none;fill-rule:evenodd;stroke:#000000;stroke-width:0.17757528px;stroke-linecap:butt;stroke-linejoin:miter;stroke-opacity:1" />
      <path
         inkscape:connector-curvature="0"
         id="path4652"
         d="m 96.061189,155.61442 c 1.228852,-0.45873 6.112721,-0.38366 5.345391,0"
         style="fill:none;fill-rule:evenodd;stroke:#000000;stroke-width:0.17757528px;stroke-linecap:butt;stroke-linejoin:miter;stroke-opacity:1" />
      <path
         inkscape:connector-curvature="0"
         id="path4654"
         d="m 95.79392,160.15801 c 1.15755,-0.8649 7.7599,-0.53454 5.87993,-0.53454"
         style="fill:none;fill-rule:evenodd;stroke:#000000;stroke-width:0.17757528px;stroke-linecap:butt;stroke-linejoin:miter;stroke-opacity:1" />
      <path
         inkscape:connector-curvature="0"
         id="path4656"
         d="m 96.862998,166.3052 c 1.592469,-0.18876 3.207232,0 4.810852,0"
         style="fill:none;fill-rule:evenodd;stroke:#000000;stroke-width:0.17757528px;stroke-linecap:butt;stroke-linejoin:miter;stroke-opacity:1" />
      <path
         inkscape:connector-curvature="0"
         id="path4658"
         d="m 96.595727,172.4524 c 1.395166,-0.70337 2.717329,-1.06907 4.276313,-1.06907"
         style="fill:none;fill-rule:evenodd;stroke:#000000;stroke-width:0.17757528px;stroke-linecap:butt;stroke-linejoin:miter;stroke-opacity:1" />
      <path
         inkscape:connector-curvature="0"
         id="path4660"
         d="m 96.862998,178.86687 c 1.548464,-1.39691 4.170062,-1.14959 5.612662,-1.87088"
         style="fill:none;fill-rule:evenodd;stroke:#000000;stroke-width:0.17757528px;stroke-linecap:butt;stroke-linejoin:miter;stroke-opacity:1" />
      <path
         inkscape:connector-curvature="0"
         id="path4662"
         d="m 97.130267,183.41045 c 1.405406,-0.35796 2.826033,-0.8018 4.276313,-0.8018"
         style="fill:none;fill-rule:evenodd;stroke:#000000;stroke-width:0.17757528px;stroke-linecap:butt;stroke-linejoin:miter;stroke-opacity:1" />
      <g
         transform="rotate(-15,-112.59438,-88.893331)"
         id="g4792"
         style="stroke-width:0.67115068">
        <g
           transform="rotate(2.4286334,56.522939,176.53944)"
           id="g4736"
           style="stroke-width:0.67115068">
          <path
             inkscape:connector-curvature="0"
             id="path4664"
             d="m 43.832203,167.90882 c 1.149455,0.0419 -2.928054,9.88897 -2.138156,9.88897 0.24416,0 2.405425,-9.01225 2.405425,-7.75081 0,2.22002 1.761355,6.87014 0.53454,7.48355"
             style="fill:none;fill-rule:evenodd;stroke:#000000;stroke-width:0.17757528px;stroke-linecap:butt;stroke-linejoin:miter;stroke-opacity:1" />
          <path
             inkscape:connector-curvature="0"
             id="path4666"
             d="m 41.694047,175.1251 c 1.236331,-0.088 6.448358,-1.62056 4.810849,-0.80181"
             style="fill:none;fill-rule:evenodd;stroke:#000000;stroke-width:0.17757528px;stroke-linecap:butt;stroke-linejoin:miter;stroke-opacity:1" />
          <path
             inkscape:connector-curvature="0"
             id="path4668"
             d="m 47.573975,174.05602 c 1.261467,6.60333 -0.712807,1.39577 2.672696,0.26727"
             style="fill:none;fill-rule:evenodd;stroke:#000000;stroke-width:0.17757528px;stroke-linecap:butt;stroke-linejoin:miter;stroke-opacity:1" />
          <path
             inkscape:connector-curvature="0"
             id="path4670"
             d="m 53.721174,175.1251 c -3.07018,-0.84606 -5.127098,6.19617 -1.069078,2.13816"
             style="fill:none;fill-rule:evenodd;stroke:#000000;stroke-width:0.17757528px;stroke-linecap:butt;stroke-linejoin:miter;stroke-opacity:1" />
          <path
             inkscape:connector-curvature="0"
             id="path4672"
             d="m 55.057521,170.84879 c -0.688253,1.89746 -1.069078,5.62348 -1.069078,6.949"
             style="fill:none;fill-rule:evenodd;stroke:#000000;stroke-width:0.17757528px;stroke-linecap:butt;stroke-linejoin:miter;stroke-opacity:1" />
          <path
             inkscape:connector-curvature="0"
             id="path4674"
             d="m 56.928408,174.32329 c -2.120736,7.91493 4.319254,-2.75857 2.138156,1.60362 -0.284538,0.56907 -0.05583,1.44801 -0.267269,1.87088"
             style="fill:none;fill-rule:evenodd;stroke:#000000;stroke-width:0.17757528px;stroke-linecap:butt;stroke-linejoin:miter;stroke-opacity:1" />
          <path
             inkscape:connector-curvature="0"
             id="path4676"
             d="m 62.273798,174.59056 c -0.204396,0.88525 -0.128225,1.86007 -0.534537,2.6727"
             style="fill:none;fill-rule:evenodd;stroke:#000000;stroke-width:0.17757528px;stroke-linecap:butt;stroke-linejoin:miter;stroke-opacity:1" />
          <path
             inkscape:connector-curvature="0"
             id="path4680"
             d="m 64.144686,174.59056 c -0.157549,0.23707 -0.914649,4.00904 -1.336347,4.00904 -1.152332,0 2.899505,-3.78223 3.474503,-3.20723 0.835601,0.8356 -0.782262,4.77176 -0.267269,3.74177"
             style="fill:none;fill-rule:evenodd;stroke:#000000;stroke-width:0.17757528px;stroke-linecap:butt;stroke-linejoin:miter;stroke-opacity:1" />
          <path
             inkscape:connector-curvature="0"
             id="path4684"
             d="m 67.88646,176.72872 c -3.713496,7.45199 9.776415,-2.44411 0,0 z"
             style="fill:none;fill-rule:evenodd;stroke:#000000;stroke-width:0.17757528px;stroke-linecap:butt;stroke-linejoin:miter;stroke-opacity:1" />
        </g>
      </g>
      <path
         inkscape:connector-curvature="0"
         id="path4745"
         d="m 132.32425,130.50149 c -0.17397,0.0169 -0.0638,1.41741 -0.0945,1.41741 -0.20956,0 1.88582,-0.0864 1.41742,0.85045 -0.31397,0.62794 -2.69112,1.41348 -2.17337,0.37798"
         style="fill:none;fill-rule:evenodd;stroke:#000000;stroke-width:0.17757528px;stroke-linecap:butt;stroke-linejoin:miter;stroke-opacity:1" />
      <path
         inkscape:connector-curvature="0"
         id="path4747"
         d="m 132.22976,130.87947 c 0.46754,-0.005 2.04646,-0.36177 1.70089,-0.18899"
         style="fill:none;fill-rule:evenodd;stroke:#000000;stroke-width:0.17757528px;stroke-linecap:butt;stroke-linejoin:miter;stroke-opacity:1" />
      <path
         inkscape:connector-curvature="0"
         id="path4749"
         d="m 134.59211,131.63542 c 0.63726,3.61104 0.9453,0.18863 1.70089,-0.56696"
         style="fill:none;fill-rule:evenodd;stroke:#000000;stroke-width:0.17757528px;stroke-linecap:butt;stroke-linejoin:miter;stroke-opacity:1" />
      <path
         inkscape:connector-curvature="0"
         id="path4772"
         d="m 119.66205,185.9695 c -0.46742,-0.18889 -0.82668,0.0469 -1.03943,0.47247 -0.90951,1.81902 0.91841,1.02617 1.70089,1.41741"
         style="fill:none;fill-rule:evenodd;stroke:#000000;stroke-width:0.17757528px;stroke-linecap:butt;stroke-linejoin:miter;stroke-opacity:1" />
      <path
         inkscape:connector-curvature="0"
         id="path4774"
         d="m 119.18958,187.29241 c 0.92946,-0.67796 1.13393,-0.21845 1.13393,0.66146"
         style="fill:none;fill-rule:evenodd;stroke:#000000;stroke-width:0.17757528px;stroke-linecap:butt;stroke-linejoin:miter;stroke-opacity:1" />
      <path
         inkscape:connector-curvature="0"
         id="path4776"
         d="m 121.36294,187.85938 c -0.21438,-0.42879 -0.0384,-1.3314 -0.18898,-1.88988 0.32162,0.0902 0.44717,0.91964 0.66146,1.13393 0.28933,0.28933 0.42827,0.82835 0.85044,1.03943 0.0188,0.009 0.2384,0.18899 0.18899,0.18899 -0.19487,0 0.30898,-2.65858 -0.0945,-2.45685"
         style="fill:none;fill-rule:evenodd;stroke:#000000;stroke-width:0.17757528px;stroke-linecap:butt;stroke-linejoin:miter;stroke-opacity:1" />
      <path
         inkscape:connector-curvature="0"
         id="path4778"
         d="m 123.81979,186.25298 c -0.0658,0.51226 -0.021,1.73256 0,1.79539 1.10774,-0.7385 2.71407,-2.50253 0,-1.79539 z"
         style="fill:none;fill-rule:evenodd;stroke:#000000;stroke-width:0.17757528px;stroke-linecap:butt;stroke-linejoin:miter;stroke-opacity:1" />
      <path
         sodipodi:nodetypes="ccssccscsc"
         inkscape:connector-curvature="0"
         id="path5768"
         d="m 101.25823,129.97447 c 5.10196,-1.49026 10.86147,0.15837 15.87121,-1.51154 2.38256,-0.79419 17.22519,-3.18064 19.39814,-1.0077 2.5572,2.5572 0.50384,17.56295 0.50384,20.40584 0,11.4277 -1.60659,24.75035 1.51155,35.01741 0.34338,0.68677 0.75037,6.55542 0.50384,6.80195 -1.47019,1.47019 -14.12322,1.25962 -16.62697,1.25962 -4.56124,0 -17.06717,2.83481 -20.65776,-0.75578 -0.39408,-0.39407 0,-8.53961 0,-9.5731 0,-14.70108 -4.83088,-37.6556 -0.50385,-50.6367 z"
         style="fill:none;fill-rule:evenodd;stroke:#000000;stroke-width:0.17757528px;stroke-linecap:butt;stroke-linejoin:miter;stroke-opacity:1" />
      <path
         inkscape:connector-curvature="0"
         id="path1429"
         d="m 97.157495,187.57537 c 1.394114,-0.23415 2.901745,0 4.156745,0"
         style="fill:none;fill-rule:evenodd;stroke:#000000;stroke-width:0.17757528px;stroke-linecap:butt;stroke-linejoin:miter;stroke-opacity:1" />
      <path
         sodipodi:nodetypes="ccccc"
         inkscape:connector-curvature="0"
         id="path478"
         d="m 268.74509,92.530467 c -25.25953,1.489163 -60.51371,-0.972402 -89.42482,-0.356274 -1.33462,10.039047 1.54139,22.576327 0,30.283307 28.30123,-2.31373 63.0974,0 89.78109,0 -0.35024,-9.04489 -0.35627,-21.12549 -0.35627,-29.927033 z"
         style="fill:none;fill-rule:evenodd;stroke:#000000;stroke-width:0.17757528px;stroke-linecap:butt;stroke-linejoin:miter;stroke-opacity:1" />
      <path
         inkscape:connector-curvature="0"
         id="path494"
         d="m 212.28671,101.54336 c -0.6823,4.9055 -2.93802,4.40867 2.14135,4.40867"
         style="fill:none;fill-rule:evenodd;stroke:#000000;stroke-width:0.17757528px;stroke-linecap:butt;stroke-linejoin:miter;stroke-opacity:1" />
      <path
         inkscape:connector-curvature="0"
         id="path496"
         d="m 219.08865,102.55106 c -2.23635,-1.75556 -4.32596,4.43029 -0.75577,2.6452"
         style="fill:none;fill-rule:evenodd;stroke:#000000;stroke-width:0.17757528px;stroke-linecap:butt;stroke-linejoin:miter;stroke-opacity:1" />
      <path
         inkscape:connector-curvature="0"
         id="path498"
         d="m 220.72616,105.82607 c -0.52198,1.04395 1.04559,-2.81131 1.00769,-3.40097 3.9563,-1.63653 3.19903,5.39103 -1.6375,3.77885"
         style="fill:none;fill-rule:evenodd;stroke:#000000;stroke-width:0.17757528px;stroke-linecap:butt;stroke-linejoin:miter;stroke-opacity:1" />
      <path
         inkscape:connector-curvature="0"
         id="path502"
         d="m 137.99247,136.8866 c 15.45473,0.0795 32.74478,-0.17814 47.02819,-0.17814 0.62907,-4.262 -0.27453,-11.11159 0.89068,-14.60724"
         style="fill:none;fill-rule:evenodd;stroke:#000000;stroke-width:0.17757528px;stroke-linecap:butt;stroke-linejoin:miter;stroke-opacity:1" />
      <path
         sodipodi:nodetypes="ccc"
         inkscape:connector-curvature="0"
         id="path506"
         d="m 137.63619,142.05258 c 17.19504,-1.92017 35.33192,-0.53442 52.3723,-0.53442 -0.60595,-6.66065 0.31814,-13.10004 0.53443,-19.59507"
         style="fill:none;fill-rule:evenodd;stroke:#000000;stroke-width:0.17757528px;stroke-linecap:butt;stroke-linejoin:miter;stroke-opacity:1" />
      <path
         sodipodi:nodetypes="ccc"
         inkscape:connector-curvature="0"
         id="path518"
         d="m 137.21339,147.01562 c 17.86425,-3.68395 57.2111,-0.0488 57.9425,-1.51154 0.61184,-8.27757 -1.65366,-13.97316 0.25192,-23.68085"
         style="fill:none;fill-rule:evenodd;stroke:#000000;stroke-width:0.17757528px;stroke-linecap:butt;stroke-linejoin:miter;stroke-opacity:1" />
      <path
         sodipodi:nodetypes="ccsc"
         inkscape:connector-curvature="0"
         id="path520"
         d="m 136.96147,151.92814 c 4.91404,-0.59789 61.54059,-2.21733 63.23289,-2.39328 0.58644,-1.09982 0.11963,-5.98331 0.11963,-8.00568 0,-6.94216 -0.13229,-13.24632 -0.13229,-19.92731"
         style="fill:none;fill-rule:evenodd;stroke:#000000;stroke-width:0.17757528px;stroke-linecap:butt;stroke-linejoin:miter;stroke-opacity:1" />
      <path
         inkscape:connector-curvature="0"
         id="path532"
         d="m 137.96916,176.99456 c 14.00807,-2.94916 81.27857,4.62748 87.16566,-1.25962 0.0829,-0.0829 -0.50384,-5.8574 -0.50384,-7.05387 0,-15.82703 -0.91515,-31.93787 0.25192,-47.10976"
         style="fill:none;fill-rule:evenodd;stroke:#000000;stroke-width:0.17757528px;stroke-linecap:butt;stroke-linejoin:miter;stroke-opacity:1" />
      <path
         sodipodi:nodetypes="cc"
         inkscape:connector-curvature="0"
         id="path538"
         d="m 229.41753,121.82323 c 3.92123,23.98258 -2.273,51.92233 1.38559,75.70313"
         style="fill:none;fill-rule:evenodd;stroke:#000000;stroke-width:0.17757528px;stroke-linecap:butt;stroke-linejoin:miter;stroke-opacity:1" />
      <path
         sodipodi:nodetypes="cssc"
         inkscape:connector-curvature="0"
         id="path540"
         d="m 138.47301,182.53689 c 11.28186,-3.07204 92.80774,1.66372 95.73108,-1.25962 1.50879,-1.50879 0.78552,-21.49003 0.75577,-23.42892 -0.21142,-13.7748 1.23315,-23.01726 0.25192,-35.77319"
         style="fill:none;fill-rule:evenodd;stroke:#000000;stroke-width:0.17757528px;stroke-linecap:butt;stroke-linejoin:miter;stroke-opacity:1" />
      <path
         sodipodi:nodetypes="cc"
         inkscape:connector-curvature="0"
         id="path546"
         d="m 240.0289,121.95553 c 2.44927,24.53988 0.34732,52.48133 0.34732,75.82275"
         style="fill:none;fill-rule:evenodd;stroke:#000000;stroke-width:0.17757528px;stroke-linecap:butt;stroke-linejoin:miter;stroke-opacity:1" />
      <path
         sodipodi:nodetypes="ccc"
         inkscape:connector-curvature="0"
         id="path550"
         d="m 137.96916,132.15211 c 12.39626,-1.86009 105.78865,1.53093 107.5715,-0.25192 0.25031,-2.12076 0.14037,-6.54326 -0.56236,-9.58839"
         style="fill:none;fill-rule:evenodd;stroke:#000000;stroke-width:0.17757528px;stroke-linecap:butt;stroke-linejoin:miter;stroke-opacity:1" />
      <path
         sodipodi:nodetypes="cc"
         inkscape:connector-curvature="0"
         id="path552"
         d="m 250.07529,122.32708 c 0.96295,25.62939 0.37789,51.37737 0.37789,75.4512"
         style="fill:none;fill-rule:evenodd;stroke:#000000;stroke-width:0.17757528px;stroke-linecap:butt;stroke-linejoin:miter;stroke-opacity:1" />
      <path
         sodipodi:nodetypes="ccccc"
         inkscape:connector-curvature="0"
         id="path554"
         d="m 255.61762,122.07516 c -0.29803,24.48638 2.46335,56.4199 0.50384,74.63245 -1.07719,3.61419 -28.42216,-1.68505 -68.55307,2.86817 -3.06286,0 -63.9513,1.23432 -65.58206,-0.39643 -1.67201,-1.67201 -1.07943,-4.03639 -1.24728,-7.92933"
         style="fill:none;fill-rule:evenodd;stroke:#000000;stroke-width:0.17757528px;stroke-linecap:butt;stroke-linejoin:miter;stroke-opacity:1" />
      <path
         sodipodi:nodetypes="cc"
         inkscape:connector-curvature="0"
         id="path562"
         d="m 259.6484,122.32708 c 3.26869,13.08109 -5.86867,8.49737 -14.8788,9.88354"
         style="fill:none;fill-rule:evenodd;stroke:#000000;stroke-width:0.17757528px;stroke-linecap:butt;stroke-linejoin:miter;stroke-opacity:1" />
      <circle
         r="0.75"
         cy="197.65231"
         cx="230.67715"
         style="fill:#000000;stroke:none;stroke-width:0.67115068"
         id="path566" />
      <circle
         r="0.75"
         cy="198.07669"
         cx="240.24315"
         style="fill:#000000;stroke:none;stroke-width:0.67115068"
         id="path570" />
      <circle
         r="0.75"
         cy="197.72041"
         cx="250.39697"
         style="fill:#000000;stroke:none;stroke-width:0.67115068"
         id="path572" />
      <circle
         r="0.75"
         cy="132.16597"
         cx="245.23099"
         style="fill:#000000;stroke:none;stroke-width:0.67115068"
         id="path574" />
      <path
         inkscape:connector-curvature="0"
         id="path582"
         d="m 183.37289,119.07289 c -0.0148,0.0594 -0.0297,0.11876 -0.0445,0.17814 0,0.0297 0.006,0.06 0,0.0891 -0.0587,0.29331 -0.17813,0.59406 -0.17813,0.89068 0,0.13626 0.0116,0.2441 -0.0445,0.35628 -0.0133,0.0266 0,0.11876 0,0.0891 0,-0.0445 0,-0.0891 0,-0.13361 0.80439,-0.20144 1.69803,-1.4869 0.26713,-1.46969 z"
         style="fill:none;fill-rule:evenodd;stroke:#000000;stroke-width:0.17757528px;stroke-linecap:butt;stroke-linejoin:miter;stroke-opacity:1" />
      <path
         inkscape:connector-curvature="0"
         id="path584"
         d="m 184.61988,120.40892 c 0,0.73214 0.1381,-1.25598 0.0445,-1.38056 0.85419,-0.2813 0.97182,0.28734 0.26721,0.75708 -0.0273,0.0182 -0.10285,0.1336 -0.1336,0.1336 -0.0145,0 0.25031,-0.14742 0.31174,-0.17813 0.2407,-0.12035 0.51512,0.12026 0.57894,0.31174 0.1319,0.39571 -0.81656,0.6828 -1.02429,0.57894"
         style="fill:none;fill-rule:evenodd;stroke:#000000;stroke-width:0.17757528px;stroke-linecap:butt;stroke-linejoin:miter;stroke-opacity:1" />
      <path
         inkscape:connector-curvature="0"
         id="path586"
         d="m 186.17855,119.02836 c 0.16162,-0.0523 0.23691,-0.0891 0.40081,-0.0891 0.0751,0 0.254,-0.11547 0.31174,0 0.0882,0.17634 -0.1931,0.53511 -0.22268,0.71255 -0.0351,0.21082 -0.0891,0.4547 -0.0891,0.66801 0,0.10392 0.10391,0.31174 0,0.31174 -0.0612,0 -0.0252,-0.12007 -0.0445,-0.17814"
         style="fill:none;fill-rule:evenodd;stroke:#000000;stroke-width:0.17757528px;stroke-linecap:butt;stroke-linejoin:miter;stroke-opacity:1" />
      <path
         inkscape:connector-curvature="0"
         id="path588"
         d="m 186.22308,119.74091 c 0.25563,-0.0651 0.53413,-0.0221 0.75708,-0.13361"
         style="fill:none;fill-rule:evenodd;stroke:#000000;stroke-width:0.17757528px;stroke-linecap:butt;stroke-linejoin:miter;stroke-opacity:1" />
      <path
         inkscape:connector-curvature="0"
         id="path590"
         d="m 189.02871,120.05265 c -0.002,0.007 -0.0654,0.22267 -0.0445,0.22267 0.0237,0 0.0697,-1.21142 0,-1.38056 0.29218,-0.0139 0.77962,0.46678 0.66801,0.80161 -0.0791,0.23726 -0.25906,0.34541 -0.40081,0.53441 -0.12803,0.17071 -0.16138,0.22267 -0.31174,0.22267"
         style="fill:none;fill-rule:evenodd;stroke:#000000;stroke-width:0.17757528px;stroke-linecap:butt;stroke-linejoin:miter;stroke-opacity:1" />
      <path
         inkscape:connector-curvature="0"
         id="path592"
         d="m 190.09753,120.27532 c 0,0.0594 -0.0594,0.17813 0,0.17813 0.0644,0 0.008,-1.42642 -0.0445,-1.55869 0.19686,0.0629 0.23667,0.0539 0.35627,0.1336 0.11424,0.0762 0.31023,0.2257 0.22268,0.40081 -0.0368,0.0736 -0.44535,0.35401 -0.44535,0.2672 0,-0.13571 0.77849,0.0659 0.84615,0.13361 0.25673,0.25672 -0.62726,0.79972 -0.97975,0.62347"
         style="fill:none;fill-rule:evenodd;stroke:#000000;stroke-width:0.17757528px;stroke-linecap:butt;stroke-linejoin:miter;stroke-opacity:1" />
      <path
         inkscape:connector-curvature="0"
         id="path594"
         d="m 191.8344,118.85022 c -0.26383,0.0903 -0.27704,0.34123 -0.35628,0.57895 -0.0641,0.19236 -0.18564,0.45984 -0.1336,0.66801 0.15437,0.61749 1.05833,0.22919 0.75708,-0.22267 -0.184,-0.27601 -0.71254,-0.16669 -0.71254,0.17814"
         style="fill:none;fill-rule:evenodd;stroke:#000000;stroke-width:0.17757528px;stroke-linecap:butt;stroke-linejoin:miter;stroke-opacity:1" />
      <path
         inkscape:connector-curvature="0"
         id="path608"
         d="m 194.15018,118.98382 c -0.0918,0.32995 -0.11407,0.98522 -0.17814,1.11336 0.45533,0.30354 1.20213,-1.26296 0.17814,-1.11336 z"
         style="fill:none;fill-rule:evenodd;stroke:#000000;stroke-width:0.17757528px;stroke-linecap:butt;stroke-linejoin:miter;stroke-opacity:1" />
      <path
         inkscape:connector-curvature="0"
         id="path610"
         d="m 195.0854,118.93929 c 0.0893,0.28697 0.0109,0.86887 -0.0445,0.97975 0.66593,0.33304 0.85656,-0.26198 0.57891,-0.4008 -0.0523,-0.0262 -0.66421,-0.0853 -0.48987,0.0891 0.1923,0.19231 1.03726,-1.04782 -0.0445,-0.66801 z"
         style="fill:none;fill-rule:evenodd;stroke:#000000;stroke-width:0.17757528px;stroke-linecap:butt;stroke-linejoin:miter;stroke-opacity:1" />
      <path
         inkscape:connector-curvature="0"
         id="path612"
         d="m 196.15422,120.09714 c 0,0.28682 0.63085,-0.0224 0.48988,-0.44534 -0.1409,-0.42266 -0.62131,-0.1314 -0.53441,-0.0445 0.004,0.004 0.19787,-0.49331 0.22267,-0.53441 0.25369,-0.10877 0.75027,-0.15927 0.80162,-0.1336"
         style="fill:none;fill-rule:evenodd;stroke:#000000;stroke-width:0.17757528px;stroke-linecap:butt;stroke-linejoin:miter;stroke-opacity:1" />
      <path
         inkscape:connector-curvature="0"
         id="path614"
         d="m 198.91538,120.31985 c 0,0.40729 0.0287,-0.94369 0.0445,-1.02429 0.97504,-0.0934 0.26193,1.24696 -0.17813,1.24696"
         style="fill:none;fill-rule:evenodd;stroke:#000000;stroke-width:0.17757528px;stroke-linecap:butt;stroke-linejoin:miter;stroke-opacity:1" />
      <path
         inkscape:connector-curvature="0"
         id="path624"
         d="m 199.7615,120.36439 c 0.12845,-0.19268 0.29424,-0.94915 0.31174,-1.38057 0.15136,0.12863 0.21231,0.0342 0.31174,0.13361 0.39015,0.39014 -0.40081,0.761 -0.40081,0.71255 0,-0.0318 0.47284,-0.10611 0.53441,-0.0445 0.48847,0.48847 -0.59742,0.85918 -0.80161,0.75708"
         style="fill:none;fill-rule:evenodd;stroke:#000000;stroke-width:0.17757528px;stroke-linecap:butt;stroke-linejoin:miter;stroke-opacity:1" />
      <path
         inkscape:connector-curvature="0"
         id="path632"
         d="m 201.36473,118.93929 c 0.0831,-0.24877 -0.31174,1.2591 -0.31174,1.02429 0,-0.0696 0.5792,-0.13361 0.66802,-0.13361"
         style="fill:none;fill-rule:evenodd;stroke:#000000;stroke-width:0.17757528px;stroke-linecap:butt;stroke-linejoin:miter;stroke-opacity:1" />
      <path
         inkscape:connector-curvature="0"
         id="path634"
         d="m 201.76554,119.4737 c -0.007,0.25829 -0.1336,0.77742 -0.1336,0.89069"
         style="fill:none;fill-rule:evenodd;stroke:#000000;stroke-width:0.17757528px;stroke-linecap:butt;stroke-linejoin:miter;stroke-opacity:1" />
      <path
         inkscape:connector-curvature="0"
         id="path636"
         d="m 203.1461,119.25103 c 0.0488,0.17249 -0.16752,1.34873 -0.0445,0.97975 0.56824,0.14209 0.9168,-1.32891 0.0445,-0.97975 z"
         style="fill:none;fill-rule:evenodd;stroke:#000000;stroke-width:0.17757528px;stroke-linecap:butt;stroke-linejoin:miter;stroke-opacity:1" />
      <path
         inkscape:connector-curvature="0"
         id="path638"
         d="m 204.08132,119.07289 c 0,0.29598 0,0.88386 0,1.02429 0.16825,0.0561 0.90343,-0.0191 0.75709,-0.31174 -0.22147,-0.44294 -0.68034,-0.1336 -0.66802,-0.1336 0.56741,0 0.69145,-0.96115 -0.0891,-0.57895 z"
         style="fill:none;fill-rule:evenodd;stroke:#000000;stroke-width:0.17757528px;stroke-linecap:butt;stroke-linejoin:miter;stroke-opacity:1" />
      <path
         inkscape:connector-curvature="0"
         id="path640"
         d="m 205.10561,119.07289 c 0.70576,-0.2433 0.1336,0.55564 0.1336,0.48988 0,-0.14278 0.45258,0.34904 0.31174,0.48988 -0.0826,0.0826 -0.32491,0.14019 -0.40081,0.17813"
         style="fill:none;fill-rule:evenodd;stroke:#000000;stroke-width:0.17757528px;stroke-linecap:butt;stroke-linejoin:miter;stroke-opacity:1" />
      <path
         inkscape:connector-curvature="0"
         id="path642"
         d="m 208.17848,118.89476 c 0.0567,0.18232 -0.31155,1.33563 -0.13361,0.97975 0.59762,0 1.09762,-1.60208 0.13361,-0.97975 z"
         style="fill:none;fill-rule:evenodd;stroke:#000000;stroke-width:0.17757528px;stroke-linecap:butt;stroke-linejoin:miter;stroke-opacity:1" />
      <path
         inkscape:connector-curvature="0"
         id="path644"
         d="m 209.02463,119.69634 c 0,0.0297 -0.0297,0.0891 0,0.0891 0.004,0 -0.006,-0.20547 0,-0.22267 0.0968,-0.29045 0.12409,-0.60499 0.2672,-0.89069 0.11056,-0.1314 0.3077,-0.22671 0.44535,-0.0891 0.2759,0.2759 -0.62348,0.86553 -0.62348,0.75708 0,-0.20444 0.82953,0.0332 0.71255,0.2672 -0.2153,0.4306 -1.12659,0.45196 -0.93522,0.35628"
         style="fill:none;fill-rule:evenodd;stroke:#000000;stroke-width:0.17757528px;stroke-linecap:butt;stroke-linejoin:miter;stroke-opacity:1" />
      <path
         inkscape:connector-curvature="0"
         id="path646"
         d="m 210.31612,118.76115 c 0.0297,-0.0594 0.0492,-0.12502 0.0891,-0.17813 0.167,-0.22267 0.29684,0.35644 0.26721,0.44534 -0.0455,0.13652 -0.7194,0.84273 -0.53442,0.93522 0.2537,0.12685 0.94789,-0.0403 1.06883,0"
         style="fill:none;fill-rule:evenodd;stroke:#000000;stroke-width:0.17757528px;stroke-linecap:butt;stroke-linejoin:miter;stroke-opacity:1" />
      <path
         inkscape:connector-curvature="0"
         id="path650"
         d="m 213.21085,119.69637 c 0.162,-0.32401 0.28439,-0.7514 0.40081,-1.11335 0.24171,0.0696 0.53441,0.20932 0.53441,0.48987 0,0.50301 -0.54987,0.50534 -0.80162,0.75709"
         style="fill:none;fill-rule:evenodd;stroke:#000000;stroke-width:0.17757528px;stroke-linecap:butt;stroke-linejoin:miter;stroke-opacity:1" />
      <path
         inkscape:connector-curvature="0"
         id="path652"
         d="m 214.36877,119.56277 c 0.021,0.042 -0.002,0.1336 0.0445,0.1336 0.005,0 0.16151,-0.9566 0.13361,-1.06882 0.17347,-0.0725 0.2782,-0.21168 0.40081,-0.0891 0.41457,0.41457 -0.40081,0.54913 -0.40081,0.62348 0,0.0233 0.25332,-0.11828 0.40081,-0.0445 0.0963,0.0482 0.17813,0.16785 0.17813,0.2672 0,0.32589 -0.97715,0.46631 -0.75708,0.35628"
         style="fill:none;fill-rule:evenodd;stroke:#000000;stroke-width:0.17757528px;stroke-linecap:butt;stroke-linejoin:miter;stroke-opacity:1" />
      <path
         inkscape:connector-curvature="0"
         id="path654"
         d="m 215.57117,119.25103 c 0.0495,-0.19663 0.24931,-0.30261 0.31173,-0.48988 0.009,-0.0257 0.0214,-0.17813 0.0445,-0.17813 0.0407,0 -0.0868,0.481 -0.0891,0.48987 -0.0591,0.23633 -0.0445,0.4985 -0.0445,0.75708"
         style="fill:none;fill-rule:evenodd;stroke:#000000;stroke-width:0.17757528px;stroke-linecap:butt;stroke-linejoin:miter;stroke-opacity:1" />
      <path
         inkscape:connector-curvature="0"
         id="path656"
         d="m 218.46589,119.91904 c 0,0.40818 0.29018,-1.06141 0.35628,-1.20242 0.84333,-0.0238 0.31135,1.03927 -0.17814,1.20242 -0.0563,0.0188 -0.13615,-0.042 -0.17814,0 -0.0784,0.0784 0.12536,0.22267 -0.0891,0.22267"
         style="fill:none;fill-rule:evenodd;stroke:#000000;stroke-width:0.17757528px;stroke-linecap:butt;stroke-linejoin:miter;stroke-opacity:1" />
      <path
         inkscape:connector-curvature="0"
         id="path658"
         d="m 219.44565,119.74091 c 0,0.53593 0.25603,-0.88036 0.17813,-1.02429 0.0172,0.21192 0.21508,-0.1374 0.31175,-0.0891 0.19595,0.098 -0.0645,0.54769 -0.17814,0.62348 -0.0665,0.0443 -0.22267,0.009 -0.22267,0.0891 0,0.0621 0.16164,-0.0445 0.22267,-0.0445 0.0694,0 0.51233,0.0887 0.44534,0.22268 -0.18869,0.37738 -0.58636,0.44534 -0.97975,0.44534"
         style="fill:none;fill-rule:evenodd;stroke:#000000;stroke-width:0.17757528px;stroke-linecap:butt;stroke-linejoin:miter;stroke-opacity:1" />
      <path
         inkscape:connector-curvature="0"
         id="path660"
         d="m 220.95981,119.02836 c -0.0663,0.17501 -0.20163,0.41938 -0.1336,0.62348 0.21278,0.63835 0.81582,-0.46338 0.71255,-0.97976 -0.15865,-0.79324 -0.84615,-0.0538 -0.84615,0.48988"
         style="fill:none;fill-rule:evenodd;stroke:#000000;stroke-width:0.17757528px;stroke-linecap:butt;stroke-linejoin:miter;stroke-opacity:1" />
      <path
         inkscape:connector-curvature="0"
         id="path664"
         d="m 223.87519,120.12275 c 0,-0.1569 -0.0377,-1.02164 0.063,-1.38558 0.36618,-0.34786 0.792,-0.23381 0.88173,-0.18895"
         style="fill:none;fill-rule:evenodd;stroke:#000000;stroke-width:0.17757528px;stroke-linecap:butt;stroke-linejoin:miter;stroke-opacity:1" />
      <path
         inkscape:connector-curvature="0"
         id="path666"
         d="m 223.93819,119.55592 c 0.26843,-0.0955 0.75134,-0.18894 0.88173,-0.18894"
         style="fill:none;fill-rule:evenodd;stroke:#000000;stroke-width:0.17757528px;stroke-linecap:butt;stroke-linejoin:miter;stroke-opacity:1" />
      <path
         inkscape:connector-curvature="0"
         id="path670"
         d="m 223.87521,120.24871 c 0.40837,-0.11477 0.85241,-0.37789 1.25961,-0.37789"
         style="fill:none;fill-rule:evenodd;stroke:#000000;stroke-width:0.17757528px;stroke-linecap:butt;stroke-linejoin:miter;stroke-opacity:1" />
      <path
         inkscape:connector-curvature="0"
         id="path672"
         d="m 228.09493,120.24871 c 0,0.2866 -0.0339,-1.06616 0,-1.19664 0.88497,-0.91581 0.80714,0.75577 0,0.75577 -0.0465,0 0.12034,-0.0343 0.18895,0 0.26283,0.13142 0.48371,0.36782 0.75577,0.50385"
         style="fill:none;fill-rule:evenodd;stroke:#000000;stroke-width:0.17757528px;stroke-linecap:butt;stroke-linejoin:miter;stroke-opacity:1" />
      <path
         inkscape:connector-curvature="0"
         id="path674"
         d="m 229.16561,118.92611 c 0.0672,-0.076 0.68766,1.26475 0.75577,1.19664 0.0775,-0.0775 -0.0979,-0.81875 0.063,-0.81875 0.12684,0 0.021,1.16507 0.50385,0.44086 0.11352,-0.17028 0.34041,-1.08343 0.063,-0.94471"
         style="fill:none;fill-rule:evenodd;stroke:#000000;stroke-width:0.17757528px;stroke-linecap:butt;stroke-linejoin:miter;stroke-opacity:1" />
      <path
         inkscape:connector-curvature="0"
         id="path676"
         d="m 233.70024,120.18573 c 0,0.31436 0.25371,-1.13182 0.12596,-1.38558 0.57615,-0.74321 0.73085,0.0498 0.50385,0.50385 -0.11685,0.23369 -0.45696,0.22847 -0.62981,0.3149 -0.042,0.021 -0.12596,0.10992 -0.12596,0.063 0,-0.16951 1.04329,0.61612 1.07067,0.62981"
         style="fill:none;fill-rule:evenodd;stroke:#000000;stroke-width:0.17757528px;stroke-linecap:butt;stroke-linejoin:miter;stroke-opacity:1" />
      <path
         inkscape:connector-curvature="0"
         id="path678"
         d="m 235.71563,118.80015 c -0.40079,-0.53439 -0.0598,-0.25297 -0.25192,-0.18895 -1.57163,0.52388 0.21726,0.93839 0.37788,1.25962 0.29989,0.59979 -1.04827,0.26313 -0.56683,0.50385"
         style="fill:none;fill-rule:evenodd;stroke:#000000;stroke-width:0.17757528px;stroke-linecap:butt;stroke-linejoin:miter;stroke-opacity:1" />
      <path
         inkscape:connector-curvature="0"
         id="path680"
         d="m 238.54977,118.86313 c 0.47341,0.26389 0.56911,0.72997 0.75577,1.19664 0.10218,0.25545 0.19911,0.50384 0.18895,0.50384 -0.0259,0 0.18495,-0.49386 0.18894,-0.50384 0.14687,-0.36718 0.31491,-0.94287 0.31491,-1.3226"
         style="fill:none;fill-rule:evenodd;stroke:#000000;stroke-width:0.17757528px;stroke-linecap:butt;stroke-linejoin:miter;stroke-opacity:1" />
      <path
         inkscape:connector-curvature="0"
         id="path682"
         d="m 240.18728,120.31169 c -0.0973,0.21777 0.029,0.45536 0.25192,0.56683 0.11662,0.0583 0.23024,-0.0206 0.31491,-0.063 0.49778,-0.2489 -0.81921,-1.38718 -0.44087,-0.063"
         style="fill:none;fill-rule:evenodd;stroke:#000000;stroke-width:0.17757528px;stroke-linecap:butt;stroke-linejoin:miter;stroke-opacity:1" />
      <path
         inkscape:connector-curvature="0"
         id="path684"
         d="m 242.95844,118.92611 c 0.31365,0.39351 0.41417,2.08587 0.62981,1.00769 0.0771,-0.38564 0.25192,-0.87751 0.25192,-1.19663"
         style="fill:none;fill-rule:evenodd;stroke:#000000;stroke-width:0.17757528px;stroke-linecap:butt;stroke-linejoin:miter;stroke-opacity:1" />
      <path
         inkscape:connector-curvature="0"
         id="path686"
         d="m 244.43849,119.83933 c -0.41957,-0.19871 -0.7311,0.56683 -0.15745,0.56683 0.10152,0 0.19098,0.0147 0.28341,-0.0315"
         style="fill:none;fill-rule:evenodd;stroke:#000000;stroke-width:0.17757528px;stroke-linecap:butt;stroke-linejoin:miter;stroke-opacity:1" />
      <path
         inkscape:connector-curvature="0"
         id="path688"
         d="m 245.25724,119.9338 c -0.042,-0.021 -0.0799,-0.0538 -0.12596,-0.063 -0.0886,-0.0177 -0.70132,0.81302 0.53534,0.50385"
         style="fill:none;fill-rule:evenodd;stroke:#000000;stroke-width:0.17757528px;stroke-linecap:butt;stroke-linejoin:miter;stroke-opacity:1" />
      <path
         inkscape:connector-curvature="0"
         id="path690"
         d="m 248.34331,119.11505 c -0.22416,-0.5017 -0.82955,0.682 -0.50384,1.0077 0.19721,0.19721 0.54839,-0.0945 0.75577,-0.0945"
         style="fill:none;fill-rule:evenodd;stroke:#000000;stroke-width:0.17757528px;stroke-linecap:butt;stroke-linejoin:miter;stroke-opacity:1" />
      <path
         inkscape:connector-curvature="0"
         id="path692"
         d="m 248.09139,119.74486 c 0.85699,-0.48387 0.10121,0.53534 0.44087,0.53534"
         style="fill:none;fill-rule:evenodd;stroke:#000000;stroke-width:0.17757528px;stroke-linecap:butt;stroke-linejoin:miter;stroke-opacity:1" />
      <path
         inkscape:connector-curvature="0"
         id="path707"
         d="m 249.06757,120.21722 c -0.0489,-0.14684 0.0794,-0.65974 0.063,-0.94472 0.0683,0.13145 0.45734,1.03776 0.53535,0.88174"
         style="fill:none;fill-rule:evenodd;stroke:#000000;stroke-width:0.17757528px;stroke-linecap:butt;stroke-linejoin:miter;stroke-opacity:1" />
      <path
         inkscape:connector-curvature="0"
         id="path709"
         d="m 249.88635,119.02058 c 0.0673,0.23639 -0.35536,1.03471 -0.15745,1.13366"
         style="fill:none;fill-rule:evenodd;stroke:#000000;stroke-width:0.17757528px;stroke-linecap:butt;stroke-linejoin:miter;stroke-opacity:1" />
      <path
         inkscape:connector-curvature="0"
         id="path711"
         d="m 250.57914,119.14654 c -0.16193,0.3152 -0.16891,0.67564 -0.25193,1.0077 -0.002,0.007 0.001,0.18894 0,0.18894 -0.042,0 0,-0.084 0,-0.12596 0.6215,0 1.09689,-1.11287 0.25193,-1.07068 z"
         style="fill:none;fill-rule:evenodd;stroke:#000000;stroke-width:0.17757528px;stroke-linecap:butt;stroke-linejoin:miter;stroke-opacity:1" />
      <path
         inkscape:connector-curvature="0"
         id="path733"
         d="m 254.73588,120.56361 c -0.12886,-0.62127 0.10371,-1.29152 0.40938,-1.82644 0.0218,-0.0382 0.26894,-0.39236 0.34639,-0.31491 0.10441,0.10441 0.19589,1.3632 0.25193,1.60602 0.0328,0.14224 0.10365,0.27488 0.15745,0.40937 0.0176,0.044 0.12596,0.2221 0.12596,0.22044 0,-0.0297 -0.042,-0.042 -0.063,-0.063"
         style="fill:none;fill-rule:evenodd;stroke:#000000;stroke-width:0.17757528px;stroke-linecap:butt;stroke-linejoin:miter;stroke-opacity:1" />
      <path
         inkscape:connector-curvature="0"
         id="path735"
         d="m 254.48396,119.9338 c 0.29166,-0.0418 0.6722,-0.22729 0.9762,-0.12596 0.1463,0.0488 0.22098,0.0945 0.40938,0.0945"
         style="fill:none;fill-rule:evenodd;stroke:#000000;stroke-width:0.17757528px;stroke-linecap:butt;stroke-linejoin:miter;stroke-opacity:1" />
      <path
         inkscape:connector-curvature="0"
         id="path747"
         d="m 259.302,118.83164 c 0.0632,0.47738 -0.13086,1.56473 0.0315,1.88943"
         style="fill:none;fill-rule:evenodd;stroke:#000000;stroke-width:0.17757528px;stroke-linecap:butt;stroke-linejoin:miter;stroke-opacity:1" />
      <path
         inkscape:connector-curvature="0"
         id="path749"
         d="m 260.12076,118.76866 c -0.31103,0.25981 -0.52247,0.66705 -0.6928,1.00769 0.26696,0.42641 0.66888,0.82633 1.03919,1.19664"
         style="fill:none;fill-rule:evenodd;stroke:#000000;stroke-width:0.17757528px;stroke-linecap:butt;stroke-linejoin:miter;stroke-opacity:1" />
      <path
         inkscape:connector-curvature="0"
         id="path757"
         d="m 134.62315,182.52505 c 0.26451,-0.26603 0.39269,-0.51818 0.53441,-0.80162 0.008,-0.0163 -0.007,-0.2672 0,-0.2672 0.2672,0 0,0.53441 0,0.80161 0,0.53474 -0.004,1.59576 0.0891,1.78137"
         style="fill:none;fill-rule:evenodd;stroke:#000000;stroke-width:0.17757528px;stroke-linecap:butt;stroke-linejoin:miter;stroke-opacity:1" />
      <path
         inkscape:connector-curvature="0"
         id="path759"
         d="m 134.1778,176.29025 c 0.34844,-0.3659 0.40028,-0.28222 0.71255,-0.17814 1.09469,0.3649 -1.21201,2.17259 -0.80161,2.58299 0.17454,0.17454 0.83279,0.0995 1.06882,0.17814"
         style="fill:none;fill-rule:evenodd;stroke:#000000;stroke-width:0.17757528px;stroke-linecap:butt;stroke-linejoin:miter;stroke-opacity:1" />
      <path
         inkscape:connector-curvature="0"
         id="path761"
         d="m 133.64339,171.48055 c 1.88025,-0.89053 0.26721,1.52325 0.26721,0.97975 0,-0.021 1.15789,0.0285 1.15789,0.44535 0,0.71861 -1.42556,0.80161 -1.6923,0.80161"
         style="fill:none;fill-rule:evenodd;stroke:#000000;stroke-width:0.17757528px;stroke-linecap:butt;stroke-linejoin:miter;stroke-opacity:1" />
      <path
         inkscape:connector-curvature="0"
         id="path763"
         d="m 133.82153,166.13644 c -0.0102,0.24147 -0.32274,2.17118 -0.26721,2.22671 0.10242,0.10242 0.47276,-0.0685 0.53442,-0.0891 0.27242,-0.0908 0.54544,0.039 0.80161,-0.0891"
         style="fill:none;fill-rule:evenodd;stroke:#000000;stroke-width:0.17757528px;stroke-linecap:butt;stroke-linejoin:miter;stroke-opacity:1" />
      <path
         inkscape:connector-curvature="0"
         id="path765"
         d="m 134.71222,167.3834 c 0.0908,0.72095 0.13689,1.39044 0.35627,2.04857"
         style="fill:none;fill-rule:evenodd;stroke:#000000;stroke-width:0.17757528px;stroke-linecap:butt;stroke-linejoin:miter;stroke-opacity:1" />
      <path
         inkscape:connector-curvature="0"
         id="path767"
         d="m 133.64339,163.28624 c 0,0.50649 1.37106,0.42932 1.60324,-0.2672 0.36856,-1.1057 -1.06883,-0.93196 -1.06883,-0.97976 0,-0.12249 0.41156,-0.62182 0.17814,-0.89068 0.37965,-0.11888 0.7675,-0.0891 1.15789,-0.0891"
         style="fill:none;fill-rule:evenodd;stroke:#000000;stroke-width:0.17757528px;stroke-linecap:butt;stroke-linejoin:miter;stroke-opacity:1" />
      <path
         inkscape:connector-curvature="0"
         id="path769"
         d="m 134.53408,155.80449 c -0.47217,0.13228 -0.4474,0.36038 -0.62348,0.71255 -0.34513,0.69024 -0.0267,2.10647 0.97975,1.60323 0.24192,-0.12096 0.13544,-1.56054 -0.97975,-0.44534"
         style="fill:none;fill-rule:evenodd;stroke:#000000;stroke-width:0.17757528px;stroke-linecap:butt;stroke-linejoin:miter;stroke-opacity:1" />
      <path
         inkscape:connector-curvature="0"
         id="path771"
         d="m 133.46526,151.61827 c 2.9401,-0.23794 0.58846,0.99878 1.24696,2.31578"
         style="fill:none;fill-rule:evenodd;stroke:#000000;stroke-width:0.17757528px;stroke-linecap:butt;stroke-linejoin:miter;stroke-opacity:1" />
      <path
         inkscape:connector-curvature="0"
         id="path773"
         d="m 133.55432,153.04336 c 0.60137,-0.0321 1.1719,-0.0891 1.78138,-0.0891"
         style="fill:none;fill-rule:evenodd;stroke:#000000;stroke-width:0.17757528px;stroke-linecap:butt;stroke-linejoin:miter;stroke-opacity:1" />
      <path
         inkscape:connector-curvature="0"
         id="path775"
         d="m 133.99967,146.36322 c 0,-0.15354 -0.084,-0.35882 0.0891,-0.44534 0.44156,-0.22079 1.07908,-0.30825 0.89068,0.44534 -0.15272,0.6109 -1.31579,1.02022 -0.97975,1.6923 0.45629,0.91259 1.78639,0.005 1.06882,-0.71254 -0.38095,-0.38096 -0.93843,-0.45819 -1.06882,-0.97976 z"
         style="fill:none;fill-rule:evenodd;stroke:#000000;stroke-width:0.17757528px;stroke-linecap:butt;stroke-linejoin:miter;stroke-opacity:1" />
      <path
         inkscape:connector-curvature="0"
         id="path779"
         d="m 134.89035,141.28632 c -0.68874,-0.50125 -1.48985,0.34015 -1.24696,1.06882 0.12457,0.3737 0.85526,0.30263 1.06883,0.0891 0.39284,-0.39285 -0.015,-1.28664 0.17813,-1.15789 0.16572,0.11047 0.17814,0.35627 0.26721,0.53441 0.58076,1.16152 -0.38137,1.60323 -1.24696,1.60323"
         style="fill:none;fill-rule:evenodd;stroke:#000000;stroke-width:0.17757528px;stroke-linecap:butt;stroke-linejoin:miter;stroke-opacity:1" />
      <path
         inkscape:connector-curvature="0"
         id="path1241"
         d="m 133.27183,137.68821 c 0.29949,-0.166 0.44839,-0.36084 0.62348,-0.62348 0.21035,-0.31553 0.28433,-0.7091 0.35628,-1.06882 0.003,-0.0135 -0.002,-0.53441 0,-0.53441 0.26885,0 -0.0891,0.53276 -0.0891,0.80161 0,0.72644 0.003,1.86371 -0.26721,2.40485"
         style="fill:none;fill-rule:evenodd;stroke:#000000;stroke-width:0.17757528px;stroke-linecap:butt;stroke-linejoin:miter;stroke-opacity:1" />
      <path
         inkscape:connector-curvature="0"
         id="path1243"
         d="m 135.49855,137.06473 c -0.15921,0.33066 -0.30695,0.94961 -0.17814,1.33603 0.48083,1.44249 1.43651,-1.16703 1.33603,-1.87044 -0.25952,-1.81664 -2.06759,-0.50237 -1.4251,1.4251"
         style="fill:none;fill-rule:evenodd;stroke:#000000;stroke-width:0.17757528px;stroke-linecap:butt;stroke-linejoin:miter;stroke-opacity:1" />
      <path
         inkscape:connector-curvature="0"
         id="path1245"
         d="m 136.92364,172.33587 c 0.89646,-0.0719 2.18954,-0.2672 2.76113,-0.2672"
         style="fill:none;fill-rule:evenodd;stroke:#000000;stroke-width:0.17757528px;stroke-linecap:butt;stroke-linejoin:miter;stroke-opacity:1" />
      <path
         inkscape:connector-curvature="0"
         id="path1247"
         d="m 136.92364,167.4371 c 0.50322,-0.0742 2.98175,-0.0658 2.67206,0.0891"
         style="fill:none;fill-rule:evenodd;stroke:#000000;stroke-width:0.17757528px;stroke-linecap:butt;stroke-linejoin:miter;stroke-opacity:1" />
      <path
         inkscape:connector-curvature="0"
         id="path1249"
         d="m 136.92364,162.3602 c 0.90189,0.0575 2.4743,-0.27702 3.02833,0"
         style="fill:none;fill-rule:evenodd;stroke:#000000;stroke-width:0.17757528px;stroke-linecap:butt;stroke-linejoin:miter;stroke-opacity:1" />
      <path
         inkscape:connector-curvature="0"
         id="path1253"
         d="m 136.83551,157.09257 c 1.15715,0.022 2.57087,-0.12596 3.40097,-0.12596"
         style="fill:none;fill-rule:evenodd;stroke:#000000;stroke-width:0.17757528px;stroke-linecap:butt;stroke-linejoin:miter;stroke-opacity:1" />
      <path
         inkscape:connector-curvature="0"
         id="path1255"
         d="m 135.198,186.69363 c 1.26375,4.40747 2.29745,-3.06327 0,0 z"
         style="fill:none;fill-rule:evenodd;stroke:#000000;stroke-width:0.17757528px;stroke-linecap:butt;stroke-linejoin:miter;stroke-opacity:1" />
      <path
         inkscape:connector-curvature="0"
         id="path1257"
         d="m 139.22878,186.94555 c 0.79776,0 1.59552,0 2.39328,0"
         style="fill:none;fill-rule:evenodd;stroke:#000000;stroke-width:0.17757528px;stroke-linecap:butt;stroke-linejoin:miter;stroke-opacity:1" />
      <path
         inkscape:connector-curvature="0"
         id="path1259"
         d="m 204.98091,121.31938 c 0.44348,1.29291 0.12597,2.57252 0.12597,3.90482"
         style="fill:none;fill-rule:evenodd;stroke:#000000;stroke-width:0.17757528px;stroke-linecap:butt;stroke-linejoin:miter;stroke-opacity:1" />
      <path
         inkscape:connector-curvature="0"
         id="path1261"
         d="m 210.27132,121.44534 c -0.10107,1.09507 0.0151,2.41836 0.12596,3.52693"
         style="fill:none;fill-rule:evenodd;stroke:#000000;stroke-width:0.17757528px;stroke-linecap:butt;stroke-linejoin:miter;stroke-opacity:1" />
      <path
         inkscape:connector-curvature="0"
         id="path1263"
         d="m 215.18383,121.31938 c 0,1.30161 0,2.60321 0,3.90482"
         style="fill:none;fill-rule:evenodd;stroke:#000000;stroke-width:0.17757528px;stroke-linecap:butt;stroke-linejoin:miter;stroke-opacity:1" />
      <path
         inkscape:connector-curvature="0"
         id="path1265"
         d="m 219.97039,121.31938 c -0.39577,1.50048 -0.2316,3.0976 0.12596,4.40867"
         style="fill:none;fill-rule:evenodd;stroke:#000000;stroke-width:0.17757528px;stroke-linecap:butt;stroke-linejoin:miter;stroke-opacity:1" />
    </g>
  </g>
</svg>
