<?xml version="1.0" encoding="UTF-8" standalone="no"?>
<!-- Created with Inkscape (http://www.inkscape.org/) -->

<svg
   xmlns:dc="http://purl.org/dc/elements/1.1/"
   xmlns:cc="http://creativecommons.org/ns#"
   xmlns:rdf="http://www.w3.org/1999/02/22-rdf-syntax-ns#"
   xmlns:svg="http://www.w3.org/2000/svg"
   xmlns="http://www.w3.org/2000/svg"
   xmlns:sodipodi="http://sodipodi.sourceforge.net/DTD/sodipodi-0.dtd"
   xmlns:inkscape="http://www.inkscape.org/namespaces/inkscape"
   width="29.700001cm"
   height="9cm"
   viewBox="0 0 297 90.000001"
   version="1.1"
   id="svg8"
   sodipodi:docname="trs-35-mm.svg"
   inkscape:version="0.92.4 5da689c313, 2019-01-14">
  <defs
     id="defs2" />
  <sodipodi:namedview
     id="base"
     pagecolor="#ffffff"
     bordercolor="#666666"
     borderopacity="1.0"
     inkscape:pageopacity="0.0"
     inkscape:pageshadow="2"
     inkscape:zoom="0.74263967"
     inkscape:cx="521.36941"
     inkscape:cy="217.69784"
     inkscape:document-units="mm"
     inkscape:current-layer="layer1"
     showgrid="true"
     inkscape:snap-global="false"
     inkscape:window-width="1366"
     inkscape:window-height="768"
     inkscape:window-x="0"
     inkscape:window-y="0"
     inkscape:window-maximized="1"
     units="cm"
     fit-margin-top="1"
     fit-margin-bottom="1"
     fit-margin-left="0"
     fit-margin-right="0">
    <inkscape:grid
       type="xygrid"
       id="grid1021"
       units="cm"
       spacingx="5"
       spacingy="5"
       empspacing="1"
       empcolor="#0000ff"
       empopacity="0.10588235"
       originx="-30.397667"
       originy="-87.255341" />
  </sodipodi:namedview>
  <metadata
     id="metadata5">
    <rdf:RDF>
      <cc:Work
         rdf:about="">
        <dc:format>image/svg+xml</dc:format>
        <dc:type
           rdf:resource="http://purl.org/dc/dcmitype/StillImage" />
        <dc:title></dc:title>
      </cc:Work>
    </rdf:RDF>
  </metadata>
  <g
     inkscape:label="Layer 1"
     inkscape:groupmode="layer"
     id="layer1"
     transform="translate(-30.397668,-119.74467)">
    <g
       id="g690"
       transform="translate(-38.477611,12.82587)">
      <path
         sodipodi:nodetypes="cssscc"
         inkscape:connector-curvature="0"
         id="path4556"
         d="m 164.83856,151.66449 c -0.13547,4.5065 0.37798,8.74127 0.37798,13.22916 0,8.93015 -2.24251,17.00893 7.18154,17.00893 1.82093,0 11.94161,1.28756 12.85119,0.37798 0.83922,-0.83922 -1.47969,-29.44993 -2.26785,-30.2381 -2.9937,-2.99369 -14.21536,-1.85079 -18.14286,-0.37797 z"
         style="fill:none;fill-rule:evenodd;stroke:#000000;stroke-width:0.26458332px;stroke-linecap:butt;stroke-linejoin:miter;stroke-opacity:1" />
      <path
         sodipodi:nodetypes="cssc"
         inkscape:connector-curvature="0"
         id="path4692"
         d="m 167.74864,161.6273 c -3.21517,-0.44397 -0.53454,1.44272 -0.53454,2.00452 0,0.41133 -1.33635,0.39509 -1.33635,0.26727 0,-0.39081 0.51012,-0.0488 0.53454,0"
         style="fill:none;fill-rule:evenodd;stroke:#000000;stroke-width:0.26458332px;stroke-linecap:butt;stroke-linejoin:miter;stroke-opacity:1" />
      <path
         sodipodi:nodetypes="cc"
         inkscape:connector-curvature="0"
         id="path4694"
         d="m 169.48589,161.22639 c -0.5867,0.59717 -2.27302,4.14513 -1.20272,2.00452"
         style="fill:none;fill-rule:evenodd;stroke:#000000;stroke-width:0.26458332px;stroke-linecap:butt;stroke-linejoin:miter;stroke-opacity:1" />
      <path
         sodipodi:nodetypes="ccc"
         inkscape:connector-curvature="0"
         id="path4696"
         d="m 168.55044,162.29547 c 0.79582,-2.17776 2.83785,0.25151 0.13364,1.60362 -0.72872,0.36436 -1.02036,0.49208 -1.20271,0.4009"
         style="fill:none;fill-rule:evenodd;stroke:#000000;stroke-width:0.26458332px;stroke-linecap:butt;stroke-linejoin:miter;stroke-opacity:1" />
      <path
         sodipodi:nodetypes="cccsscc"
         inkscape:connector-curvature="0"
         id="path4698"
         d="m 171.49041,161.6273 c -0.25009,0.36066 -0.43289,0.71614 -0.66817,1.06907 -2.27029,3.40544 0.5658,-1.1305 0.66817,-1.06907 0.20397,0.12237 0.58333,1.82209 0.26727,2.13815 -0.0275,0.0275 -1.46998,-0.65218 -1.46998,-0.66817 0,-0.18367 0.37026,0.0515 0.53454,0.13363 0.26661,0.13331 1.47071,2.7e-4 0.93544,-0.26727"
         style="fill:none;fill-rule:evenodd;stroke:#000000;stroke-width:0.26458332px;stroke-linecap:butt;stroke-linejoin:miter;stroke-opacity:1" />
      <path
         sodipodi:nodetypes="ccsccc"
         inkscape:connector-curvature="0"
         id="path4730"
         d="m 173.62856,179.13345 c -0.74363,-0.92097 -2.72227,0.43537 -2.27178,1.33635 0.60014,1.2003 2.93996,0.45091 2.93996,0.66817 0,0.28601 -2.00438,-1.00219 -1.33635,-0.66817 0.3058,0.1529 1.26341,0.0607 1.46998,0.26727 0.15279,0.15278 -0.89992,1.18495 -0.13363,0.80181"
         style="fill:none;fill-rule:evenodd;stroke:#000000;stroke-width:0.26458332px;stroke-linecap:butt;stroke-linejoin:miter;stroke-opacity:1" />
      <path
         sodipodi:nodetypes="csccc"
         inkscape:connector-curvature="0"
         id="path4732"
         d="m 175.36582,179.26708 c -0.22349,0.0161 -0.47307,2.00453 -0.53454,2.00453 -0.29882,0 0.26727,-0.53454 0.4009,-0.80181 0.0511,-0.1023 -0.059,-1.29905 0.13364,-1.20272 0.62996,0.31498 0.35319,1.37457 0.66817,2.00453"
         style="fill:none;fill-rule:evenodd;stroke:#000000;stroke-width:0.26458332px;stroke-linecap:butt;stroke-linejoin:miter;stroke-opacity:1" />
      <path
         sodipodi:nodetypes="cc"
         inkscape:connector-curvature="0"
         id="path4734"
         d="m 177.2367,178.86618 c -0.61052,0.88121 -1.24648,1.82479 -1.60361,2.53906"
         style="fill:none;fill-rule:evenodd;stroke:#000000;stroke-width:0.26458332px;stroke-linecap:butt;stroke-linejoin:miter;stroke-opacity:1" />
      <path
         sodipodi:nodetypes="ccsc"
         inkscape:connector-curvature="0"
         id="path4736"
         d="m 178.17215,179.40072 c -0.93799,3.26526 -1.30023,0.92873 0,0 1.65595,-1.18282 1.27405,0.4632 0.26727,1.46998 -0.26769,0.26769 -1.05423,0.19303 -1.46999,0.40091"
         style="fill:none;fill-rule:evenodd;stroke:#000000;stroke-width:0.26458332px;stroke-linecap:butt;stroke-linejoin:miter;stroke-opacity:1" />
      <path
         sodipodi:nodetypes="cccc"
         inkscape:connector-curvature="0"
         id="path5624"
         d="m 167.77852,169.33854 c -0.22967,-0.91083 -1.83851,0.14587 -1.5119,0.47247 0.17903,0.17904 0.86809,0.20663 1.03943,0.37798 1.73574,1.73574 -0.89212,1.11309 -1.03943,1.03943"
         style="fill:none;fill-rule:evenodd;stroke:#000000;stroke-width:0.26458332px;stroke-linecap:butt;stroke-linejoin:miter;stroke-opacity:1" />
      <path
         sodipodi:nodetypes="ccc"
         inkscape:connector-curvature="0"
         id="path5626"
         d="m 170.04638,169.62202 c -0.89019,-0.48542 -2.04084,0.92651 -1.6064,1.79539 0.18569,0.37139 2.4118,0.16426 1.98437,0.37798"
         style="fill:none;fill-rule:evenodd;stroke:#000000;stroke-width:0.26458332px;stroke-linecap:butt;stroke-linejoin:miter;stroke-opacity:1" />
      <path
         sodipodi:nodetypes="cc"
         inkscape:connector-curvature="0"
         id="path5628"
         d="m 171.08581,169.52753 c 0.53174,1.64578 -1.11499,2.45684 0.94494,2.45684"
         style="fill:none;fill-rule:evenodd;stroke:#000000;stroke-width:0.26458332px;stroke-linecap:butt;stroke-linejoin:miter;stroke-opacity:1" />
      <path
         sodipodi:nodetypes="ccc"
         inkscape:connector-curvature="0"
         id="path450"
         d="m 177.58411,157.2833 c -0.40601,0.81203 1.36799,-3.65297 1.06882,-3.20647 0.19458,0.88433 0.44535,1.98102 0.44535,2.85019"
         style="fill:none;fill-rule:evenodd;stroke:#000000;stroke-width:0.26458332px;stroke-linecap:butt;stroke-linejoin:miter;stroke-opacity:1" />
      <path
         sodipodi:nodetypes="cc"
         inkscape:connector-curvature="0"
         id="path452"
         d="m 177.94039,155.68006 c 0.25568,0.46452 0.52932,0.35628 0.97975,0.35628"
         style="fill:none;fill-rule:evenodd;stroke:#000000;stroke-width:0.26458332px;stroke-linecap:butt;stroke-linejoin:miter;stroke-opacity:1" />
      <path
         sodipodi:nodetypes="ccc"
         inkscape:connector-curvature="0"
         id="path454"
         d="m 179.72173,156.83795 c 0,-0.8121 0.0655,-1.69291 0.0891,-2.58299 0.52029,0.79451 0.77061,2.37385 1.06882,2.67206"
         style="fill:none;fill-rule:evenodd;stroke:#000000;stroke-width:0.26458332px;stroke-linecap:butt;stroke-linejoin:miter;stroke-opacity:1" />
      <path
         sodipodi:nodetypes="cc"
         inkscape:connector-curvature="0"
         id="path456"
         d="m 181.14685,153.72055 c 0.21255,-0.19597 -0.76589,4.02571 -0.35627,3.20647"
         style="fill:none;fill-rule:evenodd;stroke:#000000;stroke-width:0.26458332px;stroke-linecap:butt;stroke-linejoin:miter;stroke-opacity:1" />
      <path
         sodipodi:nodetypes="cc"
         inkscape:connector-curvature="0"
         id="path458"
         d="m 182.48288,154.4331 c 0.0234,0.77386 -0.17814,1.54158 -0.17814,2.31578"
         style="fill:none;fill-rule:evenodd;stroke:#000000;stroke-width:0.26458332px;stroke-linecap:butt;stroke-linejoin:miter;stroke-opacity:1" />
      <path
         sodipodi:nodetypes="cc"
         inkscape:connector-curvature="0"
         id="path460"
         d="m 181.32499,154.78938 c 0.68586,-0.20861 2.01374,-0.35628 2.31578,-0.35628"
         style="fill:none;fill-rule:evenodd;stroke:#000000;stroke-width:0.26458332px;stroke-linecap:butt;stroke-linejoin:miter;stroke-opacity:1" />
      <path
         sodipodi:nodetypes="csccsc"
         inkscape:connector-curvature="0"
         id="path462"
         d="m 166.0052,155.23472 c 0.28886,0.16143 -0.11158,-0.53441 0,-0.53441 0.17814,0 -0.0662,0.36901 0,0.53441 0.2499,0.62475 0.75858,1.20691 0.97976,1.87044 0.0258,0.0775 0.12019,0.68142 0.17813,0.62348 0.22157,-0.22157 0.53169,-2.30761 0.71255,-2.8502"
         style="fill:none;fill-rule:evenodd;stroke:#000000;stroke-width:0.26458332px;stroke-linecap:butt;stroke-linejoin:miter;stroke-opacity:1" />
      <path
         sodipodi:nodetypes="cc"
         inkscape:connector-curvature="0"
         id="path464"
         d="m 168.94446,156.74888 c -1.80353,-0.20527 -1.57941,1.77661 1.06883,1.24696"
         style="fill:none;fill-rule:evenodd;stroke:#000000;stroke-width:0.26458332px;stroke-linecap:butt;stroke-linejoin:miter;stroke-opacity:1" />
      <path
         sodipodi:nodetypes="cc"
         inkscape:connector-curvature="0"
         id="path466"
         d="m 171.34931,156.74888 c -2.15234,0.14553 -0.33767,2.2799 1.4251,1.69231"
         style="fill:none;fill-rule:evenodd;stroke:#000000;stroke-width:0.26458332px;stroke-linecap:butt;stroke-linejoin:miter;stroke-opacity:1" />
      <path
         sodipodi:nodetypes="csc"
         inkscape:connector-curvature="0"
         id="path468"
         d="m 180.2659,161.87913 c 0.0491,0.83972 -0.50385,1.67501 -0.50385,2.51924 0,1.0126 1.55126,0.33476 2.14135,0.62981"
         style="fill:none;fill-rule:evenodd;stroke:#000000;stroke-width:0.26458332px;stroke-linecap:butt;stroke-linejoin:miter;stroke-opacity:1" />
      <path
         sodipodi:nodetypes="cc"
         inkscape:connector-curvature="0"
         id="path470"
         d="m 180.39186,169.05896 c -0.18225,1.155 -0.32916,2.42179 -0.75577,3.27501"
         style="fill:none;fill-rule:evenodd;stroke:#000000;stroke-width:0.26458332px;stroke-linecap:butt;stroke-linejoin:miter;stroke-opacity:1" />
      <path
         sodipodi:nodetypes="csccc"
         inkscape:connector-curvature="0"
         id="path472"
         d="m 180.13994,169.05896 c 0.36909,0.21791 1.59111,-0.29831 1.88942,0 0.87799,0.87799 -0.94225,1.73075 -1.51154,2.01539 -0.27655,0.13828 -0.67604,-0.33165 -0.75577,-0.25192 -0.20592,0.20591 0.86947,0.91963 1.88943,1.25962"
         style="fill:none;fill-rule:evenodd;stroke:#000000;stroke-width:0.26458332px;stroke-linecap:butt;stroke-linejoin:miter;stroke-opacity:1" />
      <g
         transform="translate(-21.522936,0.35627417)"
         id="g526">
        <path
           style="fill:none;fill-rule:evenodd;stroke:#000000;stroke-width:0.5;stroke-linecap:butt;stroke-linejoin:miter;stroke-opacity:1"
           d="m 258.64071,165.15414 c -4.72044,-0.59005 -10.78304,0.30315 -15.99717,0 -0.54584,0.65501 -1.10433,1.29963 -2.0154,2.01539 1.10606,0.63406 1.46195,1.1773 2.26732,1.63751 5.22525,-0.3581 10.62325,-1.03388 15.87121,-0.37789 0,-1.25353 0.48012,-2.08321 -0.12596,-3.27501 z"
           id="path482"
           inkscape:connector-curvature="0" />
        <path
           style="fill:none;fill-rule:evenodd;stroke:#000000;stroke-width:0.26458332px;stroke-linecap:butt;stroke-linejoin:miter;stroke-opacity:1"
           d="m 253.3503,164.90222 c -0.0166,1.23595 0.11388,2.04467 0.25193,3.14905"
           id="path484"
           inkscape:connector-curvature="0" />
        <path
           style="fill:none;fill-rule:evenodd;stroke:#000000;stroke-width:0.26458332px;stroke-linecap:butt;stroke-linejoin:miter;stroke-opacity:1"
           d="m 247.17817,165.02818 c 0.12965,1.08721 0.14044,2.15146 0,3.27501"
           id="path486"
           inkscape:connector-curvature="0" />
        <path
           inkscape:connector-curvature="0"
           style="fill:none;fill-rule:evenodd;stroke:#000000;stroke-width:0.75;stroke-linecap:butt;stroke-linejoin:miter;stroke-opacity:1"
           d="m 259.01859,167.04357 c 13.09076,-3.61388 29.38515,-6.01378 43.07899,-3.27501 1.04489,0.20898 9.70576,3.14236 7.43174,5.41636 -2.11669,2.1167 -12.86428,-0.51193 -15.36735,-1.76346 -4.47356,-2.23678 -10.64588,-1.45066 -14.10774,-4.91252"
           id="path509" />
        <path
           style="fill:none;fill-rule:evenodd;stroke:#000000;stroke-width:0.75;stroke-linecap:butt;stroke-linejoin:miter;stroke-opacity:1"
           d="m 280.05423,162.50894 c -0.54667,-0.54668 -0.75309,-19.44337 -0.34099,-22.74016"
           id="path507"
           inkscape:connector-curvature="0"
           sodipodi:nodetypes="cc" />
        <path
           style="fill:none;fill-rule:evenodd;stroke:#000000;stroke-width:0.26458332px;stroke-linecap:butt;stroke-linejoin:miter;stroke-opacity:1"
           d="m 279.62417,139.85785 c 2.87592,-3.28708 3.37391,-20.14526 2.74841,-25.14932 -0.20409,-0.93894 0.20549,-1.66144 0.80161,-1.9595 11.09862,-5.54931 3.46862,13.61232 0.44535,4.54249 -0.32655,-0.97963 -0.652,-1.75003 -1.24696,-2.58299"
           id="path488"
           inkscape:connector-curvature="0"
           sodipodi:nodetypes="ccscc" />
        <path
           style="fill:none;fill-rule:evenodd;stroke:#000000;stroke-width:0.26458332px;stroke-linecap:butt;stroke-linejoin:miter;stroke-opacity:1"
           d="m 289.14178,114.70853 c 0.9771,0.21623 0.72946,3.45789 -0.80161,2.58299"
           id="path490"
           inkscape:connector-curvature="0"
           sodipodi:nodetypes="cc" />
        <path
           style="fill:none;fill-rule:evenodd;stroke:#000000;stroke-width:0.26458332px;stroke-linecap:butt;stroke-linejoin:miter;stroke-opacity:1"
           d="m 279.52238,139.73679 c -3.90625,-3.75304 -5.34411,-17.85459 -5.34411,-24.0485 -0.037,-1.34045 0.65697,-2.95601 1.87044,-3.56274 5.51989,-2.75995 3.34692,10.11612 0.53441,7.30362 -1.14221,-1.14222 -1.4182,-2.55691 -2.40485,-3.74088"
           id="path492"
           inkscape:connector-curvature="0"
           sodipodi:nodetypes="ccccc" />
        <path
           style="fill:none;fill-rule:evenodd;stroke:#000000;stroke-width:0.26458332px;stroke-linecap:butt;stroke-linejoin:miter;stroke-opacity:1"
           d="m 279.61145,114.44133 c 1.85013,-0.86737 -0.11681,2.70939 -0.44534,2.85019"
           id="path494"
           inkscape:connector-curvature="0" />
        <path
           style="fill:none;fill-rule:evenodd;stroke:#000000;stroke-width:0.26458332px;stroke-linecap:butt;stroke-linejoin:miter;stroke-opacity:1"
           d="m 283.61953,117.11338 c 0.43064,1.50914 0.32595,7.07128 -0.89068,5.61132"
           id="path511"
           inkscape:connector-curvature="0" />
        <path
           style="fill:none;fill-rule:evenodd;stroke:#000000;stroke-width:0.26458332px;stroke-linecap:butt;stroke-linejoin:miter;stroke-opacity:1"
           d="m 274.80175,116.75711 c 0.5324,1.65453 0.56178,4.21915 -0.17814,5.25504"
           id="path513"
           inkscape:connector-curvature="0" />
      </g>
      <path
         inkscape:connector-curvature="0"
         id="path571"
         d="m 215.83837,166.99177 c 0.0473,0.48015 -0.23569,2.40485 0.35628,2.40485 1.72165,0 1.89665,-3.71467 0.89068,-4.72064 -0.81036,-0.81036 -1.28129,2.18989 -0.97975,3.29554"
         style="fill:none;fill-rule:evenodd;stroke:#000000;stroke-width:0.26458332px;stroke-linecap:butt;stroke-linejoin:miter;stroke-opacity:1" />
      <path
         inkscape:connector-curvature="0"
         id="path577"
         d="m 213.07725,164.40878 c -3.17417,-2.35795 -8.08895,-3.99179 -10.77729,-6.68014 -0.2353,-0.2353 -6.6924,0.0637 -7.30363,-0.0891"
         style="fill:none;fill-rule:evenodd;stroke:#000000;stroke-width:0.26458332px;stroke-linecap:butt;stroke-linejoin:miter;stroke-opacity:1" />
      <path
         inkscape:connector-curvature="0"
         id="path579"
         d="m 212.98818,169.21848 c -2.76233,3.12754 -7.33204,4.57092 -9.97568,7.21455 -0.69317,0.69317 -6.67457,-0.2672 -7.9271,-0.2672"
         style="fill:none;fill-rule:evenodd;stroke:#000000;stroke-width:0.26458332px;stroke-linecap:butt;stroke-linejoin:miter;stroke-opacity:1" />
      <path
         inkscape:connector-curvature="0"
         id="path581"
         d="m 195.0854,157.81771 c -0.41151,5.63875 1.4109,12.97172 0.0891,18.25905"
         style="fill:none;fill-rule:evenodd;stroke:#000000;stroke-width:0.26458332px;stroke-linecap:butt;stroke-linejoin:miter;stroke-opacity:1" />
      <path
         inkscape:connector-curvature="0"
         id="path583"
         d="m 202.21089,157.90678 c 0.0308,4.50512 -1.05277,15.74322 0.44534,19.2388"
         style="fill:none;fill-rule:evenodd;stroke:#000000;stroke-width:0.26458332px;stroke-linecap:butt;stroke-linejoin:miter;stroke-opacity:1" />
      <path
         inkscape:connector-curvature="0"
         id="path585"
         d="m 197.93559,160.48976 c -0.62813,-0.31666 -1.71373,0.9369 -1.33602,1.69231 0.42887,0.85774 0.81473,0.53878 1.60323,0.80161 3.63053,1.21018 0.54426,-6.23137 -1.15789,-1.6923"
         style="fill:none;fill-rule:evenodd;stroke:#000000;stroke-width:0.26458332px;stroke-linecap:butt;stroke-linejoin:miter;stroke-opacity:1" />
      <path
         inkscape:connector-curvature="0"
         id="path587"
         d="m 198.11373,166.72456 c -5.48902,1.70728 4.22796,4.35875 2.58299,1.06882 -0.83284,-1.66568 -2.61345,-1.34295 -2.49392,-0.2672"
         style="fill:none;fill-rule:evenodd;stroke:#000000;stroke-width:0.26458332px;stroke-linecap:butt;stroke-linejoin:miter;stroke-opacity:1" />
      <path
         inkscape:connector-curvature="0"
         id="path589"
         d="m 198.82628,172.24681 c -0.98073,-0.0609 -1.34967,0.75349 -1.60323,1.51417 -1.21035,3.63103 6.71393,0.95211 3.02833,-0.89069 -0.91342,-0.45671 -1.01226,-0.58296 -1.95951,-0.2672"
         style="fill:none;fill-rule:evenodd;stroke:#000000;stroke-width:0.26458332px;stroke-linecap:butt;stroke-linejoin:miter;stroke-opacity:1" />
      <path
         inkscape:connector-curvature="0"
         id="path591"
         d="m 199.8951,173.04843 c -0.88134,0.6413 -1.92238,2.01442 -2.13764,2.31578"
         style="fill:none;fill-rule:evenodd;stroke:#000000;stroke-width:0.26458332px;stroke-linecap:butt;stroke-linejoin:miter;stroke-opacity:1" />
      <path
         inkscape:connector-curvature="0"
         id="path593"
         d="m 198.73721,166.63549 c 0.5202,0.93532 0.62348,2.19163 0.62348,3.02833"
         style="fill:none;fill-rule:evenodd;stroke:#000000;stroke-width:0.26458332px;stroke-linecap:butt;stroke-linejoin:miter;stroke-opacity:1" />
      <path
         inkscape:connector-curvature="0"
         id="path595"
         d="m 196.7777,162.00393 c 0.85984,-0.49579 2.1425,-0.89129 2.8502,-0.97975"
         style="fill:none;fill-rule:evenodd;stroke:#000000;stroke-width:0.26458332px;stroke-linecap:butt;stroke-linejoin:miter;stroke-opacity:1" />
      <path
         inkscape:connector-curvature="0"
         id="path597"
         d="m 216.9072,164.49785 c -1.19175,0.28477 -2.89065,0.0891 -3.82995,0.0891"
         style="fill:none;fill-rule:evenodd;stroke:#000000;stroke-width:0.26458332px;stroke-linecap:butt;stroke-linejoin:miter;stroke-opacity:1" />
      <path
         inkscape:connector-curvature="0"
         id="path599"
         d="m 216.28372,169.48569 c -1.33999,-0.0161 -3.11379,0.21199 -4.09716,0.0891"
         style="fill:none;fill-rule:evenodd;stroke:#000000;stroke-width:0.26458332px;stroke-linecap:butt;stroke-linejoin:miter;stroke-opacity:1" />
      <path
         inkscape:connector-curvature="0"
         id="path601"
         d="m 216.63999,165.65574 c -0.20175,0.61546 -0.48988,1.21961 -0.48988,1.91497 0,4.32965 2.21372,-5.19602 0.26721,-1.6923"
         style="fill:none;fill-rule:evenodd;stroke:#000000;stroke-width:0.26458332px;stroke-linecap:butt;stroke-linejoin:miter;stroke-opacity:1" />
      <path
         inkscape:connector-curvature="0"
         id="path605"
         d="m 176.29194,182.66783 c -0.14898,0.84578 0.35628,1.71259 0.35628,2.49392 0,4.92327 5.75493,4.69336 10.15381,2.49392 0.99696,-0.49848 3.56097,0.71609 4.09715,-0.35627 1.25551,-2.51102 -2.71984,-10.99672 -0.89068,-12.82587 0.76795,-0.76796 4.35753,0.45562 4.98783,0.53441"
         style="fill:none;fill-rule:evenodd;stroke:#000000;stroke-width:0.26458332px;stroke-linecap:butt;stroke-linejoin:miter;stroke-opacity:1" />
      <path
         inkscape:connector-curvature="0"
         id="path607"
         d="m 183.95183,163.25089 c 3.7076,-0.15265 7.01737,-0.71255 10.68823,-0.71255"
         style="fill:none;fill-rule:evenodd;stroke:#000000;stroke-width:0.26458332px;stroke-linecap:butt;stroke-linejoin:miter;stroke-opacity:1" />
      <path
         inkscape:connector-curvature="0"
         id="path609"
         d="m 184.84252,169.84196 c 3.14433,0.37798 7.95052,-0.35627 9.97568,-0.35627"
         style="fill:none;fill-rule:evenodd;stroke:#000000;stroke-width:0.26458332px;stroke-linecap:butt;stroke-linejoin:miter;stroke-opacity:1" />
      <path
         inkscape:connector-curvature="0"
         id="path611"
         d="m 184.12997,155.41286 c 6.47377,0.10014 3.20647,-7.66235 3.20647,-12.82587"
         style="fill:none;fill-rule:evenodd;stroke:#000000;stroke-width:0.26458332px;stroke-linecap:butt;stroke-linejoin:miter;stroke-opacity:1" />
      <path
         inkscape:connector-curvature="0"
         id="path617"
         d="m 164.35676,156.30354 c -2.55797,0.45756 -5.20413,0.53441 -7.83804,0.53441"
         style="fill:none;fill-rule:evenodd;stroke:#000000;stroke-width:0.26458332px;stroke-linecap:butt;stroke-linejoin:miter;stroke-opacity:1" />
      <path
         inkscape:connector-curvature="0"
         id="path619"
         d="m 165.0693,162.89461 c -3.21177,0.1257 -7.49101,0.97089 -9.97567,1.24696"
         style="fill:none;fill-rule:evenodd;stroke:#000000;stroke-width:0.26458332px;stroke-linecap:butt;stroke-linejoin:miter;stroke-opacity:1" />
      <path
         inkscape:connector-curvature="0"
         id="path621"
         d="m 164.89117,170.19823 c -3.16425,0.39881 -7.50813,-0.31952 -10.33195,0.89069"
         style="fill:none;fill-rule:evenodd;stroke:#000000;stroke-width:0.26458332px;stroke-linecap:butt;stroke-linejoin:miter;stroke-opacity:1" />
      <path
         inkscape:connector-curvature="0"
         id="path625"
         d="m 178.25145,188.19008 c -7.10142,1.19698 -16.24766,-0.35627 -22.26714,-0.35627"
         style="fill:none;fill-rule:evenodd;stroke:#000000;stroke-width:0.26458332px;stroke-linecap:butt;stroke-linejoin:miter;stroke-opacity:1" />
      <circle
         r="1"
         cy="188.36823"
         cx="177.71704"
         style="fill:#000000;stroke:none"
         id="path629" />
    </g>
  </g>
</svg>
